<svg id="Capa_1" data-name="Capa 1" xmlns="http://www.w3.org/2000/svg" viewBox="0 0 350.47 383.21"><title>angular6</title><path d="M2,95.3c4-1.88,8-3.54,11.79-5.77,1.08-.64,1.86-3,1.62-4.39-.62-3.54-2.2-6.91-2.82-10.45-.83-4.75-1.12-9.58-1.64-14.38l1.31-.69c.74.87,1.92,1.65,2.14,2.63,1.71,8,3.24,16,4.93,24.5L191.16,2.28l1.52,2.36-8.84,6,156.23,91.68L345.49,89c1.95,3.23,3.08,5.1,4.17,6.92-5.13.86-3.56,5.5-4.83,8.57,8.19,5.24,8.19,5.24,7.08,9.09l-9.43-4.73C329.21,161.45,316.07,213.5,302.81,266L311,260.7l1.46,1.77-7.1,7.11c.17,0,1-.27,1.53.05a12.59,12.59,0,0,1,2,2.2c-.67.56-1.41,1.68-2,1.6-6.1-.85-7.37,2.65-8.12,7.75a158.75,158.75,0,0,1-4.33,18.67c-.54,2-2.08,3.71-3.17,5.55l-2.16-.75L294,282.78l-1.2-1.07C260.44,310,229.39,339.81,197.45,369c7,6.39,16.65,7.61,22,14.74l-.8,1.8c-1.82-.55-3.83-.78-5.45-1.69-5.17-2.94-10.3-6-15.25-9.28-2.23-1.49-3.67-1.32-5.65.35a76.76,76.76,0,0,1-8.41,5.95,18.48,18.48,0,0,1-3.84,1.41l-.9-1.42L190,369.62c-5.13-3.06-9.76-5.79-14.36-8.57q-23.93-14.44-47.84-28.92c-12-7.28-23.92-14.63-35.9-21.92-8.7-5.29-17.42-10.53-27.4-16.56,1.8,8.77,3.31,16.16,4.86,23.55.47,2.23,1.25,4.4,1.57,6.64.15,1-.48,2.19-.75,3.29-1-.72-2.82-1.27-3-2.19-2.21-9.6-4.32-19.23-6.13-28.92-.62-3.34-1.91-5.62-4.93-7.35-2.72-1.56-5-3.9-7.44-5.89l.75-1.7,8.65,2.26c-1-4.59-2.13-9.29-3.13-14-4-18.81-8-37.64-12-56.44C38.52,192.43,33.87,172,29.5,151.57q-6-28-11.48-56.14c-.67-3.39-1.84-3.61-4.71-2.31C9.65,94.77,5.75,95.93,2,97.3ZM186.57,16.67l-.66.72c-1.06-.45-2.56-.61-3.09-1.41-1.9-2.9-4.11-3.43-7.16-1.91q-14,6.95-28,13.75L64.46,68.27c-14,6.81-28.1,13.56-42.07,20.51a4.36,4.36,0,0,0-1.76,3.7c1.79,9.07,3.86,18.08,5.85,27.12,4.12,18.66,8.32,37.3,12.35,56q6.15,28.47,12,57c2.44,11.74,4.43,23.59,7.17,35.26,1.64,7,3.22,14.43,6.92,20.36,3.43,5.48,8.69,10.52,16,11.81a14.27,14.27,0,0,1,4.42,2.12q16.42,9.75,32.82,19.56c12.46,7.49,24.87,15.07,37.33,22.57,11.32,6.81,22.72,13.46,34,20.41,3.35,2.07,5.46,1.54,8-1.27,3.35-3.69,7.16-6.95,10.83-10.34q28.95-26.66,57.93-53.29c8.35-7.67,16.31-15.86,25.29-22.71,4.45-3.4,6.17-7.33,7.35-12.05,3.76-15,7.24-30.14,11.11-45.15,3.45-13.39,7.36-26.66,10.88-40,5.22-19.88,10.24-39.82,15.41-59.72,4.42-17,4.89-12.24-8.48-20.35-16.93-10.28-34.17-20.07-51.26-30.09-9.25-5.43-18.46-10.92-27.69-16.38L223,38q-12.3-7.24-24.6-14.5C194.49,21.22,190.52,19,186.57,16.67Z" transform="translate(-1.96 -2.28)"/><path d="M266,249.88c-10-.73-18.33-1.2-26.65-2.12-1.32-.14-2.85-2.07-3.56-3.53-7.05-14.33-13.85-28.78-21-43.06a7.15,7.15,0,0,0-5-3.4c-15.73-.69-31.48-1-47.23-1.48-2.46-.08-4.91-.35-8.27-.6-.59,1.44-1.42,3.43-2.21,5.42-2.07,5.19-4,10.44-6.21,15.57-3.75,8.71-7.56,17.4-11.58,26-1.56,3.33-3.64,5-8.29,4-5.79-1.24-12-.54-18.06-.48-4.93,0-7.5-3.82-5.37-8.49,15.55-34.07,31.19-68.09,46.66-102.19C158,116,166.62,96.32,175.36,76.73c.61-1.36,1.06-3.21,2.14-3.81s3-.15,4.42.21a5.14,5.14,0,0,1-.17,3.2c-3.8,7.17-8.18,14.06-11.57,21.41-7.91,17.18-15.36,34.58-23,51.88q-11.26,25.49-22.59,50.94c-4.71,10.52-9.64,20.95-14.39,31.45-1.58,3.5-2.91,7.11-4.61,11.29,7.17,0,13.64.19,20.08-.14a6,6,0,0,0,4.24-3c6.2-13.67,12.12-27.48,18.21-41.2,1.3-2.93,3-5.67,4.25-8,2.66.53,4.85,1.3,7.06,1.35,18.11.43,36.22.72,54.33,1.08,2.57.06,3.67,1,4.43,4,1.33,5.21,3.88,10.12,6.19,15,4.7,10.05,9.47,20.07,14.52,30a6.71,6.71,0,0,0,4.79,2.91c5.32.37,10.68.13,16.82.13-1.92-4.25-3.45-7.85-5.14-11.38-11.4-23.83-22.9-47.62-34.25-71.48-7.63-16-15-32.19-22.63-48.24C193.6,104,188.4,93.87,183.59,83.56c-.78-1.68-.3-4-.4-6l1.44-.6c6.78,14.19,13.5,28.4,20.33,42.55s13.91,28.45,20.78,42.72S240,190.89,246.2,205.59C252.27,220,261,233.3,266,249.88Z" transform="translate(-1.96 -2.28)"/><path d="M321.06,116.19c-11.19,48.11-22.37,96.22-33.48,144-2,1.27-4.69,2.57-6.86,4.48q-26.28,23.13-52.4,46.46Q215,323,201.59,334.89c-2.65,2.36-5.08,5-8,7-.93.62-3.19-.36-4.66-1a52.61,52.61,0,0,1-7.2-3.8c-16.16-10.33-32.24-20.79-48.42-31.11-13.48-8.59-27.11-17-40.54-25.63-2.56-1.66-4.25-5.17-8.66-.58C77.87,253.56,72,228.59,66,203.63c-5.1-21.27-10.34-42.5-15.43-63.77-2.41-10-4.66-20.12-6.86-30.21-.21-1,.39-2.12.62-3.19.87.82,2.27,1.49,2.54,2.48,2,7.32,3.77,14.69,5.55,22.05q5.52,22.81,11,45.64Q69.71,203.32,76,230c3,12.49,5.72,25.05,9.16,37.41.75,2.71,3.61,5.3,6.15,7,17.32,11.43,34.8,22.63,52.27,33.85q19,12.17,38,24.18a42,42,0,0,0,8.6,4.61c1.34.46,3.73-.5,5-1.6,14.65-13.1,29.13-26.39,43.73-39.54,12.22-11,24-22.57,37-32.53,7.07-5.41,9.21-12,11-19.67,6.3-27.09,12.86-54.12,19.3-81.19,3.48-14.57,6.87-29.15,10.46-43.7.36-1.46,1.83-2.66,2.79-4Z" transform="translate(-1.96 -2.28)"/><path d="M170.83,37.18A14.45,14.45,0,0,1,169.29,35c-.43-1-.7-2.11-1-3.16,1.07,0,2.34-.37,3.19.07q15.39,8,30.68,16.26c13.64,7.35,27.21,14.84,40.88,22.14,14.87,8,29.71,16,44.78,23.52,7.46,3.74,15.39,6.54,23.14,9.69,4.71,1.92,7.48,7.66,5.46,10L175.66,38.36c-4.25,2.41-7.75,4.62-11.43,6.46q-50.43,25.24-101,50.31c-4.05,2-8.64,2.9-12.93,4.46-1.2.43-2.18,1.45-3.33,2.06-1.44.76-3,1.38-4.46,2.06l-.92-1.91Z" transform="translate(-1.96 -2.28)"/><path d="M263.14,100c-8.8-1.43-14.35,4.21-21.39,7.37,3.74,1,7,1.57,10.06,2.73,4.93,1.88,5.74,6.16,6.18,10.92.46,5-3.06,7.18-6.15,9.3-3.79,2.6-14.54-.94-16.75-5-4.63-8.48-3.59-16.38,3.85-22.61a69.39,69.39,0,0,1,13.48-8.26C256.12,92.62,260.36,94.92,263.14,100Zm-15.77,23.63c.41-.83,2.25-3,1.76-3.9a14.83,14.83,0,0,0-5.36-5.19c-.53-.32-3.79,2-3.68,2.86C240.51,120.48,241,124.16,247.37,123.63Z" transform="translate(-1.96 -2.28)"/><path d="M181.15,132.75l20.54,42c-1.94.3-3.38.9-3.7.52-4.5-5.25-10.5-2.51-15.83-3.06-6.14-.64-12.33-.78-18.43-1.64-.6-.08-1.52-4-.9-5.6,2.52-6.45,5.46-12.74,8.49-19,2.18-4.48,4.76-8.76,7.15-13.13Zm12.5,35.08c-4.74-10.13-9.26-19.79-14.28-30.5l-12.17,30.5Z" transform="translate(-1.96 -2.28)"/></svg>