<svg id="Capa_1" data-name="Capa 1" xmlns="http://www.w3.org/2000/svg" viewBox="0 0 270.83 263.74"><title>bootstrap4</title><path d="M242.76.77c.41,3,1.32,6,1.11,9-.3,4.19-1.43,8.33-2.21,12.55,10,1.39,20-1.16,30.56,2.24-1.59,1.27-2.11,2.05-2.71,2.11-4.62.45-9.28,1.22-13.88,1s-6,2-6.85,5.87c-2.57,12.22-5.35,24.39-8,36.59-1.1,5.09-2.68,10.2-2.92,15.35q-1,22.15-1,44.34c0,14-.25,28.16,1.14,42.09,1.85,18.63,1.34,37.63,7.37,55.77.69,2.08-.91,4.86-1.15,7.34a49.13,49.13,0,0,0,0,7.28c.1,1.91.49,3.8.75,5.68-5,2-6.55.08-7.2-4.29-2.12-14.16-4.8-28.24-6.78-42.42-2.3-16.51-4.51-33.05-6-49.64-1.28-14.34-1.44-28.78-2.18-43.17-.6-11.75-2.18-23.53-1.73-35.23.41-10.8,2.9-21.52,4.55-32.26.45-2.92,1.18-5.79,1.77-8.62H28.39c1.17,11.89,2.63,23.13,3.3,34.41C32.5,80.18,32.8,93.67,33,107.14q.44,25.68.37,51.37c-.07,20.45-.47,40.89-.67,61.34-.08,8.16.08,16.32,0,24.48a11.62,11.62,0,0,1-2,6.28c-.68-72.52,3-145-5-217.78l-5.64-1.25c3.72,19.25,4.72,38.15,4.74,57.17s.38,38.26,1,57.38c.69,20.38,2.24,40.73,2.79,61.12.43,15.73.8,31.54-2.89,47.06a14.31,14.31,0,0,0,0,2.54c11.67-1.5,23.05-3.13,34.48-4.4,10.73-1.18,21.48-2.34,32.26-2.87,19.72-1,39.46-1.93,59.19-2.09,16.6-.14,33.24.34,49.8,1.54,12.5.9,24.88,3.42,37.32,5.12,5.09.69,10.21,1.07,15.32,1.63a25.83,25.83,0,0,1,5.87.85c1.07.38,1.77,1.84,2.63,2.82a16.63,16.63,0,0,1-3.63.95c-3.36.12-6.72,0-10.09,0-7.14.05-14.59,1.48-21.37,0-16.48-3.7-33-2.7-49.54-2.44-15.39.23-30.77,1.37-46.17,1.63-10.54.18-21.1-.79-31.64-.66-18.85.23-37.7.9-56.55,1.41a92.09,92.09,0,0,0-10,.53c-5.51.76-11,2.44-16.47,2.63-3.9.14-8.18,2.69-11.92-.69-.52-.47-1-1-1.44-1.55.67-.52,1.28-1.4,2-1.5,2.63-.36,5.32-.34,8-.68,8.48-1.09,10.57-3.22,11-12.1.52-11.29,1-22.59,1-33.89-.06-16-.53-31.93-1-47.89-.11-3.68-1-7.33-.87-11q-2.28,42.9-4.57,85.81l-1.35-.07c0-5.77-.16-11.55,0-17.31.63-19.21,1.68-38.42,2-57.63.31-18.46.49-37-.35-55.37C18.92,95.43,16.72,81.3,15,67.18c-1.14-9.16-3.1-18.22-4-27.39C10.39,34.39,9.71,30,1.39,30c3.74-2.13,1.46-6.72,6.05-6.88.18,0-.08-3.8.41-5.68a7.27,7.27,0,0,1,3.06-3.8C9.15,19.8,10.72,24,15.55,25.32l4-7.17,1.49.88c-.42.75-.82,1.53-1.28,2.26-1.44,2.32-1.15,3.6,1.91,3.8,12.58.85,25.15,2.22,37.75,2.63,20.27.66,40.56,1.25,60.83.9,27.07-.48,54.13-1.69,81.18-3,8.53-.41,17-2.12,26.3-3.35.33-3.23.73-7.22,1.26-12.55,4.49,4.1,3.63,8.85,3.72,13.79l4.88.23,4.14-23Zm-6.49,30.15c-2.55.09-5.49-1.1-5.54,3.7-.14,13.71-.66,27.42-.95,41.13-.17,8.26-.13,16.52-.27,24.78-.21,12.28-.81,24.56-.65,36.83.12,8.84,1.22,17.67,1.88,26.5.16,2.28.3,4.55.45,6.83l.29-.14C233.08,124.08,234.67,77.62,236.27,30.92ZM89,254.23l0,1.79,124.84-1.74C172.26,249.58,130.64,251.82,89,254.23ZM13,31.37c3,22,5.94,43.41,8.86,64.84l.88,0c-1.39-21.4-2.77-42.8-4.15-64.05ZM227.65,52.71c-5,13.44-4.57,27.12-2.05,40.92Q226.62,73.17,227.65,52.71ZM241.94,30.1c-2.11,5.82-2.37,12.13-2.09,19.4,1.92-6.46,3.58-12,5.23-17.61l1.47.74Z" transform="translate(-1.39 -0.77)"/><path d="M147,136.35c7.11.49,14,.36,20.64,1.58,7.9,1.46,14.55,5.25,19,12.65,10.25,17,7.51,44.1-6.45,58.44-9.62,9.89-21.35,14.23-34,17.86-10,2.86-19.93,4.8-30.28,3.66-10.07-1.11-20.14-2.31-30.15-3.89a33.78,33.78,0,0,1-10-3.75c-1.2-.62-2.11-2.75-2.21-4.26-.17-2.58.45-5.21.65-7.82,1.14-14.65,2.39-29.3,3.33-44,.64-9.95.91-19.92,1.18-29.89.34-12.43.64-24.87.7-37.31,0-10.11-.29-20.22-.42-30.33a6.16,6.16,0,0,1,6.38-6,21.6,21.6,0,0,0,7.22-1.06,76.85,76.85,0,0,1,42.65-3.67c12,2.36,24.32,11.57,28,23.28A57.25,57.25,0,0,1,164.6,112c-2.18,9.6-8.06,16.83-15.75,22.73C148.25,135.22,147.7,135.75,147,136.35ZM125.79,143l-.52-1.74c1.38-.51,2.8-.92,4.13-1.54,5.42-2.53,12.33-1.64,16.45-7.16,4-5.35,9-10.23,11.82-16.14,4.6-9.55,4.89-19.69,1.61-30.19-2.83-9.1-7.37-16.64-16.1-20.14a88.65,88.65,0,0,0-22-5.16c-13.19-1.63-25.07,5.27-37.79,7-.66.08-1.74,2.84-1.46,3.1,3.87,3.59,1.1,7.86,1.32,11.75.39,7.07.62,14.15.52,21.22-.14,9.61-.68,19.22-1,28.83-.19,5.6-.07,11.23-.44,16.82-1.14,17.33-2.47,34.66-3.69,52-.35,4.95-.73,9.9-.76,14.86A5.16,5.16,0,0,0,80,220.19c1.85,1.23,4.12,1.8,6.2,2.69,7.83,3.32,16.28,2.09,24.33,3.37,16.5,2.62,31.7-1.62,47.05-6.3C184,211.87,196,179.82,185,156.42c-1.91-4.07-4.78-8.49-8.44-10.77-9.56-6-20.52-6.07-31.45-4.87C138.65,141.49,132.22,142.25,125.79,143Z" transform="translate(-1.39 -0.77)"/><path d="M199.39,63.26c.71-3.92.9-7.26,2-10.25.64-1.7,2.78-2.84,4.25-4.24,1.05,1.28,3,2.56,3,3.84,0,5.32-.48,10.66-1,16a150.68,150.68,0,0,1-2.06,15.15,26.78,26.78,0,0,1-4.51,10,29.32,29.32,0,0,1-3.29-22.51c-5,.57-9.29,1.07-13.57,1.54-3,.34-4.59-1.56-4.32-4.1.8-7.53,2-15,3.22-22.5.09-.52,2.06-.73,3.15-1.09.85,2.71,2.18,5.39,2.4,8.15.19,2.5-.83,5.1-1.43,8.28Z" transform="translate(-1.39 -0.77)"/><path d="M99.19,211.34c-.8-1-2.28-1.92-2.3-2.91-.22-8.19-.18-16.4-.2-24.6,0-3.8,0-7.6.07-11.41.1-7.18,1.11-9.1,8.11-10.53,10.22-2.1,20.56-4.43,30.92-4.76,7.53-.23,15.5,1.71,22.66,4.34,8.45,3.11,10.52,11.7,10.09,19.42-.64,11.37-4.88,21.89-16.29,26.89a96.74,96.74,0,0,1-21.94,6.76c-8.74,1.53-17.74,1.76-26.64,2.12-2.64.1-5.34-1.25-8-1.93l.3-2c4.84,0,9.74.48,14.5-.1,11.61-1.41,23.41-2.33,34.63-5.34,8.27-2.21,14.54-8.23,17-17.52,1.29-4.79,2.93-9,1.62-14.23-1.81-7.19-5.54-11.69-13.08-12.32-8-.67-16.09-2-24-1.36s-15.65,2-22.88,6.1c-3,1.69-4.18,3.11-4,6.14.38,8.94.82,17.87,1.16,26.81.12,3.12,0,6.26,0,9.39Z" transform="translate(-1.39 -0.77)"/><path d="M97.35,129.17c-.53-9.58-1.54-19.12-1.42-28.64a66,66,0,0,1,3.13-17.94c.57-1.86,4.29-3.92,6.57-3.92,7.56,0,15.26.19,22.65,1.64,8.89,1.75,13.13,9.09,15.33,17.08,4.68,17.06-8,26.64-21.12,29.53-7.29,1.6-14.4,3.66-21.95,2.75C99.75,129.57,99,129.42,97.35,129.17Zm3.46-4.5c3.84.54,7.26,1.51,10.62,1.34a44.25,44.25,0,0,0,10.65-2.24C138,118.9,143.84,107.08,137,93.46c-4.2-8.38-13.89-13.22-24.33-11.13a59.75,59.75,0,0,0-9.6,2.62,4.39,4.39,0,0,0-2.18,3.32C100.75,100.44,100.81,112.61,100.81,124.67Z" transform="translate(-1.39 -0.77)"/></svg>