<svg id="Capa_1" data-name="Capa 1" xmlns="http://www.w3.org/2000/svg" viewBox="0 0 129.04 160.21"><title>css3</title><path d="M62.64,116.91a41.7,41.7,0,0,1-5.87-.93c-1-.34-2.5-1.23-2.61-2a3.53,3.53,0,0,1,1.7-2.91A24.45,24.45,0,0,1,63.64,109c6.58-.29,13.17-.1,19.59-.1.66,5,.66,5-9.24,7.28-1.36,7.08-3.83,14-3.64,20.85.15,5.51.5,12,6.45,16,9.65,6.57,20,9.08,31.08,5.46,3.05-1,6.2-4.36,7.54-7.42,3.28-7.52,7-15.79,4.85-23.84-3.4-12.54-3.19-26.39-12.68-37C100.75,82.53,93,78.26,82.53,79.93c-2.94.47-5.94.51-8.86.74-1.69-5.56-.91-6.87,4.43-7,8.39-.16,16.14-1.47,23.28-6.72,11.36-8.36,13.46-23.31,7.52-35.92C103.9,20.44,95.69,20.39,87,19.47c-5.43-.57-8.5,3.5-11.4,7.35-.59.78-.86,1.79-1.45,2.56-1.69,2.21-5,4.46-4.92,6.49a64.52,64.52,0,0,0,3.7,16.43c.49,1.44,3.82,1.81,5.73,2.88a10.45,10.45,0,0,1,2.11,2.27c-.77.69-1.43,1.75-2.33,2-3.61,1.09-19-1.5-22.92-3.9,6.85-2.55,4.29-8.09,3.71-12.39-1.24-9.29,1.6-16.82,7.57-23.66C73,12.38,81.44,10.94,90,10.71c12.63-.34,21,7.6,28.23,16.59,1.79,2.22,2.38,5.91,2.42,8.93.08,6.72.14,13.57-1.09,20.12-1,5.11-3.66,9.86-9.16,12.33-2.69,1.21-4.87,3.55-7.25,5.36,3.5,3.63,7.44,7.14,10.67,11.21A51.12,51.12,0,0,1,123.78,104c1.38,5.23,4,10.17,5.05,15.43,1.5,7.48,2.14,15.12,2.95,22.72.1.9-1.13,1.89-1.56,2.92-8.38,20.38-19.39,22-38.31,21.86-5.71,0-11.48-1.4-17.1-2.71-7.18-1.68-10.59-7.17-12.21-13.89-1.4-5.86-3.44-11.77-3.55-17.68C59,127.66,61.23,122.65,62.64,116.91Z" transform="translate(-2.74 -10.7)"/><path d="M36.88,78.41c0-.81-.17-1.38,0-1.78C39,72.27,39.3,68.5,34.18,65.9c-4.6-2.33-12.49-1.34-15.36,2.12-2.54,3.07-1.33,8.63,3,9.71a32.74,32.74,0,0,1,15.86,9.1c3.58,3.68,9.31,6.65,8.5,13-.95,7.44-4.48,14.35-12.45,15.2-8.19.87-17.19,1.6-23.54-6.26-2.43-3-3.85-13.17-1.88-16.4,1.74-2.84,4-3.17,9.09-1.32-4.72,6.11-4.3,10,1.55,14.24,5.31,3.85,14.67,3.21,17.84-1.23,2.46-3.44.1-8.64-4.83-12-7.24-4.93-14.31-10.13-21.3-15.42-3.08-2.32-2.87-5.7-.33-8.32,7-7.22,15.1-10.27,25.16-7.59,4.5,1.2,10.79,6.6,11.4,10.72S42.45,79.16,36.88,78.41Z" transform="translate(-2.74 -10.7)"/><path d="M38.49,145.42c1.94,3.33,3.81,6.7,5.84,10,3.43,5.53-.52,14.91-6.88,15.33-9.65.65-19.51-.13-24.75-9.6-2.07-3.73-.85-9.33-.78-14.08,0-.4,3.11-1.5,3.89-1,1.25.86,2.74,3,2.43,4.23-1,3.8.45,6.63,3.4,8a30.34,30.34,0,0,0,10.68,2.32c1.41.08,3-2,5.26-3.76-6.94-5.56-13.79-10.32-19.75-16a10.1,10.1,0,0,1,5-17.39c5-.89,10.85,0,15.79,1.66,5.79,1.94,7.1,11.67,3,16.55C40.57,142.87,39.55,144.14,38.49,145.42ZM23.73,131.68c.09,6.42,5.95,11.12,10.33,9.89a3.53,3.53,0,0,0,2.1-2.64c-.08-2-.27-4.49-1.5-5.66a17.53,17.53,0,0,0-7.49-4.14C26.08,128.85,24.31,131.22,23.73,131.68Z" transform="translate(-2.74 -10.7)"/><path d="M46.53,24.08l-4.42,2.61c-6.78-7.67-12-9.47-18.91-6.23-5.61,2.61-7.54,7.73-8.24,13.47s3.29,8.3,7.45,10.39c6.11,3.07,10.5,2.47,14.9-1.82,2.46-2.39,4.61-2.73,7.15-.25,3,3,1.08,4.83-1.2,6.89-8.34,7.56-22.91,8.28-31.66,2.47C7.45,48.85,1.47,39.25,3,34.33c2.78-9,7.5-16.47,17.19-19.23,4.38-1.25,8.94-2.47,13.43-2.55C40,12.43,44.56,16.91,46.53,24.08Z" transform="translate(-2.74 -10.7)"/></svg>