<svg id="Capa_1" data-name="Capa 1" xmlns="http://www.w3.org/2000/svg" viewBox="0 0 340 266"><title>html5</title><path d="M76.52,262.93c0-4.82-.09-8.16,0-11.49.22-6.42.46-12.84.91-19.25.07-1,1.26-1.91,1.51-2.26,3.23.52,5.83,1.13,8.46,1.33,6.66.53,13.34.69,20,1.34,14.51,1.44,29,3.21,43.51,4.57a156.75,156.75,0,0,0,16.37.35c11.88-.14,23.76-.22,35.63-.72,21.84-.91,43.11-5,63.4-13.39,8-3.33,15.87-7.14,23.59-11.14,8.84-4.58,13.73-12.65,17.65-21.51,4.29-9.7,5.45-20,6-30.4a38.07,38.07,0,0,0-10.37-28.45c-6.42-7-12.83-14.59-20.66-19.69-8.11-5.27-17.71-8.58-27.05-11.43a327.64,327.64,0,0,0-37.18-9c-8.45-1.53-17.22-1.24-25.84-1.88-7.25-.54-14.47-1.41-21.72-1.84-8.17-.5-16.36-.86-24.54-.92-5.87,0-11.77,1-17.6.65-14.51-.91-27.95,3.82-41.61,7.42-2,.55-3.88,1.94-6.54,3.31,0-5.5-.5-10.83.1-16,1.34-11.82,3-23.59,5-35.32,1.08-6.58,2.84-13,4.42-19.53.22-.93,1.33-2.5,1.67-2.41,5.76,1.54,11.22-5.3,17.22-.45,1.27,1,4,.49,6,.23,6.9-.87,13.78-1.9,20.65-2.93,12.63-1.89,25.26-3.76,37.87-5.76,7.19-1.14,14.37-2.46,21.53-3.8C208.57,10,221.84,6.23,234.37,0A.83.83,0,0,1,235,.1c2.82,8.64,5.58,17.13,8.13,25L231.89,26.8l-.4-1.07L237.81,22c-1.63-5.93-3.31-12-4.89-17.85-45.55,15.12-92.5,21.24-141.13,24.12-4.18,21.3-8.06,43.28-9.91,66.32,10.23-2.87,19.17-5.44,28.15-7.86a32.12,32.12,0,0,1,7.5-1.29c14.07-.29,28.14-.55,42.21-.52,4,0,8.07,1.21,12.13,1.52,4.83.36,9.69.38,14.54.49q4.74.1,9.47,0c13.94-.29,27.4,2.4,40.66,6.46,3.88,1.19,7.91,1.88,11.84,2.94,6.23,1.69,12.54,3.22,18.63,5.35,5.74,2,11.9,3.79,16.72,7.29,13.61,9.88,26.93,20.61,32.06,37.63,1.76,5.87.56,12.69.47,19.07-.13,8-2.36,15.49-4.81,23.15-2.66,8.31-7.17,14.68-12.86,20.77-6,6.42-13.8,10.24-21.44,13.3-13.77,5.52-28.15,9.65-42.47,13.6-22.71,6.28-46.07,4.29-69.23,4.43-11.49.07-23-.1-34.47-.78-6.25-.38-12.39-2.33-18.64-3.08-6.45-.77-13-1-19.45-1.33-4-.19-8.08,0-13.31,0,.69,8.51,1.38,16.84,2.06,25.15,8.87,0,16.46-.12,24,0,12.3.24,24.59.86,36.88,1,15.27.1,30.56.25,45.8-.39,24.74-1,48.69-7.43,72.43-13.62,15.94-4.16,31.09-11.71,46.19-18.64,4.74-2.18,8.2-7.25,12.17-11.07,14.48-13.94,17.26-32.33,17-50.92-.14-9.19-3.49-18.82-7.36-27.34-6.38-14.07-15.69-26.53-28.51-35.3-8.37-5.74-18-9.65-26.94-14.5-3.91-2.12-7.56-4.72-11.5-6.76a35.49,35.49,0,0,0-8.94-3.39c-8.16-1.71-16.41-2.92-24.59-4.55-4-.8-8-2-11.93-3.14-14.23-4.23-28.81-5.5-43.54-5.14-15.57.39-31.14.85-46.7,1.65-6.73.34-13.41,1.73-20.14,2.41-2,.21-4.29,0-3.47-3.45,1.64-6.75,3.06-13.56,4.68-20.81C119.6,52,131,50.24,142.42,48.22c11.7-2.08,23.51-3.66,35.05-6.4,13.29-3.15,26.34-7.36,39.52-11,.86-.24,2,.55,3.09,2.07-5.23,1.26-10.51,2.37-15.69,3.8-10.24,2.85-20.33,6.32-30.67,8.7-12.07,2.78-24.29,5.14-36.56,6.75-7.53,1-15.3.28-23,.14-1.8,0-3.59-.87-6.39-1.61-1,5.58-2.09,11.48-3.15,17.28,14.41-.95,28.12-2.06,41.85-2.66,6.7-.29,13.45.68,20.17.53,3.85-.09,7.71-2,11.51-1.82,7.47.36,14.91,1.48,22.33,2.54,7.21,1,14.45,2.07,21.55,3.66,14.73,3.3,30.1,5.21,43.88,11,15.06,6.27,30.14,14.45,42.42,25.08,13,11.27,22.68,26.1,28.57,43.45,5.81,17.11,2,33.24-.76,49.59-.9,5.27-4.92,10.26-8.33,14.75-4.47,5.88-9,12.15-14.88,16.39-6.37,4.6-14.13,7.42-21.54,10.36A188.69,188.69,0,0,1,270,247.69c-14.53,3.87-29.14,7.44-43.76,11-5.67,1.38-11.4,2.56-17.15,3.5-8.75,1.43-17.52,3.32-26.33,3.67-12.34.49-24.72-.38-37.09-.45-9.46,0-18.93.48-28.38.3-8-.15-15.92-1-23.88-1.48-1.37-.09-2.74-.12-4.1-.23C84.62,263.61,79.9,263.21,76.52,262.93Z" transform="translate(0 0)"/><path d="M44.46,132.11,27.31,131c-.6,6.17-1.71,12.5-1.74,18.84-.09,19.1.24,38.21.41,57.31,0,3.64,0,7.29.24,10.91.64,8.42,1.5,16.83,2.2,25.25.34,4.09-1.55,5.12-5.36,4.13s-8.14-1.2-12-2.53c-1.61-.56-3.31-3-3.66-4.81C4.54,225-.41,210.29,0,194.58c.55-20.14.26-40.3,1.14-60.42,1-22.72,2.71-45.42,4.52-68.09.81-10.11,2.64-20.14,4-30.2l1.67-.1a62.15,62.15,0,0,1,.28,7.7c-.88,10.89-2,21.77-2.92,32.66-1.07,12.43-2.37,24.85-3,37.31-1,20.13-1,40.32-2.34,60.43C2,195.14,5.34,215.67,10.92,236c.53,1.92,2.62,3.9,4.48,4.81,2.67,1.29,5.8,1.63,8.82,2.4-2.07-38.91-5.62-77.46,1.32-115.42,5.54,0,10.82-.14,16.08,0,4.69.17,6.08,2.14,5.13,6.74-5.13,24.68-5.63,49.73-4.78,74.74.41,11.87,3,23.72,5.19,35.46C49.05,255,51.82,256.56,65.4,257.4c-1.3-9.51-3-19-3.73-28.49-.44-5.84.92-11.8.92-17.71,0-13.18-.79-26.37-.43-39.54.47-17.12,1.61-34.23,2.69-51.34.81-12.82,1.38-25.71,3.13-38.41,1.86-13.42,4.94-26.66,7.59-40,.6-3,1.66-5.9,2.59-9.14l-17.55,1.8C59,41.74,56.72,50,55.5,58.39,53.38,73.1,52,87.93,50.11,102.69c-.19,1.5-1.59,4-2.51,4.08-7.77.33-15.55.19-22.75.19-1.5-23-.14-45.29,6.68-67.28l-23.43-7c1.63-1.16,2.33-2.07,2.85-2,7.55,1.47,15.1,3,22.57,4.78.91.22,2.2,3.17,1.89,3.5-5.14,5.51-3.64,12.94-5.3,19.32C26.29,73,26.75,88.15,27.65,103.38c5.83,0,11.43.14,17-.15.85,0,2.14-2,2.3-3.23,1.88-14.21,3.35-28.47,5.43-42.64,1-7,3.14-13.73,4.61-20.63.34-1.58,0-3.29,0-5.8,5.41-.51,11.36-1,17.3-1.67,2.53-.26,5-.72,7.55-1.09a73.06,73.06,0,0,0-2.41,6.94c-4.8,20.09-8.64,40.31-9.7,61.06-.8,15.56-3.47,31-4,46.58-.72,22.21-.22,44.47-.22,66.7,0,4.71.36,9.43.11,14.13-.53,9.81.29,19.34,3.54,28.73.83,2.4-.32,5.5-.7,9.8-7.2-1.57-13.92-2.9-20.55-4.6-1.07-.27-2.3-2.11-2.48-3.37-2.44-16.81-5.45-33.59-6.77-50.5-1-13.15-.18-26.48.4-39.71.24-5.65,2-11.23,2.93-16.86C42.86,142.56,43.53,138,44.46,132.11Z" transform="translate(0 0)"/><path d="M174,121.71c4.25-5.18,7.55-9.26,10.93-13.28,1.94-2.31,4-2.87,7.23-1.92,4.52,1.32,9.41,1.3,14.48,1.89,0,.76.15,1.59.17,2.42.36,19.15.81,38.29,1,57.44.16,13.33.05,26.67,0,40,0,2.92-.4,5.83-.63,8.87l-21.35,1.94V139.58l-1.63-.55c-4,3.37-8.17,6.56-11.92,10.19-2.18,2.11-3.49,2.16-5.31-.19-2.23-2.89-4.68-5.6-7.05-8.4-.14.1-.62.27-.63.46-.79,14.77-1.69,29.53-2.24,44.3-.38,10.3-.18,20.63-.48,30.94-.08,2.64-1,5.23-4.73,4.7a31.88,31.88,0,0,0-4.15,0c-7.56-.06-7.33-.45-7.06-8.12.45-13.21-.08-26.46.18-39.69.2-10.2,1.17-20.4,1.41-30.6.13-5.48-.52-11-.86-16.45-.14-2.2-.29-4.41-.58-6.6-.36-2.77-.75-5.54-1.36-8.26-1-4.43.13-6.06,4.73-6.15,5.23-.09,10.46-.1,15.69,0,.78,0,1.67,1,2.27,1.71C165.71,111.22,169.18,115.62,174,121.71Zm.2,3.89c-4.35-4.65-9.57-9.09-13.31-14.55-3.53-5.16-7.64-2.55-11.34-2.12s-4.22,3.86-4.15,7.34q.28,12.45.09,24.91c-.18,10.64-.75,21.28-.88,31.92-.16,12.89-.05,25.79,0,38.68,0,1.52.16,3,.24,4.47,7.81,1.06,7.8,1.06,7-6.16a19.56,19.56,0,0,1,0-3.67c.8-10.32,1.84-20.62,2.41-31,.78-14.14,1.19-28.3,1.82-42.45,0-.7.65-1.37,1-2.06.65.37,1.86.75,1.86,1.11-.11,5.86,6.05,7.36,8,11.84.91,2,3.23,2.54,5.41.38,3.75-3.73,7.77-7.18,11.63-10.81,2.38-2.22,3.83-1.31,4.07,1.47.8,9.32,1.88,18.66,1.94,28,.09,15.53-.53,31.07-.83,46.61,0,1.68,0,3.36,0,4.68,3.79.48,6.83,1.18,9.86,1.15,2.87,0,5.47-.24,5.47-4.85,0-11.48,1-23,1.22-34.44.19-9.22-.14-18.45-.17-27.68,0-12.28,0-24.55,0-37.61-1.51,0-3,.08-4.49,0-2.69-.18-5.65.18-8-.85-3.56-1.55-5.85-.61-8,2.1C181.56,116.46,178,120.88,174.24,125.6Z" transform="translate(0 0)"/><path d="M217.85,115.86c.18-1.48.36-3,.57-4.66,8.23-1.16,15.5,1.16,22,6,.91.67,1.34,2.22,1.65,3.46,3.85,15.33,2.49,30.78,1.2,46.28-.63,7.62-.11,15.34-.11,23.05,13.51-2.44,24.32-8.35,30-21.6A4.15,4.15,0,0,1,276,166.1c7.18-.61,14.39-1,22.39-1.43a62.9,62.9,0,0,1-2.18,6.76c-6.91,14.64-14.53,28.6-30.25,35.78-4.26,1.95-8,5-11.92,7.73-8.69,6.09-18.3,6.55-28.39,5.4-5.2-.59-7.2-3.88-7.22-8.17,0-13.5.7-27,.58-40.52-.12-12.5-1.08-25-1.44-37.49-.17-6.1.2-12.22.32-18.33.49,1.11,1.31,2.2,1.41,3.35.5,5.87,1,11.75,1.14,17.63.31,18.09.36,36.18.65,54.28.13,8.77.57,17.54.89,26.75,34.65-1.87,57.75-18.72,72.37-49.57H275.79c-5.12,16.89-18.08,23.83-35.61,25,0-8.57-1.07-17.33.24-25.7a140.84,140.84,0,0,0,.73-41.85c-.77-5.43-3-8.88-8.41-10-1.82-.38-3.72-1.82-5.31-1.49C224.25,114.94,220.25,110.91,217.85,115.86Z" transform="translate(0 0)"/><path d="M81.92,107.19c-.38,8.35-.75,16.69-1.17,26l26.31-2.64c-.92,11.66-2.67,22.43-2.42,33.15.41,17.59-1.65,35.48,4.43,53h9.55c-2.94-26.68-2.21-53.24,3.19-79.58-1.19,27.75-3.54,55.47.83,82.56H105.36c-5.49-27.91-4-55.95-1.61-84.75-4.84.4-9.77.83-14.71,1.18a62.63,62.63,0,0,1-9.57.32c-.78-.06-2-2.28-2-3.5.06-6.2.24-12.42.84-18.58.23-2.36,1.68-4.6,2.58-6.9Z" transform="translate(0 0)"/><path d="M135.29,103c.38,8.63.61,16.12,1.1,23.6.22,3.35-.66,5.13-4.28,5.39-2,.14-3.82,1.51-5.79,1.75-1.8.22-3.69-.36-5.54-.58l-.09-1.56c2.17-.58,4.32-1.22,6.5-1.73,5.48-1.28,6.86-3.32,6.36-9-.38-4.42-.51-8.87-.79-14a116.54,116.54,0,0,0-28.16,2.31c-6.16,1.33-12.69.91-19.72,1.32.63-1.82.83-3.19,1.15-3.22C102.44,105.8,118.85,104.41,135.29,103Z" transform="translate(0 0)"/></svg>