<svg id="Capa_1" data-name="Capa 1" xmlns="http://www.w3.org/2000/svg" viewBox="0 0 319 295.5"><title>jquery</title><path d="M37.87,301a14,14,0,0,1-8.56-8.82c-1-3-4.2-5.35-5.71-8.3-.71-1.39-.42-4.64.53-5.12,5.74-2.88,12.25-4.55,17.66-7.82,11.8-7.13,25.48-8.34,38.44-11.87,21.49-5.86,43.2-4.46,65-2.18,11.92,1.25,23.88,2.23,35.75,3.78,16.46,2.16,32.81,5.16,49.31,7,10.59,1.18,21.37,1.06,32.08,1.26,4.09.07,8.43.06,12.26-1.07A86,86,0,0,0,293,260.41c2.22-1.28,2.74-5.5,3.51-8.5,2.33-9,2.24-9-7.81-9.45-12.15-.55-23.16-3.57-29.57-14.08a31.62,31.62,0,0,1-4.45-13.1c-.57-6.08.45-12.28.57-18.43a18.87,18.87,0,0,0-.88-6.33c-2.26-6.84.15-9.45,7.78-8.16,3.87.64,7.73,1.44,11.64,1.81s5,2.05,5.34,5.49A105.72,105.72,0,0,0,282,205.81c1.3,5,7.11,8.18,12.28,7.39,4.23-.66,9.06-6.73,8.87-11.12a116.71,116.71,0,0,0-8.08-39.29,17.54,17.54,0,0,1-.88-4.39c-1.05-8.59-1-8.46,8.6-8.18a112.39,112.39,0,0,0,12.83-.65c2.83-.24,4.43.47,5.82,3.08,6.66,12.55,8,26.14,9.12,39.71,1.17,13.77,1.95,27.57,2.46,41.37a37.36,37.36,0,0,1-1.89,12.68c-3.18,9.73-3.82,20.62-12.5,28.11-7.45,6.44-13.82,14.24-24.5,16.85-8.75,2.14-17.3,3.12-26.34,1.35-5.5-1.08-11.37-.39-17-1-15.29-1.55-30.53-3.43-45.81-5-6.56-.69-13.18-.85-19.74-1.56-5.11-.55-10.15-1.69-15.25-2.35-10.22-1.3-20.42-2.94-30.68-3.54-11.73-.69-23.66-1.54-35.23-.24-13.17,1.48-26.11,5-39,8.16a83.87,83.87,0,0,0-16.3,6.09C45.16,295,42.18,297.86,37.87,301Z" transform="translate(-14.05 -5.47)"/><path d="M163.26,178.15c0-18.57,1.09-32.44-.27-46.14-1.86-18.8-.31-37.51-.32-56.25,0-9.8-.57-19.62-.06-29.4.43-8.32.7-16.47-2.25-24.57-1-2.86,3.44-6.1-.31-9.07,1.12-.85,2.11-2.23,3.38-2.44,10.57-1.79,21.3-4.75,31.07,2.17,2,1.44,2.9,2,1.19,4.62-2.12,3.28-2.34,7.51-2.85,11.38-1.34,10.23-3,20.47-3.47,30.75-2,39.22-4.44,78.48-.94,117.7.7,7.89,5.18,15.58,8.33,23.24.54,1.31,3.43,3,4.81,2.77,2-.34,4.81-2.18,5-3.58.66-5.5.43-11.09.52-16.64s.2-11.21.27-16.81c.12-8.9,0-17.8.37-26.69.35-8.6,1.38-17.17,1.74-25.77.55-13.12.71-26.25,1.18-39.37.36-9.94,1.13-19.88,1.35-29.83A63.59,63.59,0,0,0,210.73,32c-1.09-6.34-2.76-12.62-3.59-19-.16-1.18,2.19-3.29,3.89-3.8,4.54-1.34,9.45-1.81,14-3.08,3.89-1.08,5.8-1.16,6.08,3.07.41,6.06,2.32,12.07,2.54,18.13q.73,20.62.4,41.27c-.25,16.61-1,33.22-1.49,49.83-.35,12.65-.73,25.29-.82,37.94-.12,17.45,0,34.91,0,52.36,0,9-7,15.27-12.73,21.9-1.29,1.48-5,1.82-7.65,2.07-6.12.58-12.3.81-18.46,1.12-8.39.42-12.82-2.44-17.22-11.2C167.82,206.85,161.16,190.89,163.26,178.15Z" transform="translate(-14.05 -5.47)"/><path d="M73,65.47C71.39,55.7,67.88,46.18,70.19,36c2.48-10.95,9.53-18.44,20.48-21.44,11.57-3.18,23.73-4.62,35.71-6.34,4.1-.59,8.46.09,12.65.6a5,5,0,0,1,3.45,2.6c3.65,10.62,5.61,21.2,3.13,32.62-1.44,6.62.65,13.88.87,20.86.67,21.25,1.2,42.51,1.8,63.77.17,5.81.5,11.62.52,17.43,0,4.3-.6,8.61-.51,12.9.21,10.78.67,21.55,1,32.33.14,4.65.11,9.31.38,14,.64,11.05,1.41,22.1,2.07,32.23-6.76,1.89-13.6,3.82-20.46,5.7-3.53,1-4.53-1.07-4.64-3.73-.31-7.63-.62-15.28-.75-22.92-.37-21.19-.65-42.39-1-63.58q-.37-26.94-.7-53.9a33.63,33.63,0,0,0-.06-3.48c-1.3-10.49-1.34-9.71-12.47-9.73C97.2,85.86,84.59,81,76.24,69a33.9,33.9,0,0,0-3.39-3.62ZM94.44,41.73c-1.55,15.19,8.23,21.7,22.81,21.27,3.85-.11,6.18-1.39,5.59-5.41-.73-5.08-1.45-10.16-2.13-15.25-.6-4.53-4.12-6.33-9-4.94C106.08,39,100.37,40.25,94.44,41.73Z" transform="translate(-14.05 -5.47)"/><path d="M14.21,134.91c7.09-.51,14.08-1,21.07-1.53,4.31-.33,6.93,1.57,7.68,5.37a137.09,137.09,0,0,1,2,13.76c.6,6.63.83,13.29,1.26,19.93.7,10.69,7.05,19,13.63,27.1a26.28,26.28,0,0,0,8.25,6.62c1.41.72,4.64-.18,6.14-1.35,3-2.32,6.29-5,7.64-8.13a39.36,39.36,0,0,0,3.37-15.16c0-6.76-2-13.49-2.5-20.27-.83-10.73-1.16-21.5-1.7-32.17-4.19-5.76-9.47-2.94-15.41-1.21-.74-4.09-1.6-8.08-2.17-12.09-.68-4.81-1.67-9.68-1.37-14.47.11-1.78,3.29-4.57,5.41-4.87C77.62,95,87.81,94.22,98,93.3c4.72-.42,7,1.18,7.41,6.12,1.69,20.4,4.65,40.73,5.64,61.15.8,16.56-.15,33.22-1.19,49.79-.32,5.1-3.18,10.18-5.55,15-.76,1.53-4.5,1.68-5.49,3.23-4.05,6.35-11.72,6.91-17.79,9a39.65,39.65,0,0,1-20.41.86C46,235.1,33.9,227,28.33,213.81c-7-16.64-12.75-33.79-12.09-52.23.28-7.91-1.4-15.87-2.17-23.81A25.05,25.05,0,0,1,14.21,134.91Z" transform="translate(-14.05 -5.47)"/><path d="M293.3,64.08c8.58,0,16.1-.11,23.61.12,1.11,0,3,1.71,3.07,2.66.11,4.2.81,8.45-2.59,12.3-3.05,3.45-4.28,8.65-7.85,11.27-13.31,9.8-28.28,9.79-43.33,3.84-17.12-6.77-23.88-19.5-23.78-36.38.06-11.25-.91-22.51-1.74-33.75-.48-6.53.35-8.16,7.37-8.66,14.42-1,28.88-2.43,43.32-2.32,16.48.13,28.41,8.33,33.64,23.71,1.27,3.75.12,8.21,0,12.35,0,1.32-.45,2.63-.52,4-.39,6.82-1.11,7.06-8.81,6.34-16.29-1.51-32.5-1-48.42,3a19.3,19.3,0,0,0-3.08,1.53c6.47,3.81,8,12.16,16.78,12.33A35.68,35.68,0,0,0,292.53,75c2.49-.82,6.24-2.84,2.39-6.55C294.17,67.76,294.12,66.42,293.3,64.08Zm5-23.4,1.05-1.61c-2.27-1.38-4.46-3.78-6.83-4a122.73,122.73,0,0,0-20.38.14c-3.16.3-6,3-4.92,6.43.31,1,3.67,1.85,5.52,1.7C281.28,42.7,289.78,41.62,298.3,40.68Z" transform="translate(-14.05 -5.47)"/><path d="M276.74,117.41c5.58-3.31,10.18-6.31,15.06-8.84a43.44,43.44,0,0,1,9.5-3.38c11.85-2.91,24.89,7.51,25.39,18.87.33,7.64-4,11.16-10.2,13.21a19.12,19.12,0,0,1-17.26-2.66c-6.17-4.39-6.49-4.79-12.44-.36-3.93,2.92-7.44,6.33-11.06,9.6a3.37,3.37,0,0,0-1.11,2.21c-.15,7.21-.46,14.44-.13,21.64.21,4.58-.28,5.33-5.18,4.55-5.45-.86-10.93-1.62-16.42-2.24-3.51-.4-5-1.94-4.6-5.26.6-5.25,1.09-10.51,1.43-15.78.62-9.94,1.19-19.88,1.59-29.83a25,25,0,0,0-.95-6.78c-1.35-5.52,2.25-9.5,8.42-9,5,.45,10,.85,14.83,1.72,4.25.76,3.61,4.31,3.72,7.17A36.45,36.45,0,0,1,276.74,117.41Z" transform="translate(-14.05 -5.47)"/><path d="M72.85,65.41c-.36,2.78-.82,5.55-1,8.33-.11,1.46.65,3.06.25,4.4-1,3.37-1.31,8.12-6.22,8.15-12.43.08-17.13-3.5-17.56-9.61a22.15,22.15,0,0,1,.84-7.89c1.69-5.47,6.54-7.93,12.52-6.53,3.81.89,7.52,2.11,11.3,3.2Z" transform="translate(-14.05 -5.47)"/></svg>