<svg id="Capa_1" data-name="Capa 1" xmlns="http://www.w3.org/2000/svg" viewBox="0 0 977.24 215.14"><title>responsive</title><path d="M936.79,138.33c-10.4-5.41-19.65-10.6-29.22-15.14-20.39-9.68-39.11-21.51-54.85-38-4.54-4.77-5.51-9-4.13-15,1.7-7.44,2.36-15.12,3.64-22.67.25-1.49,1.41-4.12,1.9-4.06,1.79.21,4.06.87,5.1,2.18C867.44,56,876.49,65.28,888,72.22c11,6.63,21.24,14.58,32,21.64,15.27,10,32.44,15.7,49.73,21,5.37,1.65,10.62,3.67,15.86,5.69,2.27.88,4.82,9.26,4.15,11.79-1.87,7.19-3.85,14.37-5.2,21.67-1.25,6.81-2.51,8.6-9.15,9.51-20.92,2.88-41.08,8.77-60.78,16.09a249.77,249.77,0,0,0-31.57,14.23c-11,5.93-21.25,13.17-31.94,19.65-3.8,2.3-7.94,4.05-11.93,6-.87.43-1.77.83-2.68,1.19-1.81.7-3.64,1.37-5.46,2-.59-2.15-1.86-4.37-1.65-6.44.79-7.66,1.94-15.3,3.26-22.89a8.52,8.52,0,0,1,2.84-5.16c10.29-7.13,20.55-14.37,31.28-20.79,6.68-4,14.15-6.66,21.3-9.85,5-2.23,9.93-4.53,15-6.45,8-3,16.12-5.67,24.13-8.62C930.32,141.47,933.22,140,936.79,138.33Zm47-12.09a6.44,6.44,0,0,0-1.31-.93c-8.65-3.22-17.19-6.82-26-9.53-16-4.88-30.26-13.23-44.66-21.19-12.18-6.73-23.34-15.28-35-22.91-6.2-4.06-12.56-7.88-19.64-12.31-.91,6.56-1.76,12.53-2.52,18.51a2.32,2.32,0,0,0,.73,1.71c5.74,5.4,11,11.54,17.42,15.94,11.63,8,23.79,15.2,36.06,22.14s24.16,14.84,38.81,16.21c1,.1,2.51,2.19,2.56,3.41a4.45,4.45,0,0,1-2.42,3.4c-13.57,5.16-27.08,10.59-40.9,15-24.23,7.77-44.87,21.8-65.28,36.31a7.41,7.41,0,0,0-2.93,4.61c-.41,4.26-.14,8.58-.14,14.35,4.36-1.43,8.4-1.92,11.48-3.9,16.39-10.58,32.63-21.4,51.1-28.12,12.65-4.61,25.34-9.23,38.25-13,11-3.22,22.45-5.17,33.65-7.86,1.33-.32,3.15-1.53,3.46-2.68C979.06,145.88,981.34,136.24,983.81,126.24Z" transform="translate(-12.66 -7.65)"/><path d="M736.77,69c2.12-4.16,5.22-5.4,10.22-3.89,4.7,1.42,9.34,3.06,14.06,4.4,3.1.88,4.6,1.82,2.84,5.52-9.4,19.71-18.19,39.72-28,59.23-3.66,7.27-10.23,13-14.1,20.25s-8.86,8.9-16.29,7.51c-3.67-.68-7.56-.12-12.12-.12l2.47-2.76-23.54-56-1.63.48c-1,10.38-1.68,20.81-3.2,31.12-1.24,8.42-3.41,16.7-5.46,25-.26,1.06-2.28,2.31-3.55,2.39a156.26,156.26,0,0,1-16.48.28c-4.37-.19-6.54-3.43-6.25-7.37a145,145,0,0,1,2.7-18.52c2.19-10.76,6.45-21.1,4.93-32.52-.71-5.33,2.45-7.62,8-7.21,5.9.43,11.8.83,18.39,1.29-1.08-5-2.14-10.54-3.51-16-.8-3.17-2.29-6.17-3.08-9.34-.66-2.68-2.19-5.93,1.64-7.15-.6-1.14-2.12-3.09-1.77-3.54,1.35-1.68,3.28-4,5-4.06a227.71,227.71,0,0,1,22.76,1c1.36.11,3.19,1.85,3.75,3.26,2.86,7.19,5.38,14.53,8,21.81,3.14,8.6,6.3,17.19,10,27.3,7.34-11.32,14-21.68,20.8-32,1.27-1.94,2.44-5.4,5.41-2.94,1.18,1,1.35,4.76.43,6.38-3.17,5.58-7,10.81-10.65,16.09-3,4.34-6.24,8.54-9.32,12.84-.65.92-1.66,2.14-1.48,3,1.22,6.14-2.49,6.1-6.26,5.67-9.88-12.28-12.87-27.41-18.83-41.21a53.33,53.33,0,0,1-2.93-9.45c-.86-3.86-3.44-4.74-6.84-4.72-4.9,0-9.81,0-13.58,0,2.06,7.89,3.66,16.1,6.38,23.92a296.93,296.93,0,0,0,11.59,28.51,169.07,169.07,0,0,1,12.93,40.25h13.39c4.77-7.53,10.08-15,14.43-23,6.22-11.41,11.79-23.17,17.53-34.83,3-6.06,5.94-12.16,8.46-18.42.56-1.39-.2-4.58-1.31-5.17C747.62,73.54,742.13,71.4,736.77,69Zm-83.54,88.75c2-6.14,4.4-11.08,5.24-16.26,1.8-11.17,2.81-22.47,4.14-33.71.43-3.61-2.15-4.26-4.69-4.16s-5.84-1.41-6.37,3.3a183.92,183.92,0,0,1-3,19c-2.06,9.44-4.66,18.75-6.73,28.18-.22,1,1.47,3.36,2.51,3.51A59.45,59.45,0,0,0,653.23,157.79Z" transform="translate(-12.66 -7.65)"/><path d="M629.78,90.65c-2.84-5.6-5.45-11-8.25-16.2-2.64-5-6.35-6.31-12.8-4.45-4.35,1.25-6.81,4.34-7.11,9-.54,8.45,4.35,14.19,9.7,19.7,1.81,1.86,4.18,3.32,5.55,5.44,6.54,10.11,11.4,20.83,10.76,33.29-.3,5.65.75,11.81-1.13,16.87-5.64,15.15-15.56,19.15-30.38,20.49-17,1.53-26.94-9.57-36.92-20.81-6.23-7-6.93-15.55-7.79-24.09-.13-1.3,1.57-3.38,3-4.14a87.24,87.24,0,0,1,13.32-6.07c1.6-.55,4.72.18,5.69,1.45,6.07,7.92,11.48,16.34,17.7,24.13,1.4,1.76,5.16,2.29,7.8,2.21s2.82-3,4-5.08c2.42-4.45.51-7.56-1.27-10.73a64.49,64.49,0,0,0-14.95-18.38c-6.89-5.77-12.53-13.3-13-23a237.2,237.2,0,0,1,.07-24.73c.64-10.32,8.28-16.21,15.3-22.48,11.69-10.46,28-8.57,38.52-3.17,7.63,3.9,14.17,9.58,16.87,17.94,1.91,5.88,2.37,12.27,3,18.49.12,1.29-1.77,3.12-3.15,4.15C639.51,84,634.59,87.3,629.78,90.65Zm2.85-8.73c2.81-1.83,7-3.92,10.18-7.07.87-.87-1.54-4.85-2.18-7.47a30.45,30.45,0,0,0-13.15-18.76c-9.08-6.14-18.41-7-28.81-3.91C587.5,48,581.93,55.08,580,66.34c-3,17.07-.61,32.26,13,44.24,2.92,2.56,7.31,4.11,9.06,7.23,3.37,6,5.63,12.74,7.79,19.35,1.47,4.47-2,11.84-6,14.24-5.64,3.46-12.23,3.48-16.48-.89a168.13,168.13,0,0,1-14.68-17.3c-3.38-4.59-6.82-5.85-12.15-3.7-3.11,1.26-5.51,2.32-3.11,5.8,3.79,5.47,5.95,11.56,8.39,17.66,1.46,3.65,5.4,6.66,8.85,9.07a49.55,49.55,0,0,0,13.58,7.07c4.09,1.25,8.79,1.14,13.13.72,8.35-.82,17.88-8.81,19-16.56,1-7.06.46-14.46-.24-21.63a29.9,29.9,0,0,0-3.88-12.47c-5.11-8.29-11.36-15.87-16.57-24.1-6-9.55-7.37-18-1.06-26.16A15.25,15.25,0,0,1,606,63.77c3.63-1,7.65-.85,11.5-.84a5.3,5.3,0,0,1,3.83,1.77C625.09,70.09,628.58,75.68,632.63,81.92Z" transform="translate(-12.66 -7.65)"/><path d="M59,108.54c11.06,4.49,22.3,8.68,33.22,13.58,15,6.72,29.77,14,44.7,21,5.34,2.49,10.79,4.79,16.3,6.91,4.37,1.68,4.67,2.67,1.36,6.12-5.69,6-10.92,12.47-17.21,17.72-2.21,1.85-7.85,2.15-10.38.62a207.54,207.54,0,0,0-41.09-19.32c-11.42-3.86-23-7.22-34.7-10.27-11.32-3-22.88-5-34.16-8.07-1.84-.49-3.89-4.1-4-6.37A227.09,227.09,0,0,1,13,105c.1-1.89,2.7-5,4.41-5.22,8.84-.92,14.81-7.12,22-11.07a158,158,0,0,0,15.85-10C64,72.51,72.56,66.11,81,59.46a272,272,0,0,0,21-17.9c9.12-8.87,17.65-18.34,26.42-27.57,3.17-3.33,5.43-2.63,7.25,1.54a73.6,73.6,0,0,0,6.64,11.71c1.91,2.81,1.19,7.79-1.9,9.58a9.93,9.93,0,0,0-1.87,1.5c-13.63,13.53-26.76,27.63-41,40.42C88.36,86.88,77.51,93,67.57,100.24c-1.75,1.27-2.81,3.46-4.38,5A43.61,43.61,0,0,1,59,108.54Zm86,45.78a72.83,72.83,0,0,0-6.46-4c-12.9-6.3-25.87-12.45-38.76-18.76-16.75-8.19-33.51-16.35-52-19.88-1.08-.21-2-1.24-3-1.88.93-1,1.68-2.4,2.83-3,2.63-1.3,5.8-1.71,8.15-3.35,6.62-4.6,12.89-9.69,19.38-14.48,11.61-8.56,23.09-17.23,32.48-28.35.69-.81,2.85-.37,5.07-.58L141.05,30c-2.67-1.33-5.55-2-7.18-3.76-3.71-4.06-3.46-4.29-6.32.77a4.77,4.77,0,0,1-.82,1.24C117,37.2,107.56,46.54,97.35,54.92A366,366,0,0,1,64.64,79c-13.1,8.49-26.79,16.1-40.47,23.64-4,2.17-6.39,4.42-6.38,9,0,6.13-.38,12.26-.1,18.37.06,1.29,2.19,3.51,3.45,3.57,11.2.53,21.75,3.55,32.32,7.1,11.78,4,24.13,6.29,35.8,10.52,13.34,4.83,26.18,11,39.29,16.51,4,1.67,7.41.79,9.8-3.21C140.27,161.34,142.44,158.27,145,154.32Z" transform="translate(-12.66 -7.65)"/><path d="M360.38,165.51c3.37-5.26,6.92-10.41,10.06-15.79,7.77-13.34,15.94-26.49,22.76-40.3,3.47-7,4.32-15.32,6.45-23a118.51,118.51,0,0,1,3.73-12.06c1.33-3.35,3.88-3.5,6.52-.9A8.22,8.22,0,0,0,413,75.67a51.92,51.92,0,0,0,40.84-4.15c1.95-1,3.71-4.71,3.46-6.92-.22-2-3.14-4.68-5.28-5.15-7.66-1.66-15.52-3.51-23.27-3.38s-15.55,2.55-23.32,4c-.92.17-1.81.49-3.78,1,0-6.86-.1-13.17.05-19.47a26.63,26.63,0,0,1,1.1-7.82c1.66-5,6.24-6.19,10.68-7.35,3.66-.95,7.37-1.73,11-2.67,10-2.57,19.55.23,29.17,2.27,3.5.75,7.17,1,10.53,2.1,10.21,3.43,17.36,10.85,21.92,20.1a26.77,26.77,0,0,1,2.08,15.91c-3.1,15.83-12.72,27.2-28,32.42-9.21,3.15-19.09,4.55-28.77,6.06-4.73.74-7.39,3-9.08,7-4.53,10.73-8.91,21.53-13.54,32.22a159.87,159.87,0,0,1-7.24,14.46,5,5,0,0,1-3.73,2.3C384.88,157.72,373,161.83,360.38,165.51Zm12.46-9.27c7.83-.83,15.74-1.57,23.59-2.65.87-.12,1.65-2.14,2.17-3.4,2-4.83,3.73-9.77,5.82-14.55,5.3-12.15,10.89-24.17,16.06-36.37,1.6-3.76,3.2-4.7,6.88-2.6,2.05,1.16,5,2.42,6.94,1.79,7.53-2.43,15.47-2.58,22.95-6.23,8.79-4.3,15.94-9.43,20.56-18,5.43-10.06,6.44-22.53-4.17-31.22A45.28,45.28,0,0,0,452.28,33c-14.9-2.76-29.45-6.26-43.45,2.43V53.81a18.07,18.07,0,0,0,3.16-.52c14.64-5.41,29.2-4.12,43.7.55,6.64,2.14,10.39,8.12,7.6,13.73-1.88,3.76-5.17,8.17-8.81,9.42A149,149,0,0,1,427,83.26c-5.34.76-11.39,1.38-16-3.33-.31-.32-1.24,0-2.53,0C403.37,108.53,388.3,132.53,372.84,156.24Z" transform="translate(-12.66 -7.65)"/><path d="M512.59,171.6c-2.09-7.77-3.8-14.18-5.59-20.83-4.11,7.32-8.25,14.27-11.95,21.44-1.51,2.93-3.33,4.29-6.51,3.95l-23.9-2.48c8.41-22.85,16.52-44.88,24.93-67.71h21.81l7.23,14.11c2.82-16.17,5.37-31.12,8-46,.9-5,2.18-9.91,3.18-14.88s2-9.94,2.74-14.95c.79-5.64,1.68-5.81,7.42-5,4,.6,8.39-.63,12.58-1.15,1.12-.14,2.17-.89,3.29-1,2.63-.27,5.28-.32,7.92-.46.08,2.7.76,5.54.15,8.08-3.38,14.23-7.38,28.33-10.53,42.61-1.62,7.37-2.07,15-2.75,22.58-1.45,16.09-3,32.18-3.91,48.3-.43,7.37-.54,8.48-7.54,9.6C530.4,169.21,521.54,170.34,512.59,171.6Zm-39.1-4.44c4.86,3.08,12.52,3.55,15.09,1,4-4,5.23-9.29,7.14-14.36A88,88,0,0,1,503,138.93c1.63-2.66,5.87-2.16,6.74.53,2,6.39,3.94,12.85,5.37,19.4.83,3.76,2.81,5.49,6.56,4.44,3.45-1,7-1.75,10.41-2.67,2.51-.67,6-.71,7.21-2.37s.34-5,.4-7.67c.06-2.16.07-4.33.26-6.48.89-9.69,1.66-19.39,2.8-29.05,1-8.81,1.94-17.69,3.86-26.33,3.24-14.6,7.23-29,11-43.8h-17.5c-1.68,6.15-3.83,13-5.36,20-1.37,6.26-2,12.68-3,19q-2.5,15.53-5.07,31c-.94,5.63-1.72,11.31-3.16,16.82-.41,1.59-2.7,3.12-4.45,3.72-.69.23-2.66-2-3.38-3.42-3.11-6.21-5.9-12.58-9-18.81-1.9-3.86-11.47-4.27-13.5-.53a54.22,54.22,0,0,0-3.55,8.67c-3.72,11.22-7.24,22.5-11,33.69C477.21,159.16,475.27,163,473.49,167.16Z" transform="translate(-12.66 -7.65)"/><path d="M787.25,149.44c11.26,11.74,26.7,13.2,38.38,4.37,2.38-1.8,4.25-4.25,6.36-6.39s6.3-1.22,7.82,2c2.15,4.62,4.63,9.12,6.32,13.9.62,1.75.16,4.93-1.08,6.13-4.6,4.41-9.28,9.06-14.78,12.11a57.16,57.16,0,0,1-17.78,5.92c-12.4,2.13-24.71,1.22-36.1-4.76-13.11-6.87-23.65-15.94-23.45-32.33a148.68,148.68,0,0,1,2.06-24.6c.7-3.88,3.84-7.41,6.19-10.89A77,77,0,0,1,782.45,94c5.95-4,12.18-3.58,18-3.53a47.57,47.57,0,0,1,20.15,4.78c17.26,8.59,20.22,20.45,11.77,38.28-6.24,13.17-18.18,17.13-31.84,17C796.47,150.52,792.38,149.89,787.25,149.44Zm26.23-11.72c6.33-3.37,9.73-8.27,12.48-14.28,4-8.66,4.13-13.59-3.35-18.94a60.09,60.09,0,0,0-17.9-9c-4.45-1.28-10.63-1.22-14.48,1-11.05,6.29-19.55,15.71-25.65,26.94-5,9.25-4.76,19.16-3.7,29.47,1.18,11.45,8.45,17.62,17,22.82,10.08,6.15,21,7.77,33,6,8.88-1.28,16-5.5,23.19-9.67,5-2.88,5.79-7.81,3.22-11.54s-6.6-3.85-11.85-.71c-14,8.35-29.13,7-42.34-3.13-3.75-2.89-5.09-7.38-4.37-12.16.75-5,4.5-6.25,9-4.16,3.48,1.61,7.52,2.12,11.36,2.8,1.08.19,2.71-1.42,3.48-1,5,2.59,9,.47,13-2.21a10.31,10.31,0,0,0,1-.95Z" transform="translate(-12.66 -7.65)"/><path d="M316.36,139.5l-6.71-6.12c-7.82,4.9-15.22,9.81-22.89,14.26-8.51,4.92-17.63,5.43-26.8,2-9-3.39-14.1-11.94-15.16-21.23-.5-4.41,3.27-6.53,7.58-5.18,2.32.73,4.95.4,7.44.63,3.08.29,6.15.82,9.24,1s6.56.9,9-.31c8.12-4,16.82-7.2,21.68-16.1,5.45-10,0-25.15-10.41-29.61-8.77-3.77-17.56-3.27-26.23-1.61-4.3.81-8,4.54-12,6.94-7.21,4.33-15.15,8-19.33,15.76-7.4,13.84-11.19,28.18-2.32,42.82,2.9,4.79,6.54,9.32,12.87,10.44,1.78.31,3.34,2,5,3.14,16,11.37,31.63,6.91,46.85-1.37,6.08-3.3,11.24-8.29,17-12.22,1.94-1.33,4.49-1.77,6.76-2.62l.87,1.42c-.66,1-1.1,2.35-2,3-9.42,6.47-18.62,13.34-28.49,19.06s-20.79,6.17-31.85,5a8.79,8.79,0,0,1-3.83-1c-8.77-5.76-18.42-10.63-25.91-17.76-8.68-8.25-10.63-19.53-8.24-31.62,2-10,5.37-19.27,13-25.9,8.59-7.45,17.26-16.11,27.5-20a47.59,47.59,0,0,1,30.95-.43c14.82,4.64,20.58,21.37,17.52,33.25-2.46,9.57-9.75,15.5-18.39,19.38-6.52,2.93-13.46,5-20.27,7.26-3.52,1.18-7,1.81-10.25-1.27-1.17-1.09-3.63-.81-5.51-1.15-.56,6.6,4.89,13.56,12.15,15.39,11.51,2.91,21.52-1.28,30.65-7.56,4.63-3.18,9.6-6.77,9-13.94-.2-2.48,2.44-3.54,4.06-1.47a104.19,104.19,0,0,1,8.32,12.79C317.71,135.49,316.77,137.27,316.36,139.5Z" transform="translate(-12.66 -7.65)"/><path d="M323.82,99.5c6.22,2.54,12.05,5,18,7.28,3.91,1.48,13.8-2.23,16.87-6a8.28,8.28,0,0,1,2.05-1.87c3.42-2.08,4.33-4.94,2.55-8.47-4.65-9.25-12.59-14.75-21.91-18.3-10-3.8-16.32-15.35-14.61-26.1,2.46-15.5,11.5-25.45,25.78-30.24C363,12.25,374.09,10.31,385,7.85c3.64-.82,5.52.88,5.72,4.81.39,7.87-.31,15.57-3.25,22.91-.52,1.3-2.21,3-3.39,3a117.5,117.5,0,0,1-13.51-.74c-8.19-.77-16,6.68-13.5,14.24,1.23,3.7,5.93,6.62,9.62,9,4.19,2.76,9.05,4.48,13.53,6.82,6.38,3.32,11.77,14.43,11,23.52s-5.09,16.19-10.38,22.22c-7.4,8.44-16.63,14.68-28.28,17.38-9.54,2.21-17.6.62-25.71-4-3.51-2-8.22-3.7-7.87-8.11.48-6.09,2.68-12,4.18-18.06A4.86,4.86,0,0,1,323.82,99.5Zm57.36-67.69c1.19-6.35,2.35-12.55,3.58-19.17-8.19,1.84-15.67,3.4-23.09,5.21-14.23,3.46-25.17,10.71-27.61,26.31-1.33,8.51-.36,18.93,11.66,22.31,10,2.83,17.14,9.45,22.18,18.46,3.31,5.93,1.88,15-3.76,18.75-8.78,5.8-17.71,11-28.93,5.14-4.84-2.53-9.2-.41-10.8,3.72s.71,8.73,5.53,10.79c15.58,6.68,29.4,3.18,41.36-7.94a51.62,51.62,0,0,0,10.86-14.48c4.41-8.93,4.5-19.43-4.47-26.46-2.44-1.91-5.37-3.19-8.06-4.77-4.33-2.55-8.89-4.79-12.93-7.75-7.79-5.7-9.39-15-3.46-22.79,2.43-3.19,6.48-6.24,10.27-7C369.21,30.94,375.34,31.81,381.18,31.81Z" transform="translate(-12.66 -7.65)"/><path d="M159.39,53.94H186.2c.15,2.69.14,5.15.5,7.56a4,4,0,0,0,1.79,2.5c.4.23,1.68-.57,2.28-1.17C197,56.56,202.94,50,209.46,44c7.53-6.87,16.84-10.9,26.39-14.1a58.78,58.78,0,0,1,14.46-3c9.4-.66,17.31,8.08,17.33,17.53.05,18.2-19.24,29.89-35.89,27.15-3.25-.54-6.52-.91-10.44-1.44-4.68,6.57-9.46,13.26-14.22,20-.39.54-.6,1.3-1.11,1.64-8.07,5.37-7.88,14.46-9.83,22.43-1.37,5.58-1.56,11.45-2.38,18-4.29-.27-8.83-.67-13.39-.84-8.32-.3-16.64-.41-24.91,1.14-1.08.2-3.49-1.44-3.62-2.44-.31-2.53.36-5.18.56-7.8,1.09-14.87,1.94-29.76,3.31-44.61C156.44,69.89,158.07,62.27,159.39,53.94ZM181,57.61c-5.13,0-9.46-.27-13.72.16-1.33.14-3.39,2.08-3.54,3.38-1.28,10.87-2.15,21.79-3.22,32.68-1,10.12-2.08,20.23-3.25,31.63,4.38,0,9.59-.14,14.79,0,3.94.14,7.88.92,11.82.94,1.91,0,5.3-.76,5.51-1.73,1.19-5.43,2.36-11.06,2.11-16.56-.37-8.09,2.32-14,9.14-18.21a6.88,6.88,0,0,0,1.91-2.19c4.68-7.3,9.25-14.68,14.06-21.9A5,5,0,0,1,220.33,64c7.25.43,14.47,1.58,21.71,1.68,9.06.12,18.74-4.73,20.8-16.59,2.11-12.2-5.17-19.82-17.33-17.53-9.48,1.79-18,6-25.74,11.28A109.35,109.35,0,0,0,191,71.68c-2.61,3.78-5.92,7.07-8.91,10.57L181,81.42Z" transform="translate(-12.66 -7.65)"/><path d="M468,125.58c1.12,12.62-4.82,22-14.68,29.06-3.92,2.81-8.63,4.71-13.21,6.37-11.32,4.11-20.5-5.59-21.37-14.84A44.25,44.25,0,0,1,424,120.6c2.95-5.36,7.78-10.9,13.14-13.47C449.27,101.34,468.85,106,468,125.58Zm-42.33,13.47c0,10.52,3.39,15.65,9.79,15.2,7.72-.54,15.22-2,20.51-9.62,4.09-5.89,4.81-12.15,5.55-18.53.87-7.41-3-12.46-10-14a29,29,0,0,0-8.38-.39,7.49,7.49,0,0,0-4.79,2,43.37,43.37,0,0,0-6.25,9.35C429.27,129.19,427,135.52,425.64,139.05Z" transform="translate(-12.66 -7.65)"/><path d="M265.74,116.14c-2.61-.34-5.43-.14-7.77-1.11-9.93-4.15-11.27-16-2.8-23,7-5.71,23.7-7.58,32,.28,4.89,4.64,3.6,12.32-.78,16C282.42,111.67,271.12,115.75,265.74,116.14Zm.55-6.53c4.28-1,8-1.81,11.65-2.71,4.58-1.13,8-4.8,7.6-8.09s-5.36-7.06-9.36-7c-4.46.13-9.14-.11-13.27,1.22-2.66.87-5.3,4-6.44,6.67-.76,1.82.42,5.55,2,7C260.46,108.5,263.78,108.77,266.29,109.61Z" transform="translate(-12.66 -7.65)"/><path d="M782.64,124.89a18.45,18.45,0,0,1,.3-2.48c.62-2.91.4-7.26,2.19-8.4,3.86-2.45,8.86-4.71,13.22-4.42,11.88.77,18.71,8.7,17.37,18.47-.48,3.5-2,6.58-5.81,7.15a149,149,0,0,1-19.49,2.09C786.49,137.36,782.56,130.77,782.64,124.89Zm11.28,5.32c4.93-1,8.53-1.46,11.84-2.68,1.16-.43,2.38-2.93,2.18-4.28a7.27,7.27,0,0,0-3.17-4.29,11,11,0,0,0-6-1.94c-2.54.13-5.53.75-7.36,2.3a7.16,7.16,0,0,0-1.79,6.25C790.24,127.6,792.76,129.05,793.92,130.21Z" transform="translate(-12.66 -7.65)"/></svg>