<svg id="Capa_1" data-name="Capa 1" xmlns="http://www.w3.org/2000/svg" viewBox="0 0 158 183.34"><title>scss</title><path d="M8.41,130.14,0,126.89c1.51-8.12,3.88-8.94,11.91-6.68,6,1.7,12.57,2,18.91,2.79,5.8.74,7.58,3.33,6.41,8.09-.77,3.17-2.42,3.34-5.19,2.75-9-1.93-8.92-1.9-9.93,6.73-.2,1.72-1.69,3.29-2,5a33.47,33.47,0,0,0,4.2,22.06c5.24,9.05,14.54,14.82,26.2,14.83,7.26,0,15.36-.3,21.12-5.35a21.23,21.23,0,0,0,6.25-9.32c3.57-11.94,4.56-24-1.43-35.71-2.18-4.28-3.82-8.8-6.17-13a41.41,41.41,0,0,0-15.44-16.2C45.56,97.47,36,92.3,27.11,86.4,16.32,79.26,13.18,68.69,12.65,57.16,11.92,41,20.82,29.23,33.1,18.51,39,13.4,45.2,8.58,52.84,7.42c13.72-2.08,28,1.7,36.69,13.32,1.4,1.88,3.14,3.55,4.63,5.37,4.17,5.09,4.21,11.19,5.21,17.08.34,2,1.86,3.82,2.19,5.81a43,43,0,0,1,.66,9.73c-.16,2.63-1.22,5.21-1.86,7.82a37.53,37.53,0,0,1-1.21,5c-1.09,2.73-3.09,5.19.27,8,.74.62-.14,3.62-1.19,4.92a7.32,7.32,0,0,1-4.94,2.6C85.7,86.88,79.84,83,74.08,79a37.51,37.51,0,0,0-6.14-3.83c-2.85-1.24-3.51-2.45-1-4.48a19.34,19.34,0,0,0,2.15-1.87c3.34-3.63,6.75-4,10.57-.87a27.13,27.13,0,0,1,2.28,2.26c7.63-8,7-17.53,5.47-26.75-.87-5.22-3.54-10.33-6.17-15.16C76.42,19.46,67.23,15.58,56.4,17c-7,.89-11.84,4.19-16,9.32-4.85,6-10.26,11.56-12.31,19-1.2,4.39-3.78,8.85-3.43,13.12.43,5.14,2.65,10.42,5.27,15.11,3.93,7,11.64,10.2,19,13.93,10.78,5.48,20.16,12.65,26.49,22.63,4.13,6.51,9,12.66,12.87,19.28,1.45,2.47.94,5.83,1.55,8.75.86,4.18,2.5,8.31,2.71,12.5.16,3.23-1.68,6.49-2.1,9.79C89.34,169,83.78,176,79.55,183.32,78,186,72.92,188,69.13,188.57c-11.78,1.67-23.76,2.74-35.52-.2-11.58-2.9-28-13.59-26.36-28.6C8.37,149.81,8.09,139.72,8.41,130.14Z" transform="translate(0 -6.88)"/><path d="M103.79,173.87c-1.45-5.5,2.39-8.69,7-11.91,3.51-2.46,5.13.34,7.55,1-.63,1.47-.74,3.43-2,4.32-7.2,5.08-5.43,10.55,4.66,13.7,5.48,1.71,13.52,0,15.84-3.31,2.47-3.57.8-9.34-3.93-12.54-5.14-3.47-10.37-6.88-15.77-10.1-10.28-6.11-9.09-13-.62-19.34s18.17-6.74,28.46-3.33c5.37,1.78,10.58,11.81,7.43,15.53a18.3,18.3,0,0,1-8.2,4.95c-2.38.73-5.08-.45-4-3.46a3,3,0,0,1,.55-.84c2.75-3.32,3.94-7,.05-10-4.16-3.19-9.45-3.22-14.79-1.64-5.5,1.64-6.33,5.29-5.92,9.25.13,1.17,1.62,2.57,2.95,3.28,5,2.63,10.87,4.42,15.2,7.61,11.49,8.46,12.7,17.2,3.09,26.55-2,2-6.34,2.95-9.78,3.33-8.34.9-17.55,3.88-24-3.43-2.38-2.73-3.59-6.13-5.33-9.23Z" transform="translate(0 -6.88)"/><path d="M150.43,87.41c-1.07-4.38-.8-8.64-3.09-11.35-3-3.57-10.82-3.27-16-.69-5.59,2.78-5.59,9.1.15,11.71a85.59,85.59,0,0,0,10,3.57c8.35,2.53,12.16,8.22,14,14.93,2.11,7.67-5.51,16.55-14.61,17.51a42.14,42.14,0,0,1-22.44-3.73c-4-1.87-9-13.55-7.21-17,1.41-2.66,3.61-4.73,7.34-1.83a27.93,27.93,0,0,0,3.9,2.12c.1,3.63-2.93,7.5,2.84,9.95a24.09,24.09,0,0,0,18.32.68c3.7-1.38,3.44-10.38-.36-12.84-3.49-2.26-6-5.17-12.07-5-10.73.26-13.07-5.43-10.74-15.08,2.08-8.59,8.77-11.59,17-13.71,7.63-2,13.24.71,18.33,6.42,3.65,4.08,2.16,7.84.41,11.38C155.31,86.12,151.64,86.83,150.43,87.41Z" transform="translate(0 -6.88)"/><path d="M148.84,29.57a8.16,8.16,0,0,1,.68-2c3.87-5.75,1.31-11-6-12.46-8.73-1.75-14.89,3.62-17,11.55-1.15,4.2-1.26,8.68-1.48,13.05-.26,5,.85,9.63,6.72,11.55,4.74,1.55,12.72-2,15.63-6.44a58.89,58.89,0,0,1,4.6-5.41c4.43,6.52-1.18,9.81-3.21,13.19-4.76,7.91-22.34,8.09-28,.82-8.31-10.67-9.44-29,4-39,11.29-8.46,22.22-9.69,30.84-.15,2.51,2.77,2.78,8.15,2.16,12.08-.31,2-4.92,3.36-7.58,5Z" transform="translate(0 -6.88)"/></svg>