<?xml version="1.0" standalone="no"?>
<!DOCTYPE svg PUBLIC "-//W3C//DTD SVG 20010904//EN"
 "http://www.w3.org/TR/2001/REC-SVG-20010904/DTD/svg10.dtd">
<svg version="1.0" xmlns="http://www.w3.org/2000/svg"
 width="510.000000pt" height="407.000000pt" viewBox="0 0 510.000000 407.000000"
 preserveAspectRatio="xMidYMid meet">
<metadata>
Created by potrace 1.15, written by Peter Selinger 2001-2017
</metadata>
<g transform="translate(0.000000,407.000000) scale(0.100000,-0.100000)"
fill="#000000" stroke="none">
<path d="M3251 3009 c2 -99 -17 -148 -82 -216 -31 -33 -49 -44 -82 -49 -39 -5
-41 -4 -23 10 11 9 24 16 30 16 5 0 7 3 4 6 -4 3 -20 -2 -37 -11 -36 -18 -51
-13 -95 34 -17 17 -33 31 -37 31 -9 0 -23 -68 -20 -99 2 -16 -1 -21 -9 -16 -9
5 -10 25 -6 66 6 47 4 63 -9 75 -8 9 -13 20 -10 25 4 5 1 9 -5 9 -7 0 -9 -9
-5 -22 5 -17 4 -19 -3 -9 -8 11 -14 7 -27 -18 -9 -18 -19 -30 -22 -27 -3 3 4
22 16 42 17 28 19 39 10 50 -7 8 -14 12 -17 9 -3 -3 -12 4 -20 16 -8 11 -20
18 -29 15 -9 -4 -11 -2 -7 6 5 8 1 9 -12 4 -10 -4 -15 -4 -11 0 4 4 -28 25
-70 47 -70 35 -86 39 -158 39 -81 2 -125 -6 -125 -22 0 -4 11 -11 25 -14 28
-7 45 -54 43 -124 0 -23 5 -49 12 -57 17 -20 -6 -48 -32 -41 -16 4 -17 2 -7
-10 14 -18 6 -29 -16 -20 -11 4 -14 13 -10 25 3 11 0 23 -6 27 -7 4 -9 3 -6
-3 20 -31 -47 -88 -76 -65 -21 17 -54 -5 -102 -72 -26 -35 -60 -70 -74 -76
-35 -14 -80 -95 -63 -112 7 -7 12 -19 12 -28 0 -9 16 -32 36 -51 40 -38 72
-96 67 -120 -2 -9 -15 -21 -28 -27 -14 -7 -25 -17 -25 -24 0 -7 -16 9 -35 37
-20 27 -33 55 -30 63 2 7 1 11 -4 8 -11 -7 -26 11 -51 60 -11 22 -19 32 -20
24 0 -8 9 -32 20 -53 11 -20 20 -43 20 -50 0 -7 8 -22 18 -33 30 -33 49 -68
44 -82 -3 -10 -7 -10 -20 0 -13 11 -15 10 -10 -4 7 -18 -17 -34 -27 -18 -3 5
-12 7 -20 3 -19 -7 -90 21 -117 47 -12 11 -27 20 -34 20 -7 0 -26 14 -43 31
-17 17 -31 26 -31 20 0 -6 -3 -10 -7 -10 -5 1 -25 1 -47 0 -32 -1 -36 -3 -27
-15 9 -11 9 -16 -1 -22 -9 -6 -5 -10 12 -14 14 -4 24 -12 23 -18 -2 -7 4 -12
12 -12 8 0 15 -4 15 -10 0 -5 -7 -10 -15 -10 -19 0 -58 -21 -68 -37 -4 -7 -14
-13 -22 -13 -46 0 -126 -46 -195 -113 -41 -40 -74 -77 -72 -83 1 -6 -10 -21
-25 -35 -14 -13 -23 -18 -18 -10 4 7 4 12 -1 10 -5 -2 -40 -19 -79 -38 l-70
-34 50 -23 c47 -21 48 -22 15 -17 -75 11 -96 22 -97 51 -1 23 -1 24 7 7 9 -20
9 -20 15 0 4 15 21 24 58 33 56 13 89 35 47 31 -83 -7 -115 6 -101 43 12 33 2
44 -16 18 -8 -11 -19 -18 -24 -15 -5 4 -9 0 -9 -8 0 -8 -9 -26 -21 -41 l-20
-26 21 0 c21 0 22 -3 16 -82 -3 -46 -7 -93 -7 -105 -1 -13 -5 -23 -10 -23 -5
0 -9 -10 -9 -22 1 -22 1 -22 21 5 28 36 36 34 44 -12 6 -38 7 -39 36 -28 17 7
25 15 20 20 -6 6 -4 15 4 24 11 10 12 20 5 39 -8 21 -6 26 16 34 51 20 55 14
35 -37 -37 -93 -63 -133 -87 -133 -13 0 -26 4 -29 10 -14 23 -40 -12 -43 -58
-1 -26 -8 -51 -15 -57 -7 -5 -11 -19 -9 -30 l3 -20 -16 20 c-12 14 -15 34 -12
69 3 38 2 45 -6 30 -6 -11 -12 -46 -12 -80 -1 -50 -7 -68 -33 -107 -17 -26
-27 -47 -21 -47 6 0 6 -7 -1 -20 -6 -11 -8 -20 -5 -20 3 0 1 -8 -4 -18 -5 -10
-12 -58 -15 -107 l-6 -90 20 50 c11 27 28 57 39 65 10 8 21 22 24 30 3 8 6
-16 6 -54 1 -78 -22 -165 -53 -198 l-21 -22 -6 29 c-6 25 -7 23 -8 -17 0 -25
-10 -68 -22 -95 -11 -26 -23 -59 -25 -72 -3 -14 -8 -29 -11 -33 -3 -5 -7 -31
-8 -58 -3 -41 -1 -49 17 -53 11 -3 17 -10 13 -16 -3 -6 -1 -19 4 -28 9 -16 10
-16 11 4 0 48 52 183 106 277 38 67 66 132 86 200 16 58 57 159 95 236 67 135
104 183 198 258 22 18 35 32 30 32 -6 0 -25 -13 -43 -30 -18 -16 -39 -30 -45
-30 -7 0 -21 -11 -31 -25 -10 -14 -23 -25 -29 -25 -6 0 -3 8 6 18 10 10 17 23
17 29 0 5 27 25 61 44 33 19 84 49 112 68 99 65 169 101 197 101 42 0 173 -31
190 -45 8 -7 20 -11 25 -9 27 10 129 -208 141 -299 10 -80 31 -173 43 -193 7
-13 10 -14 11 -5 0 8 3 11 7 8 3 -4 11 1 18 9 11 15 14 15 38 0 l26 -17 -21
-35 c-19 -32 -20 -40 -8 -114 7 -44 18 -87 25 -97 14 -19 14 -22 -14 123 -8
39 6 103 16 76 4 -10 8 -8 18 5 16 21 43 10 60 -24 6 -11 15 -18 21 -16 7 2
21 -8 33 -23 34 -43 24 -15 -11 32 -18 24 -39 44 -45 44 -7 0 -13 4 -13 10 0
12 29 2 53 -18 9 -8 17 -11 17 -7 0 4 9 0 20 -10 11 -10 19 -23 18 -29 -5 -25
13 -65 32 -71 14 -4 19 -13 16 -23 -3 -9 -2 -33 3 -52 7 -34 7 -35 20 -12 12
22 15 18 62 -75 27 -54 49 -104 49 -110 0 -7 7 -13 15 -13 8 0 17 -12 21 -28
16 -71 25 -103 39 -129 8 -15 15 -36 15 -45 0 -10 6 -18 14 -18 8 0 17 -7 20
-16 4 -9 9 -15 11 -12 3 3 -2 19 -11 37 -11 22 -13 35 -5 44 6 8 7 26 1 52
-12 50 -12 77 0 47 5 -12 14 -22 20 -22 14 0 52 -90 46 -107 -3 -7 -2 -13 2
-13 4 0 16 -14 26 -31 16 -27 20 -29 33 -17 10 10 11 22 5 39 -10 30 -4 62 10
52 8 -4 9 0 5 13 -6 15 -3 14 13 -5 22 -25 26 -21 10 10 -7 11 -7 19 -1 19 5
0 14 -12 19 -27 6 -16 11 -22 11 -15 1 7 5 10 11 7 6 -3 7 1 4 9 -3 9 -10 16
-15 16 -5 0 -9 5 -9 11 0 5 5 7 10 4 21 -13 9 19 -15 41 -14 13 -25 26 -25 30
0 4 9 -1 19 -10 12 -11 25 -15 33 -10 7 4 10 4 6 0 -6 -7 44 -80 86 -126 7 -8
19 -26 26 -40 7 -14 24 -38 39 -54 14 -16 20 -26 12 -21 -7 4 -12 4 -9 -1 23
-50 33 -64 45 -60 7 3 13 -1 13 -8 0 -7 8 -20 18 -27 15 -13 16 -12 3 4 -8 9
-11 20 -8 24 7 6 54 -40 125 -122 35 -41 41 -45 32 -22 -5 16 -10 30 -10 33 0
10 19 3 44 -17 20 -16 24 -24 15 -30 -17 -10 8 -42 27 -35 8 3 20 -1 28 -9 8
-8 19 -15 25 -15 6 0 12 -10 12 -22 1 -18 2 -19 6 -5 6 25 24 17 51 -24 13
-19 26 -34 30 -35 4 0 15 -4 24 -8 38 -17 38 2 -1 59 -23 33 -41 69 -41 80 1
32 65 -47 79 -98 l12 -42 146 3 c135 3 144 4 124 18 -25 18 -101 111 -101 125
0 4 33 -25 73 -66 l73 -75 97 0 c110 0 110 0 50 78 -41 55 -43 78 -2 35 34
-37 44 -42 29 -14 -14 28 -60 62 -73 54 -5 -3 -7 -2 -4 4 3 5 -41 58 -98 117
-58 60 -103 112 -100 115 2 4 -10 25 -27 45 -25 31 -28 40 -17 47 8 5 18 9 22
9 15 0 93 -92 139 -165 28 -42 95 -120 82 -95 -4 8 -18 29 -31 46 -13 17 -23
40 -23 50 0 11 -7 30 -16 42 -16 23 -6 30 14 10 7 -7 12 -8 12 -4 0 5 6 3 14
-4 8 -6 13 -17 10 -24 -3 -7 3 -19 13 -27 16 -13 17 -12 4 4 -8 9 -11 20 -8
24 4 3 17 -7 29 -23 12 -16 36 -42 52 -59 16 -16 29 -32 28 -35 -1 -3 3 -5 10
-5 6 0 13 -6 16 -14 3 -9 0 -11 -9 -6 -8 5 -10 4 -6 0 10 -12 37 -15 37 -5 0
5 -4 11 -9 15 -6 3 -24 30 -41 60 -22 38 -29 62 -25 76 5 15 4 19 -4 14 -7 -4
-18 -1 -26 5 -18 15 -20 34 -4 24 7 -4 3 6 -8 22 -55 81 -94 157 -103 203 -13
69 -65 180 -102 218 -18 18 -29 35 -27 38 7 7 69 -55 69 -69 0 -6 9 -24 21
-41 19 -28 20 -28 14 -5 -6 22 -2 20 30 -15 19 -22 54 -64 77 -92 22 -29 42
-53 45 -53 5 0 -52 81 -99 140 -65 82 -100 133 -103 151 -2 10 -15 31 -29 46
-14 15 -26 32 -26 38 1 10 31 -21 104 -105 21 -25 35 -38 31 -30 -16 27 -115
148 -134 161 -10 8 -22 28 -25 44 -4 19 -3 25 2 16 8 -11 11 -11 16 0 5 11 7
11 12 1 3 -7 16 -25 28 -40 12 -15 27 -39 35 -53 7 -15 43 -57 80 -95 36 -38
63 -65 59 -60 -15 18 -8 27 12 16 11 -6 20 -7 20 -1 0 5 -11 12 -25 15 -15 4
-30 18 -36 34 -6 15 -20 37 -31 49 -22 23 -12 33 10 11 29 -29 8 8 -31 55 -39
49 -72 93 -92 126 -6 11 -4 13 8 8 23 -9 21 10 -2 22 -10 6 -21 20 -24 31 -4
17 -3 19 9 9 8 -6 15 -9 15 -5 5 25 2 34 -18 53 -13 12 -23 28 -23 34 0 8 5 6
13 -5 7 -9 22 -22 33 -29 68 -39 104 -71 139 -121 21 -31 41 -54 43 -51 3 3 0
11 -6 17 -19 19 -14 32 6 17 15 -13 16 -12 3 4 -8 9 -16 15 -18 13 -3 -2 -32
26 -65 62 -34 37 -67 66 -75 64 -7 -2 -16 4 -19 13 -3 8 -12 15 -19 15 -16 0
-29 35 -20 51 5 7 13 5 26 -7 10 -9 16 -21 12 -27 -4 -6 -1 -7 6 -2 8 5 47
-28 112 -96 54 -57 99 -108 99 -112 0 -9 93 -127 97 -123 2 2 -14 30 -36 62
-21 32 -42 75 -46 94 -4 19 -16 47 -26 62 -25 34 -26 56 -2 37 9 -8 5 2 -10
22 -28 37 -35 55 -17 44 6 -4 -1 10 -15 31 -14 20 -25 41 -25 46 0 16 -51 80
-113 143 -66 67 -107 149 -79 160 13 5 12 8 -3 25 -32 35 -8 21 32 -18 53 -53
115 -136 152 -203 20 -36 129 -154 166 -179 11 -8 -3 11 -31 41 -91 95 -108
117 -137 171 -23 44 -25 49 -7 28 12 -14 31 -25 43 -25 14 0 21 -7 22 -22 1
-19 -1 -21 -14 -11 -9 7 -6 1 7 -13 14 -15 25 -20 30 -14 22 32 77 -2 226
-140 98 -91 149 -127 87 -62 -18 19 -31 40 -27 45 3 5 -13 27 -37 48 -67 63
-165 176 -184 214 -10 19 -25 43 -34 52 -9 10 -22 31 -30 46 -7 15 -33 56 -57
90 -24 35 -42 66 -39 68 2 2 31 -28 64 -68 79 -95 153 -174 153 -162 0 6 -16
25 -35 44 -19 19 -35 38 -35 44 0 6 22 -12 50 -39 27 -27 49 -55 47 -61 -1 -7
15 -28 36 -47 25 -24 37 -30 37 -19 0 10 13 2 35 -21 20 -21 41 -37 46 -37 17
0 -69 97 -107 120 -18 12 -34 29 -34 38 0 12 8 8 32 -14 56 -51 59 -54 63 -54
13 0 -10 29 -30 40 -14 7 -51 47 -82 89 -32 42 -76 93 -98 115 l-40 38 35 -17
c19 -10 61 -42 93 -70 32 -29 86 -75 120 -101 l62 -49 -29 38 c-16 20 -32 37
-36 37 -4 0 -26 20 -50 44 -24 25 -48 42 -52 40 -4 -3 -13 6 -20 20 -6 14 -17
26 -23 26 -15 0 -50 38 -43 46 8 7 78 -29 105 -55 14 -13 24 -17 29 -10 8 13
-19 33 -104 79 -63 33 -106 82 -99 112 4 19 -126 118 -210 159 -46 23 -85 45
-89 50 -3 5 -20 9 -39 9 -19 0 -37 5 -40 10 -4 7 2 9 19 4 32 -8 34 8 4 21
-13 6 -24 17 -26 26 -2 13 9 18 58 23 87 10 74 22 -21 17 -86 -3 -129 9 -129
39 0 10 -10 16 -26 18 -27 2 -104 56 -104 73 0 5 9 9 19 9 27 0 32 12 15 34
-9 14 -17 16 -26 9 -15 -12 -73 -24 -81 -17 -3 3 5 15 18 28 12 12 25 29 29
37 4 10 7 11 12 2 3 -8 15 -11 28 -7 15 3 28 -2 40 -15 11 -12 24 -21 29 -21
6 0 19 -7 29 -17 10 -9 21 -13 25 -9 5 4 0 12 -10 18 -15 8 -16 12 -5 26 11
14 10 15 -5 9 -20 -8 -57 8 -57 23 0 6 10 10 21 10 12 0 27 8 34 17 11 15 15
15 29 4 10 -8 14 -21 11 -33 -6 -16 -4 -17 17 -7 13 5 28 20 33 32 11 23 82
76 104 77 8 0 11 -6 7 -15 -4 -12 0 -14 22 -9 l27 7 -29 -32 c-17 -17 -25 -31
-18 -31 6 0 13 4 17 9 3 6 31 24 62 42 47 27 67 32 125 33 74 1 80 10 28 39
-27 15 -31 16 -21 3 13 -15 9 -16 -32 -12 -26 3 -51 8 -57 11 -6 4 -23 4 -36
1 -21 -6 -24 -9 -14 -21 10 -12 9 -15 -8 -15 -14 0 -20 5 -16 13 3 10 -4 14
-26 14 -16 0 -30 -4 -30 -9 0 -4 -13 -8 -29 -8 -17 0 -32 -4 -35 -9 -3 -4 -27
-14 -53 -21 -27 -7 -53 -17 -60 -22 -19 -15 -143 -47 -159 -41 -8 3 -21 0 -29
-7 -8 -6 -37 -13 -64 -14 -42 -1 -48 1 -41 15 18 33 40 44 61 31 35 -22 55 9
22 34 -13 9 -22 9 -31 2 -7 -6 -15 -8 -19 -4 -4 3 2 13 13 20 11 9 21 10 25 5
6 -10 89 29 89 42 0 4 15 16 34 27 31 19 38 19 75 6 23 -8 60 -18 83 -23 39
-9 41 -8 24 5 -11 8 -25 14 -32 14 -7 0 -25 5 -41 12 -15 6 -32 12 -36 12 -4
1 -11 6 -15 11 -9 13 -82 19 -82 7 0 -5 -10 -7 -23 -5 -17 3 -26 -2 -35 -21
-11 -25 -10 -25 18 -19 39 7 38 -8 -1 -31 -26 -15 -33 -16 -40 -5 -6 11 -11
11 -21 1 -6 -6 -25 -12 -40 -12 -15 0 -28 -4 -28 -10 0 -5 -12 -10 -27 -9 -16
0 -22 3 -15 6 15 6 6 23 -14 23 -10 0 -13 -7 -9 -23 4 -15 1 -28 -9 -36 -10
-8 -16 -9 -16 -3 0 6 5 14 10 17 6 4 7 11 4 17 -4 6 -10 5 -15 -3 -8 -12 -11
-11 -19 1 -15 22 -12 30 9 30 22 0 40 20 19 20 -8 1 -6 6 6 15 10 8 28 13 40
11 12 -2 26 4 33 13 7 9 13 11 13 5 0 -6 10 -10 23 -9 12 1 34 3 50 4 30 1 38
21 8 21 -11 0 -27 3 -36 6 -14 6 -14 8 2 27 18 20 18 20 -16 2 -19 -9 -51 -18
-73 -19 -21 0 -38 -4 -38 -8 0 -12 -28 -9 -36 4 -4 6 -3 8 3 5 11 -7 88 42 79
50 -3 3 -12 0 -20 -6 -8 -7 -22 -11 -31 -9 -14 3 -13 6 5 26 11 12 20 28 19
35 -1 6 3 25 10 41 6 16 9 37 6 45 -4 9 -8 38 -10 65 -6 82 -16 65 -14 -25z
m369 -893 c14 -2 45 -7 68 -10 24 -4 50 -13 58 -21 8 -8 33 -19 54 -25 48 -13
54 -25 8 -16 -30 6 -31 5 -13 -8 11 -9 29 -16 39 -16 22 0 223 -96 231 -111 3
-4 -10 -2 -30 6 -19 9 -35 12 -35 8 0 -4 21 -29 47 -55 26 -26 42 -48 37 -48
-6 0 -19 9 -29 20 -9 10 -22 18 -29 17 -6 -1 -10 4 -8 11 1 7 -13 19 -32 27
-19 8 -42 26 -52 39 -11 14 -53 43 -94 65 -41 22 -74 44 -73 50 2 6 0 10 -5 9
-4 -1 -20 5 -37 14 -28 14 -70 23 -155 34 -19 2 -48 9 -65 14 -24 8 -19 9 30
5 33 -2 71 -6 85 -9z"/>
<path d="M654 475 c-3 -8 -3 -18 0 -24 4 -5 2 -12 -4 -16 -6 -4 -8 -10 -5 -15
3 -5 -1 -53 -9 -107 -8 -54 -17 -142 -21 -195 l-6 -98 52 0 52 0 -7 39 c-3 21
-8 98 -11 172 -8 188 -15 259 -26 259 -5 0 -12 -7 -15 -15z"/>
</g>
</svg>
