<svg id="Capa_1" data-name="Capa 1" xmlns="http://www.w3.org/2000/svg" viewBox="0 0 83.87 83.29"><defs><style>.cls-1{fill:#fff;}</style></defs><title>dummiPic</title><path class="cls-1" d="M48.77,8.25,44.58,2.08c1.06-.21,2.27-.52,3.51-.7,7.49-1.12,14.88-1.09,22,2A21.54,21.54,0,0,1,83.53,20.77c1.15,7.33-.14,14.43-2.35,21.41a6.79,6.79,0,0,1-.43.79c.44-2.36.86-4.34,1.19-6.34a37.71,37.71,0,0,0-.19-15C79.52,12.1,71.09,4.6,60.08,6.38c-4.89.8-8.65,3.16-10,8.28a1.84,1.84,0,0,1-.15.36s-.07,0-.12.07c-.79-5-3.22-9-8.15-10.4C33.48,2.39,26,5,22.76,13.92c-1.51,4.21-2.33,8.66-.07,12.74,5.93,10.7,22.44-2.51,24.64-4.71.88-.88-4.4,8.81-6.6,11C31.35,42.33,17.5,51.14,5.39,52.9a13.66,13.66,0,0,1-4-.16C.9,52.66.15,52.06.1,51.63s.52-1.15,1-1.42a33.66,33.66,0,0,0,10.5-8.69c3-3.92,5.31-8.2,5.53-13.28.09-1.85-.11-3.71-.12-5.56,0-5.11.93-10,3.95-14.22C26,1.32,36.75-1.06,43.8,3.54,45.57,4.69,46.93,6.48,48.77,8.25Z" transform="translate(-0.1 -0.71)"/><path class="cls-1" d="M28.19,84a13.37,13.37,0,0,1-4.87-15.82c2-5.37,5.89-9.56,10.36-13.36,4-3.4,8.69-5.93,13.19-8.7s8.92-5.43,12.44-9.19a15.78,15.78,0,0,0,2.37-3.29,5.77,5.77,0,0,0-.44-6.26c-1.29-2-4.31-2.47-6.75-1A6.44,6.44,0,0,0,51.78,29c-1.61,3.75-6.62,8-9.36,9.06a70.82,70.82,0,0,0,4.85-5.31,23.05,23.05,0,0,0,2.84-5.57,9.25,9.25,0,0,1,9.71-6.05,8.85,8.85,0,0,1,8.06,7.61,11.39,11.39,0,0,1-3,8.91c-3.42,4-7.92,6.82-12.77,9.22-7.59,3.75-14.91,7.89-21,13.54A23.21,23.21,0,0,0,25.3,67.7c-2.48,5.48-1.78,10.64,2.15,15.41C27.69,83.41,27.94,83.7,28.19,84Z" transform="translate(-0.1 -0.71)"/><circle class="cls-1" cx="29.62" cy="11.33" r="2.2"/></svg>