<svg xmlns="http://www.w3.org/2000/svg" viewBox="0 0 614.99 602.48"><title>face</title><g id="Capa_9" data-name="Capa 9"><rect x="0.5" y="0.5" width="613.99" height="601.48" style="fill:none;stroke:#211915;stroke-miterlimit:10"/></g><g id="tatoo"><path d="M122.77,309.62c0-31.57,18.54-51.78,46.83-56.71.24,0,.5,0,.75,0,8.05-.68,10.55-2.81,12-10,.12-.62.91-1.12,2.27-2.68-1.14,7.43.83,13,5.25,18.32-4.43-2.17-7.55,0-10.75,2-4.91,3.05-6.6,1.77-4.2-4.2a16.61,16.61,0,0,0-6.16,2.95c-3.37,2.21-6.45,1.35-10.55.45-4.56-1-10.75,3.54-15.26,7.45-.93.8-1.69,1.81-3.18,3.43,10.65,2.6,21.58-2.95,31.81,2.86C147.9,275.89,125.7,279.46,122.77,309.62Z" transform="translate(0.5 0.5)"/><path d="M159.53,335.7c2.47,2,4.7,4.47,7.44,6,13.24,7.31,20.19,6.1,32.06-3.57,5.87-4.78,5.41-6.12-1.58-9.18,3.11-5.4,11-3.52,13.75-10.78,1.42,11.52-7.16,23.5-18.16,28.6-12,5.55-27-.89-32.68-7.83a2.94,2.94,0,0,1-.66-3.4Z" transform="translate(0.5 0.5)"/><path d="M173.77,321l5.16,4.11c3.06-1.25.48-4.38,2.44-5.8,2.64-.71,3.16,3,6.22,2.78-.83-2.7-1.5-5.44-.64-8.35,2.36.19,4.34,4.58,6.69,1.51,1.34-1.74,1.88-4.23,1.08-7.43-1.52-6-6-9.36-9.8-13.91,8.69,2.31,12.29,8.14,12.21,19.06,0,6.87-4.47,14.42-9.48,15.07C181.72,328.84,175.9,328.4,173.77,321Z" transform="translate(0.5 0.5)"/><path d="M153.48,311.66c.7,1.76-1.46,6.76,3.94,3,4.11-2.87,10.2.48,10.93,5.54.08.55-.42,1.63-.83,1.73-.88.22-2.45.31-2.74-.16-1.48-2.47-3.28-4.05-5.58-1.41-2.07,2.38-3.74,5.34-2.35,8.73.9,2.21,2.68,4.05,2.68,6.63l.17-.16c-7-5.89-9.7-16.32-6-23.72Z" transform="translate(0.5 0.5)"/><path d="M213.38,316.42l-9.15-.43c3.52-6.56,3.52-6.56-2.13-18.75C214.05,301.39,214.26,301.74,213.38,316.42Z" transform="translate(0.5 0.5)"/><path d="M153.65,311.82c.21-9.64,2.44-12,10.1-10.75,7.08,1.16,7.91,4,3.05,10.45-4.89-9.29-6.42-10.26-13.33.14Z" transform="translate(0.5 0.5)"/><path d="M211,280.53c5.11,3.66,2.56-5.28,7.41-3.91,4,1.14,5.16,6.59,11.6,4.39C222.21,286.57,219.61,286.44,211,280.53Z" transform="translate(0.5 0.5)"/><path d="M213.16,247.22c-7-3.48-12.38-9.19-20.06-10.2C203.89,235.72,209.74,238.63,213.16,247.22Z" transform="translate(0.5 0.5)"/><path d="M120.14,295.4c.92-2.88,2-5.73,2.73-8.67,2.26-9.17,10-11,17.46-13.09,1.45-.42,3.09-.95,3.85,1.13.63,1.73.19,3.28-1.73,3.46C131.2,279.26,126.23,287.81,120.14,295.4Z" transform="translate(0.5 0.5)"/><path d="M189.75,319.61c-1.55,4.68-3.73,8.55-9.15,9-1.35.13-2.68.2-3.18-1.28a4,4,0,0,1-.08-3c1-1.61,2-.15,3.06.4,1.7.91,4,1.61,3.48-1.39C182.52,316,188.1,321.35,189.75,319.61Z" transform="translate(0.5 0.5)"/><path d="M161.45,319.66c-7.77-.91-8.94,4-9.86,9.69-3-5-3.58-8.82,1.71-12.54C157.3,314,159.21,315.38,161.45,319.66Z" transform="translate(0.5 0.5)"/></g><g id="CARA"><path d="M237,50.16c-6.06-2.19-9.9-7.57-15-11.17-1-.68-2.22-2.4-.74-3,4.84-2,9.45-5.61,14.85-5.24,6.8.47,8.25,3.37,5.67,9.78C240.42,43.76,238.63,46.81,237,50.16Z" transform="translate(0.5 0.5)"/><path d="M185.54,17.63c.08-1.82,1-3.93,1.69-3.85,1.29.16,2,8.59.77,8.93C187.29,22.91,185.42,20.41,185.54,17.63Z" transform="translate(0.5 0.5)"/><path d="M250.43,32l.51.2a19.45,19.45,0,0,0-4.52-8c-.13-.17-.25-.34-.4-.52-6.31-7.68-9.54,1.07-9.54,1.07a3.31,3.31,0,0,1,.75-.29c-.65,2.07,1.27,2.89,3,3.59s3.56,1.39,5.65,2.19a60,60,0,0,1,4.89,7.43A12.79,12.79,0,0,0,250.43,32Z" transform="translate(0.5 0.5)"/><path d="M214.63,34.07,238,51l-2.74-5.69s6.77-5.54,3.54-12.78c0,0-2.82-6-11.64,0l1.48,3.23-3.54-3.07-2.61,4.61Z" transform="translate(0.5 0.5)"/><path d="M225.25,37.71s6.77-3.84,6.46,4.62V44Z" transform="translate(0.5 0.5)" style="fill:#fefefe"/><polygon points="77.83 202.15 73.17 229.49 73.17 206.82 77.83 202.15"/><path d="M52,209l4.67,20V209H52Z" transform="translate(0.5 0.5)"/><path d="M42.71,219.48a4.49,4.49,0,0,0-.83-.45l1.45-3.71L28.67,219l3.56,3.82-.51.25a3.42,3.42,0,0,0,2.58,2l3.7,4,.82-2.1c1.3-.14,2.21-1.5,3.1-2.93S44.75,220.93,42.71,219.48Z" transform="translate(0.5 0.5)"/></g></svg>