<svg xmlns="http://www.w3.org/2000/svg" viewBox="0 0 614.99 602.48"><title>hair</title><g id="Capa_9" data-name="Capa 9"><rect x="0.5" y="0.5" width="613.99" height="601.48" style="fill:none;stroke:#211915;stroke-miterlimit:10"/></g><g id="pelo"><path d="M554.57,451.68c.82,13.3,11.68,22.55,13.19,35.7-4.43-10.66-14.21-17.41-19.91-27.67,3.69-.89,3.39,3.82,6.09,3.46q-.65-5.52-1.28-11Z" transform="translate(0.5 0.5)"/><path d="M448,505c-2.69-3.93-7.83-7-5.93-13,.47-1.52-1.05-2.91-2.33-3.73-8-5.09-11.19-13.22-14.48-21.69,3.25-.53,3,2,3.62,3.27,3,6.33,6,12.4,12.49,16.3,4.22,2.53,8.25,6,5.19,12.43C445.81,500.1,447.45,502.8,448,505Z" transform="translate(0.5 0.5)"/><path d="M369.21,435.94c-3-7.54-6.12-15.06-9.15-22.61-.83-2.05-.74-4.18,1.64-4.85,3.18-.9,3.11,1.73,3.11,3.72C364.84,420.47,368.75,427.8,369.21,435.94Z" transform="translate(0.5 0.5)"/><path d="M553.67,269.87c6.13,3.22,8.64,9.61,14.19,15.05C559.32,282.28,555.12,277.35,553.67,269.87Z" transform="translate(0.5 0.5)"/><path d="M289.86,374.86c.1-10.65-7.66-18.95-5.77-29.25C285.07,355.42,293.53,363.57,289.86,374.86Z" transform="translate(0.5 0.5)"/><path d="M357.77,436.77c4.88,3.88,9.53,8.09,11.68,14.38C364.36,447.46,359.7,443.39,357.77,436.77Z" transform="translate(0.5 0.5)"/><path d="M605.89,562.56c-13.15-18.84-33.13-32-42.84-53.66L592.26,534c-7.62-10.22-15.78-20-25.26-28.24-13-11.35-22-25.43-30.86-40.1,4.57-.79,4.44,4.94,8.19,4.88.32-3.49-2.56-4.57-4.28-6.07a320.8,320.8,0,0,1-26.44-26.36c-5.79-6.35-9.11-14-14.08-20.69-1.43-1.93-4.88-3.29-2.6-6.19,2.57-3.27,5.54-.5,7.22,1.21a101.45,101.45,0,0,1,18.2,24.45c1.26,2.42,1.89,5.19,6,6.64-3.74-6.27-2.49-13-5.89-17.88,13.06-.43,15,11.47,21.06,19a12.87,12.87,0,0,0,7.25,4.83c0-3.4-2.44-5.09-2.93-7.46-.72-3.44-8.23-5.76-1.85-10.45.11-.08-.26-1.17-.41-1.17-8-.11-5.62-7.51-7.8-11.48-6.08-11.06-14.35-21.17-16-34.32-.06,1,.28,2.33-.23,2.88-1.9,2-2.59-.37-3.21-1.34-4.25-6.66-8.19-13.53-12.56-20.11-2.47-3.72-4.08-8.19-8.37-10.52-2.16-1.18-1.85-3.19-.51-4.47,1.52-1.47,2.77.14,3.68,1.34,4.6,6.1,10.44,11.22,14.12,18,.88,1.62,1.95,3,3.93,3.26-.93-2.32-3.89-4.8.4-6.78,3.4-1.58,3.5,1.87,4.68,3.36,1.44,1.79,2.49,3.94,4.64,5s2.62,4.07,6.81,4.76c-13-13.62-21.41-28.71-31.26-44.51,2.1,1.52,3.05,2.35,4.12,2.94.84.45,1.43,2.09,2.9,1-10.38-15.23-10.38-15.23-6.82-19,8.09,14.32,16.92,27.93,30.23,37.83,2.91-4.24-2.27-5.59-3.48-8.05-3.39-6.83-2.6-15.47-10.8-20.34a11.61,11.61,0,0,1-5.28-7.86c-.7-3.49-6.94-5.6-3-11.24,1.06-1.51-10.35-5.05-.84-9.7.13-.07-2.13-5.05-3.81-9,6.26,3.18,9.89,8.6,16.58,10.28-3.18-7.39-10.78-8.33-14.85-13.27-1.58-1.92-5.4-3.31-2.66-6.66,3.23-4,4.93.37,6.47,2,8.33,8.58,16.06,17.77,24.71,26,6.76,6.45,10.17,15.57,17.85,21.22-8.24-14-12-29.56-17.55-44.47-4.55-12.09-9.45-24.88-21.41-32.48-7.71-4.9-10-13.06-12.95-20.88-.68-1.79.17-2.83,1.32-2.55,3.08.73,7.29,0,9,2.73,3.51,5.57,8.08,10.3,11.81,15.7,5.58,8.08,9.45,17.58,17.51,23.9-4.3-7.62-9.91-14.45-12.84-22.77,6.43,6.29,12,14,20.92,15.8,3.37.69,6,1.26,8.83,3.24,12.27,8.68,21.41,20.92,34.23,29.15-20.7-27.36-44.7-52.43-59.85-85.9l20.57,23.81c1.36-3.41-2.72-4-.7-6.81,4.69,6.45,11.53,10.35,14.48,18.65,3.42,9.64,15.62,10,22.44,16.73-16.41-16.58-23.89-39.8-41.58-55.43,14.62,8.22,25.82,21.11,40.11,29.89C579,228,566.69,218,554.68,207.6l1.27-1.87,25.74,13.44c-6.13-5.43-12.59-10.58-19.83-14.19-8.65-4.31-17-8.12-17.81-19.44-.07-1-1.48-2-2.38-2.89-15.17-14.92-33.67-24.19-53.34-31.87.43-2.07,3.41,1.58,3.86-1.31-1.84-2.89-6.45-3.88-6.88-8.64,5.92-.61,11.68-.93,18-3.54-5.46,0-9.77.35-14-.1s-9.25,2.17-12.38-1.42c-4.77-5.45-10.78-8.55-16.9-11.88-3.39-1.83-6.9-4-9-8.13a23.52,23.52,0,0,1,2.62-.66c2.35-.23,5.05-.47,5.68-3,.28-1.13-1.34-3-2.43-4.16-2.39-2.62-3.32,1.25-4.8,1.27-3.91.06-7.93,3.37-12.1.14,2.91-2.44,6.46-3.56,7.58-7.27.36-1.22.78-2.44,2.6-1.41,4,2.27,9.24.77,12.94,5,2.86,3.28,6.12.94,8.69-2.26-3.63-.49-8.71,1-9.42-3.21-.73-4.38,4.9-.52,6.36-2.93,1.71-2.83,3.92-3,6.45-1.59,3.24,1.81-1.46,4.39.24,6.42.48,0,.77.08,1,0A18.48,18.48,0,0,0,485,94.37c4.86-7.69,12.37-11.18,21.1-5.07-2.8,1.4-5.51,3.1-4.87,7.92,3.6-1.9,5.46-5.15,8.89-6.33s6.29-3.39,9.6-4.68c10.12-3.93,19.53-2.67,24,4.78-1.35-5.66,1.69-11.63-5-11.44a77.52,77.52,0,0,1-20.13-2.15c-2.1-.48-7.28-1.56-5.41,4.39.41,1.31-.66,1.95-1.65,1.93S509,83,509,82.72c.63-6.14-4.35-3.76-6.13-3.24-11.22,3.31-22.17,7.58-33.43,10.75-9.16,2.58-18.37,7.87-28.2,2.11,1.89-1.32,2.49-3.21,1.38-5.1-2.29-3.88-2.13-5.35,2.38-6.53,3.93-1,6.88-2.55,8-6.59,5.73-3.71,11.22-5.78,18.23-1.78,4.1,2.33,9.25,4.44,14.74,2.08-9.54-1.06-16.69-7.83-25.59-10-6.63-1.65-13.28,2.05-20.2.72-5.13-1-6.63-2.29-1.34-6.9-7.88.9-13.54,8.31-21.42,3.38,1.6-2.58,5.2-3,5.82-6.7-2.22.52-3.87,3.12-6.08,1.81A2.88,2.88,0,0,1,417,54c4-3.17,2.83-8.11,4.29-12.12,1.7-4.67.24-19.22-2.16-23.75,0,3.22-.45,6.86.07,10.35,2.52,16.86-7.27,28-18.07,38.36-2.72,2.59-7.41,3-12.13,1.7-6.86-1.91-11.77-5.87-16.33-10.89-2.48-2.72-4.36-3.16-5.39,1.62-1,4.5-.92,9.08-1.39,14.88-3.31-4.65-3.24-8.31-1.62-12,2.3-5.31-1-9-3.06-13.39-1.76-3.73-4.78,2.94-4.43-.63.39-4-2.07-4-4.06-5.73-9.28-8.23-21.17-11.55-31.6-17.57s-26.46-5.61-34.12.6c5.75,1.61,7.82,5.31,8.88,11,1.16,6.29-.71,13.12,2.49,18.81,3.76,6.68-5.93,5.46-5.71,10.63.07,1.59-3.39-2.51-5.71-3-4.37,6.38-4.64,6.54-12.75,4.51-2.95-.74-5.17.8-6.88,2.42-3,2.8-5.28,6.22-8,9.32-3.46,4-6.09,8.53-10.65,11.85-13.56,9.86-16,17.84-4,30.16,3.42,3.52,6.7,7.11,8.85,11.52,3.13,6.41-1.45,9.6-5.89,12.21a5.36,5.36,0,0,1-2.51.82c-63.26-84.1-26.6-129.13-26.6-129.13-30.35,29.17-2.84,89.22,13.64,118.67.4.77.83,1.52,1.29,2.27,2.15,3.77,4.07,7,5.58,9.39-.41.95-1.58,1.85-3.55,3.17a1,1,0,0,0-.35,1.27c2.56,5.43-1.24,2.95-3.47,2.92-8.74-.11-15.75-3.92-22.92-8.72-6.85-4.6-13.13-12.79-23.45-8.23-1.15.51-4.25.83-3.22,1.32,3.76,1.8-2.92,5.28,1.43,6.12,2.3.44,2.92,3,4.47,3.81,5.18,2.74,2.8,3.16-.7,4.79-8.34,3.89-16.42,8.35-24.61,12.58,4.57-2.25,9.21-2,14.21,0-3.19,3.71-8.31,5.45-9.23,12-.62,4.4-8.64,3.27-12.78,4s-9.76,2-14.58,0c-3.47,1.93-7.09,3.43-7.05,8.64a5.17,5.17,0,0,1-4.54,4.6c-9.24.51-15.58,7.17-23.82,10.06,2.6,3.16,6.94,2.26,8.68,6.23-5.52,0-10.06-1.82-14.28-3.86,4.21-9.92,14.61-9.42,21.91-14.05-5.1-.31-10,.62-14.68-.72-7.48-2.13-1.75-8.05-3-12.89-1.33,1.59-2.11,2.51-2.87,3.45-4.14,5-13.21,8.54-5.45,17.34.14.16.07.5.09.75.48,6.12,1.12,12.12-1.09,18.22-1.82,5-2.45,10.42-3.68,16,5-.91,3.92-7.34,9-7.44.38,2,.46,4.09,1.22,5.89s-1,5.6,2.56,5.09c2.09-.3,5.44-.15,5.87-4.85.28-3.13,2-6.49,2-10,0-2.79,1.82-4.11,4.41-4.41,1.48-.17,3.36-1.06,4.36.31,1.42,1.94-.12,3.83-1,5.63-2.56,5.25-5.34,10.41-7.61,15.78-2.14,5.08-4.9,6.26-10.1,3.84-4-1.85-6.82-1-6.7,4.9a25.62,25.62,0,0,1-6.67,18.34c-2.83-4.54-.17-9.44-2.75-14.34-3.48,8.81-2,17.71-6.74,25.09-8.8,13.85-6.71,62.15-9,61.3-.28,9.09-4.94,69.84-8.11,72-1.6,28.35-2,55.24-2.55,72.84-3,24-10.75,28.32-15.65,28.48a14.42,14.42,0,0,1-2.88-3.22c-3.72-8.26-8.58-10.41-10.22-19.7-4.57-25.85-10.41-53.9-10.08-80,0-2.78.93-5.91-2.5-10.22-.15,6.1-2.27,10-3,14.05-4.87,26.6-8.85,53.41-6.5,80.52C9,507.89,19.39,520.41,30.48,528.4h0a42.37,42.37,0,0,0,5.89,4.37c.59.49.84.63.92.53,8.11,4.63,16.52,5.22,25.88,3,12-2.83,18.44-20.9,18.44-20.9-19.39,17.11-21.75,6.08-21.75,6.08-5.81-8.81,5.64-48.18,5.64-48.18l-.45.83c.58-1.68,1-2.87,1-3.11,3.74-13.47,7.28-33.47,6.18-49.56-1.64-24.11,6.54-46.94,11.61-54.72C90.73,356.25,98.77,339,102,327c6.63-24.61,12.66-44.64,30.29-63.34,1-1.06,3.87-9.36,4.71-9.75,5.68-2.65,27.72-12,31.36-13.68,7.25-3.35-9.25,0-3-4.9,16.9-13.42,30.48-13,48.45-4.53,2.56,1.2,5.76.54,7.74,3.91,5.84,10,12.32,19.51,14.3,31.21s11,24.69,11.64,36.63c.7,13.09,2.1,21.65,7.89,4.56,1.39-4.1-.13-1.32,2.14-.15,2.48,1.28,2.26,2.59.6,4.74-8.86,11.47-.4,22.19,1,33.23a10.3,10.3,0,0,0,.09-8.13c-2.15-5.22-1.86-10.94-2.36-16.52-.52-5.94,4.93-4.91,7.38-7.13,2.07-1.88,4.72.81,6.45,2.69,4,4.35,3.93,4.4,9,5.75-3.51-3.22-5.07-7.91-10.47-10,11.77,1.48,15.09,4.37,17.11,14.17.26,1.25.25,3.26,1,3.61,7.62,3.62,5.66,11.37,7.8,18.58,3.36-7.05,5-4.75,6.77,0,1.7,4.52,4.79,8.59,6.08,13.2,2.83,10,11.55,17.13,13.21,27.55,1.05,6.68,5.26,12.18,6.44,18.75.34,1.92,1,3.26,3.38,3.11,1.93-.11,2-1.14,1.8-2.5-.9-6.84,1.48-13.86-1.86-20.37,13.18,6.3,8.65,23.16,19.58,30.6,3.37-2.81,3-6.39,1.63-10.29-2.26-6.37,7.29-4.18,6.87-9.3,3-.08,1.68,3.64,6,5.18-3.58-4.79-.13-8.34-1.59-13.38,9.5,6.38,13.63,16.05,19.66,24,3.17,4.16,6.74,8.44,7,14.66.15,4.21,4.14,8.69,8.4,7.74,3.71-.82,3.62,1.36,5.08,2.66,7.51,6.64,14.36,13.88,20.07,23.42,1-4.13-2.29-6.51-.2-9.56,9.3,3.09,6.83,14.12,13.32,18.79.86-1.74-3.59-4.09,0-6.23a89,89,0,0,1,7.39,5c.85.69.95,2.29,1.39,3.47,7.29-4.93,6.95,3.79,10.28,5.88.94.59,1.69,1.5,2.76,2.18,7.36,4.68,13.51,10.31,14.44,19.86.94,9.8,4.81,18.81,8.29,28.11-1.41-7.08,1.92-13.53.89-22.16,3.26,4.22,4.56,7.2,6.3,9.84,3.92,6,2.75-3.64,5.55-2.37,7.24,11.54,13.72,23.76,26.42,31.53.53-4.07-3.5-5.36-2.6-9.19,12.54,12.06,21.1,26.9,32.45,39.3l1.46-1.2-10.48-14.67c6.52,4.29,11.45,10.08,19.6,14.05-3-6.27-9-8.42-10.9-15.25a81.46,81.46,0,0,1,11.54,10.08c5,5.23,9.08,11.69,18,11.09,4-.27,5,6.53,10.7,5.28-18.2-16.53-36.33-33.07-51.08-52.8,19.85,15.75,34.26,37.42,56,49.48-4.35-9.28-14.39-14.76-21.67-22.73s-13.88-17.14-23.14-24c-8.37-6.19-14.69-15.52-20.64-25.65,4.74.94,5.45,5,8.82,6.38-1.24-6.51-9.45-9.24-8.85-18.37,7.55,7.59,12.32,15.43,20.18,22-1.23-4.66-5.32-6.48-5.8-11.63,15.27,15.76,24.25,36.25,45.27,44.09-.49-3.17-5.45-4.64-3.68-9.36C593.79,549.35,598.44,557.54,605.89,562.56Zm-98-302.88c1.06-1,2.44-.54,3.49.25,8.93,6.82,15.74,15.42,22.93,26.16-4.81-.62-6.1-2.57-7.59-4.33-4.22-5-7.61-10.79-14.61-12.88-1.87-.56-3.2-3.18-4.59-5A3.06,3.06,0,0,1,507.86,259.68ZM139.2,199.19c-3.65,1.05-4.54-2.11-4.23-4.63.49-3.94.85-8.62,7.14-7.9,2.83.77,8.08.49,7.77,4C149.42,196,143.85,197.84,139.2,199.19Zm34.41,12.31c-4.1,1.11-8.44,1.3-12.41,3.82,2.06-3.78-1.66-8.29,2-11.43,1.39-1.19,2.42-3.93,4.86-2.51,2,1.15-.74,3.18,0,4.64,1.36.8,2.06,0,2.81-.67,2.62-2.27,6.42-1.4,7.27.45C179.51,208.72,176.1,210.83,173.61,211.5Zm85.83-7.65c1.72-5.35-5.31-8.2-3.72-13.52C263.86,195.7,263.86,195.7,259.44,203.85Zm10.11-16.4a7.49,7.49,0,0,1,1.28-3c1.91.35,4.21.51,4.55,3.19.23,1.76.31,3.55.7,5.27a52.8,52.8,0,0,0,1.69,5.13C269.16,198.37,273.5,190.13,269.55,187.45Zm15.33-77.78c-3.12-3.67-2.79-8.31-3.72-12.63A2.09,2.09,0,0,1,283,94.29c2-.27,1.81,1.36,1.83,2.53C284.92,101.1,284.88,105.39,284.88,109.67ZM288.59,122c2.82,8.52,14.65,13.93,9.38,26.05C291.63,140.11,289.74,131.21,288.59,122Zm11.16,71.56c-2.24.54-5.39,2.25-6.55-1.2s-3.74-6.81-1.26-12c3.11,4.09,3.59,9.17,9,9.8C302,190.26,301.47,193.19,299.75,193.59Zm7.55-1.49,4.56,6.68c-.16-2.21-.27-3.81-.44-6.05,5.72,4.51,6.42,10.55,8.11,17.29C312,205.63,306.36,201.22,307.3,192.1ZM534,416.75a12.79,12.79,0,0,1,2,4.87,4.11,4.11,0,0,1-1,3.39c-1.22,1-2.34-.33-3.11-1.28-5-6.21-9.93-12.47-13.73-19.72q2.93,2.63,5.86,5.24c-6.76-9.67-17.33-17-18.37-30.81C516,391,525.13,403.77,534,416.75ZM513.81,413c-8-6-10.77-15.55-16-23.49C504.73,396.26,509.41,404.54,513.81,413Zm-10.72-5.26c-7.82-3.87-11.87-9.13-11.5-19.1C496.3,395.33,501.51,399.84,503.09,407.76Zm-6.31-86.64c-5-4.15-5.52-5.44-5.39-13.46C497.85,311.41,497.85,311.41,496.78,321.12Zm-8.43-51.87c7.89-1.15,7.72,7.65,12.82,10.09C493.33,279.83,489.3,276.43,488.35,269.25Zm60.29-19.6c-6.85-5.52-14.47-8.7-16.53-17.64C536.5,238.4,547.09,238.92,548.64,249.65Zm-5-52c-5,1.73-7.4-1.56-10.62.07,3.94,4.17,7.8,8.19,11.57,12.29,1.29,1.4,2.9,3.2-1,2.81.55,2.39,4.86,2.23,3.58,6.9a109.2,109.2,0,0,1-9.26-6.07c-2.62-2.11-1.2-3.89,1.22-5.13-2.77-3.76-6-6.87-10.64-8.33-1.19-.38-2.78-.84-3.33-1.77-4.77-8.09-13.19-11.3-20.83-15.74C518.69,183.12,528.91,193.28,543.63,197.66Zm-1.6-6.22c-11.38-4-17.11-13.5-24.87-20.62C526.91,175.56,537.15,179.71,542,191.44Zm-83.91-57.77c1.69-.72,4.09-.9,4.72,1,.91,2.66-3,1.93-3.69,4,3.42,3.73,8.09,1.37,11.86,2.28-14.17,8.56-29.24,1.32-44.13,1.85C437.1,138.94,448.05,137.92,458.12,133.67ZM441,97.31c-.48.16-1,.17-1.48.32-3.35,1-6.82,1.57-9.88-.39-1.66-1-.12-2.49.59-3.84,2.54-4.81,5.7-2.12,8.83-1a6.26,6.26,0,0,0,2.16,0C442.82,94,445.67,95.69,441,97.31ZM430.35,69.2c1.95-.27,3.82.18,5.9-.59,6.81-2.5,10.78,4.24,16.47,5.64-5.69,4.11-12.75,2.47-19,4.33-2.2.65-5.09-.94-6.34,2.65-.14.38-4.93,2.73-6.18-2.26-.53-2.09-4.41-3.34-7.1-5.2C418.87,69.18,424.83,70,430.35,69.2Zm-24.59,4.1c-1.77,15.27-11.57,22-22.85,29.82C389.32,91.39,398.23,84.09,405.76,73.3Zm-2.53,45.86c.47,5-3.7,8.41-20.56,15.76C389.27,129.4,393.5,120.58,403.23,119.16ZM331.36,94.45c3.48-5.41,2.87-13,9.75-17.36-.88,7.25-1.77,13.77-1.09,20.33.27,2.64-1.74,2.49-2.83,2.11-3.09-1.09-7.49,4.38-9.3-1.66C327.44,96.36,330.26,96.18,331.36,94.45ZM328.54,74c-1.22,8-4.51,15.68-4.74,23.9C321.59,89.19,325.16,81.61,328.54,74Zm17.88,114.92c-.5,1.44-.68,1.37-3.66-1.31-3.66,4.08-9.91,6.28-9,13.91-7.23-3.67-8.12-9.49-8.5-15.88,5.07,3.3,10.66-1.19,11.15-2.79,2-6.56,4-.64,5.75-.6-.25-2,1.91-3.58.35-6.23C349.85,179.28,348.05,184.16,346.42,188.91Zm6.71-25.78a20.35,20.35,0,0,0-.41,2.82c3.09,3.13-.81,3.91-1.9,5.44s-2.45-.29-2.58-1c-.31-1.88-5.55-4.28.53-5.83,3.22-.81-3-4.74.77-4.74,2,0,3.81-4.19,6-.39C357.42,162.64,356.06,163.19,353.13,163.13ZM369.79,123c-4.73-2.37-5.84.35-7.8,2.63a10.45,10.45,0,0,1-6,3.86c2.82-6.49,8-9.59,11.71-13.93.51-.61,1.9-1.89,2.25-.52,1.76,6.67,3.88,1.16,5.68.2,1-.51,1.71-1.1,2.61-.2a2.21,2.21,0,0,1,.48,1.31C375.42,118.44,373.31,124.79,369.79,123Zm9.38,169.9a35.2,35.2,0,0,1,2.59-24.13C383.22,277,384.32,285.12,379.17,292.93Zm41.3,152.37c-3.32,1.15-4.39-2.42-5.06-5.25-.56-2.4-1.17-4.78-1.75-7.17-.62,3.48-2,6.75-4.94,7-3.24.31-4.49-3.66-4.53-6.13-.1-5.31-6.64-8.71-3.38-15.61.52,5.93,3.36,9.48,7.63,12.66,2.08-5.55-3.18-8.34-3.17-12.58.53-.23,1.28-.69,1.37-.58,5.5,6.37,11.9,12.16,14.86,20.29C422.33,440.24,423.44,444.28,420.47,445.3ZM382,156.3c22.36,4.6,45.2,4.47,67.82,7.25C426.85,164.62,403.8,165.86,382,156.3Zm56.16,299.51c-.65.47-1.94.18-2.91.05-1.89-.25-2.91-1.36-1.81-3.13,1.94-3.13-1.8-5.48-.86-9.56,2.31,3.29,4.29,5.76,5.85,8.46C439.09,452.83,439.62,454.71,438.12,455.81ZM457.7,290.07c-2.88-4.19-5.53-9.41-9.63-11.76-5.26-3-7.12-6.81-7.66-12.14C446.86,273.68,454.8,280.21,457.7,290.07Zm-6.62,103.42c-3-.57-3.5,4.84-6.71,2.23-2.13-1.72-.92-3.88-.7-5.58.47-3.69,4.42-1.23,6.35-2.82.32-.26,2.47.76,2.46,1.17-.16,9.65,10,16.93,5.65,27.64C455.4,408.78,449.59,402.42,451.08,393.49Zm4.65,67.06c8.69,6.31,12,14.45,13.17,23.73C464.67,476.64,456.44,471.35,455.73,460.55Zm16.2-29.78c-5-4.29-4.93-9.28-5-14.39C472.62,422.43,472.72,422.71,471.93,430.77ZM454.5,164.19c17.56,2.81,36,2.33,51.14,14C488.48,173.92,471.93,167.23,454.5,164.19Zm39.62,351.56c-1.19-2-2.63-3.86-2.73-6.32-8.78-2.12-8.28-10.41-10.82-16.58-.82-2-.43-4.51-.73-8.73,8.06,7.46,13.3,14.32,13.06,24.27,7.86,2.24,10,8.83,13.09,16.64C499.9,523,497.91,518.17,494.12,515.75ZM527.25,504c-5-6-9.75-11.63-14.42-17.35-.07-.1.86-1,1.32-1.55A56,56,0,0,1,498,466.52c8.66,5.43,15,13.32,21.59,20.81,1.34,1.52-1.34.89-2.23,1.13,1.72,4.19,6.28,5.44,9,8.67C528.12,499.14,529.17,500.53,527.25,504Zm15.57-11.16a44.45,44.45,0,0,1,17.38,21C552.52,508.39,549.55,499.13,542.82,492.8Z" transform="translate(0.5 0.5)" style="fill:#211915"/></g></svg>