<?xml version="1.0" standalone="no"?>
<!DOCTYPE svg PUBLIC "-//W3C//DTD SVG 20010904//EN"
 "http://www.w3.org/TR/2001/REC-SVG-20010904/DTD/svg10.dtd">
<svg version="1.0" xmlns="http://www.w3.org/2000/svg"
 width="1200.000000pt" height="1599.000000pt" viewBox="0 0 1200.000000 1599.000000"
 preserveAspectRatio="xMidYMid meet">
<metadata>
Created by potrace 1.15, written by Peter Selinger 2001-2017
</metadata>
<g transform="translate(0.000000,1599.000000) scale(0.100000,-0.100000)"
fill="#000000" stroke="none">
<path d="M7105 15641 c-11 -5 -58 -11 -105 -15 -47 -3 -103 -12 -125 -20 -30
-11 -72 -13 -173 -9 -88 4 -140 2 -155 -5 -23 -12 -79 -18 -236 -28 -67 -4
-100 -2 -118 7 -19 10 -28 10 -43 1 -11 -7 -55 -12 -101 -12 -83 0 -114 -10
-137 -42 -7 -10 -20 -18 -29 -18 -9 0 -29 -13 -45 -30 -24 -26 -35 -30 -80
-30 l-51 0 -114 -112 c-62 -62 -113 -117 -113 -123 0 -7 -9 -20 -19 -29 -11
-10 -25 -37 -32 -61 -9 -30 -30 -61 -67 -97 -30 -29 -58 -63 -63 -76 -5 -12
-20 -27 -34 -32 -15 -6 -32 -25 -41 -46 -8 -19 -30 -51 -49 -70 -25 -25 -35
-44 -35 -67 -1 -25 -17 -52 -80 -127 -44 -52 -87 -111 -96 -130 -9 -19 -30
-50 -45 -68 -38 -43 -149 -203 -174 -251 -11 -21 -53 -73 -92 -116 -48 -50
-73 -85 -73 -100 0 -13 -4 -27 -10 -30 -5 -3 -10 -14 -10 -24 0 -10 -9 -26
-19 -35 -11 -10 -31 -41 -45 -69 -15 -29 -51 -92 -81 -141 -30 -49 -55 -97
-55 -107 0 -10 -4 -21 -10 -24 -5 -3 -10 -14 -10 -24 0 -26 -29 -81 -67 -125
-25 -30 -33 -49 -33 -78 0 -21 -7 -55 -15 -75 -8 -20 -13 -38 -11 -41 3 -2
-13 -28 -35 -57 -31 -41 -39 -61 -39 -93 0 -22 -4 -44 -10 -47 -5 -3 -10 -15
-10 -26 0 -10 -5 -28 -12 -39 -12 -19 -10 -37 23 -161 11 -45 10 -49 -26 -120
-43 -85 -65 -157 -65 -214 0 -46 -27 -185 -39 -200 -8 -10 -32 -111 -52 -225
-6 -30 -15 -71 -20 -91 -5 -20 -9 -51 -9 -68 0 -18 -9 -49 -20 -71 -14 -28
-20 -59 -20 -112 -1 -51 -6 -85 -20 -113 -16 -33 -19 -62 -20 -160 0 -102 -3
-125 -20 -153 -17 -28 -20 -50 -20 -160 0 -97 -4 -134 -16 -157 -9 -16 -22
-58 -30 -93 -12 -57 -11 -68 6 -124 11 -33 20 -74 20 -90 0 -16 9 -47 21 -69
17 -35 20 -53 15 -122 -3 -45 -8 -125 -12 -178 -5 -81 -3 -102 12 -130 31 -59
53 -248 34 -303 -9 -29 -9 -47 1 -85 10 -42 10 -52 -6 -82 -9 -19 -21 -70 -26
-114 -5 -44 -13 -107 -19 -140 -5 -33 -14 -91 -19 -130 -6 -38 -15 -88 -21
-110 -6 -22 -15 -82 -19 -132 -7 -84 -10 -96 -40 -133 -36 -45 -61 -107 -61
-152 0 -42 -123 -169 -205 -210 -35 -18 -80 -53 -110 -85 -182 -200 -411 -411
-458 -424 -12 -3 -40 -16 -62 -28 -22 -11 -52 -21 -67 -21 l-28 0 0 -375 0
-375 -44 0 c-41 0 -48 -5 -118 -74 -41 -41 -87 -78 -101 -81 -14 -4 -31 -13
-37 -20 -7 -8 -33 -17 -58 -21 -59 -9 -102 -46 -102 -89 0 -53 -11 -69 -70
-107 -52 -34 -64 -38 -124 -38 -47 0 -78 -6 -106 -20 -22 -11 -50 -20 -62 -20
-13 0 -35 -8 -48 -17 -15 -11 -51 -20 -90 -23 l-65 -5 -3 -37 c-3 -31 -7 -38
-33 -43 -37 -8 -52 -35 -39 -70 5 -14 10 -49 10 -76 0 -40 -3 -49 -17 -49 -21
0 -98 -76 -107 -105 -3 -11 -57 -70 -120 -132 -62 -61 -122 -124 -131 -141
-10 -17 -29 -36 -42 -43 -26 -14 -83 -118 -83 -152 0 -11 -13 -41 -29 -66 -18
-29 -31 -66 -34 -100 -4 -29 -11 -59 -17 -67 -18 -20 -33 -121 -32 -211 0 -46
0 -103 0 -128 0 -25 0 -116 -1 -202 0 -87 5 -192 12 -233 22 -140 25 -234 7
-268 -22 -42 -20 -59 9 -94 14 -16 25 -37 25 -47 0 -10 2 -20 5 -23 7 -6 74
16 117 38 56 29 113 -4 154 -92 23 -47 114 -96 114 -60 0 29 68 25 240 -15
113 -27 150 -46 150 -76 0 -12 -3 -23 -7 -23 -5 0 -39 -3 -78 -5 -207 -15
-266 -15 -271 0 -13 32 -24 0 -20 -57 3 -38 13 -78 30 -110 14 -27 26 -57 26
-66 1 -10 9 -35 20 -57 11 -22 19 -60 20 -84 0 -24 8 -68 17 -98 17 -51 19
-53 48 -47 17 2 46 7 65 9 19 2 58 6 85 10 28 3 68 8 90 10 22 3 54 8 71 11
18 3 34 1 38 -4 7 -11 66 16 66 30 0 4 18 36 40 70 22 35 40 76 40 91 0 15 10
41 22 57 40 55 26 202 -27 265 -110 133 -121 143 -190 175 -39 19 -99 37 -135
41 -99 13 -153 24 -175 36 -11 6 -43 14 -72 18 -48 6 -51 9 -57 39 -4 20 1 57
13 97 11 35 23 82 27 104 3 22 10 47 15 56 4 8 15 78 24 155 8 76 22 171 31
209 8 39 18 83 21 100 3 16 14 44 24 63 11 18 19 41 19 51 0 27 39 111 66 144
13 16 24 34 24 40 0 7 29 42 63 79 59 62 69 68 158 98 52 17 108 38 126 46 17
8 38 14 48 14 26 0 76 29 130 76 27 24 55 44 62 44 7 0 13 5 13 11 0 8 4 8 14
0 11 -9 15 -9 18 0 2 6 37 15 79 19 42 4 81 10 88 14 6 4 45 7 86 7 47 0 77 5
82 12 21 32 55 39 157 32 55 -4 118 -14 140 -21 21 -8 62 -14 90 -14 28 -1 71
-5 96 -11 25 -5 108 -21 185 -34 164 -30 212 -44 258 -79 19 -14 38 -26 43
-26 33 -1 131 -67 196 -134 41 -42 80 -76 86 -76 6 0 18 -10 26 -22 17 -24 20
-23 30 10 6 16 3 22 -8 22 -19 0 -21 16 -3 23 6 3 3 6 -8 6 -13 1 -16 4 -8 9
13 8 6 62 -8 62 -5 0 -9 6 -9 14 0 8 -13 24 -28 35 -22 15 -32 17 -41 8 -8 -8
-15 -7 -29 7 -16 18 -16 19 1 12 41 -14 34 8 -15 51 -50 42 -94 68 -110 65 -5
-1 -16 6 -26 16 -32 32 -205 108 -305 133 -26 6 -50 15 -53 20 -3 5 -14 9 -24
9 -13 0 -17 5 -14 14 4 12 24 14 97 11 117 -6 225 -15 242 -21 9 -4 12 1 11
13 -2 10 1 24 7 31 6 8 5 17 -3 27 -21 26 -164 64 -282 76 -62 6 -116 15 -119
21 -3 5 -9 9 -13 9 -20 -3 -26 0 -26 13 0 8 8 16 18 18 9 3 -10 10 -43 18 -72
16 -95 32 -78 58 8 13 8 22 -1 34 -10 14 -19 15 -56 6 -25 -6 -67 -21 -95 -33
-71 -33 -92 -36 -136 -18 -25 9 -53 13 -77 9 -126 -20 -122 -20 -122 2 0 31
11 52 27 52 8 0 12 4 9 9 -3 5 5 16 19 25 26 17 34 46 13 47 -7 0 -4 4 7 9 11
5 14 9 8 9 -7 1 -13 8 -13 17 0 8 -5 12 -10 9 -22 -14 -7 5 58 71 65 66 71 70
146 87 131 31 184 48 313 104 17 7 39 10 49 6 11 -4 22 0 30 12 14 18 14 18
29 -1 9 -12 14 -14 15 -5 0 9 8 11 27 7 31 -8 46 9 32 36 -13 24 0 69 25 91
17 15 32 18 74 15 49 -4 54 -3 63 19 5 13 17 26 26 29 10 3 27 10 38 14 40 17
94 23 255 27 131 3 167 1 175 -10 5 -7 18 -16 27 -20 20 -7 14 -37 -8 -37 -8
0 -14 -6 -14 -13 0 -7 -10 -17 -22 -22 -13 -6 -23 -15 -23 -22 0 -6 -15 -25
-32 -41 -18 -16 -33 -32 -33 -36 0 -4 -7 -14 -15 -22 -8 -8 -12 -21 -9 -29 7
-18 -51 -48 -82 -42 -18 3 -24 0 -24 -15 0 -10 -7 -21 -15 -24 -8 -4 -15 -12
-15 -20 0 -15 -4 -16 -65 -19 -77 -4 -85 -5 -85 -13 0 -4 12 -15 28 -24 l27
-17 -25 -1 -25 -1 23 -10 c13 -5 37 -10 54 -11 39 -3 64 -38 49 -67 -6 -11 -8
-22 -4 -24 18 -11 165 -67 175 -67 6 0 16 -7 23 -16 14 -19 79 -44 117 -44 15
0 29 -4 32 -9 3 -5 18 -12 33 -16 43 -10 199 -88 213 -106 3 -4 21 -10 40 -13
46 -10 97 -33 120 -56 23 -23 11 -45 -20 -35 -15 5 -26 2 -32 -6 -7 -10 -8 -8
-5 9 5 21 3 23 -35 26 -9 1 -12 -10 -10 -29 l3 -30 -21 24 c-11 13 -20 17 -20
10 0 -9 -4 -7 -12 4 -11 15 -18 15 -49 4 -46 -16 -38 -31 41 -73 30 -16 57
-32 60 -35 8 -11 108 -38 114 -32 3 4 6 1 6 -5 0 -7 7 -12 15 -12 8 0 15 -3
15 -7 0 -13 49 -32 56 -22 9 15 24 10 18 -6 -5 -11 1 -15 24 -15 17 0 34 -4
37 -10 4 -6 -6 -10 -22 -10 -26 -1 -27 -2 -10 -15 11 -8 33 -12 55 -9 29 3 32
2 17 -5 -21 -10 -20 -11 43 -16 34 -3 61 -19 50 -31 -3 -3 -15 0 -27 7 -24 15
-34 9 -25 -15 5 -12 9 -14 14 -6 5 8 14 8 36 -1 17 -7 24 -13 16 -16 -10 -4
-8 -9 5 -20 10 -8 13 -12 7 -9 -14 7 -24 -15 -24 -51 0 -19 4 -24 16 -19 8 3
13 2 10 -3 -8 -12 21 -34 34 -26 18 11 41 -15 35 -39 -5 -17 -4 -18 4 -6 8 12
12 9 17 -17 4 -18 10 -33 15 -33 5 0 9 -6 9 -13 0 -16 42 -57 58 -57 7 0 12
-7 12 -15 0 -8 5 -15 10 -15 6 0 10 -11 10 -25 0 -20 -5 -25 -25 -25 -14 0
-25 -6 -25 -12 0 -9 -3 -9 -8 -3 -11 16 -52 16 -52 0 0 -12 -21 -25 -40 -25
-4 0 -6 8 -4 18 5 15 -3 17 -65 16 -39 0 -71 3 -71 8 0 4 -7 8 -15 8 -8 0 -15
6 -15 13 0 11 -62 67 -75 67 -6 0 -130 94 -160 122 -55 52 -97 80 -122 83 -15
2 -29 4 -30 6 -8 5 -31 4 -56 -4 -25 -8 -27 -13 -21 -41 3 -17 7 -35 8 -41 0
-5 3 -12 6 -15 76 -80 83 -91 92 -142 5 -29 10 -58 11 -64 2 -5 13 -23 25 -38
12 -16 22 -33 22 -38 0 -5 5 -6 11 -3 6 4 19 -2 30 -14 16 -17 24 -19 39 -11
13 7 20 7 20 1 0 -6 19 -20 43 -31 23 -11 57 -30 76 -41 40 -24 49 -19 32 17
-15 34 -10 38 43 38 34 -1 57 -10 106 -42 34 -23 66 -42 71 -42 5 0 21 -13 36
-28 34 -35 125 -71 131 -53 3 9 8 9 21 -2 9 -8 40 -20 69 -27 28 -6 55 -16 58
-21 3 -5 14 -9 25 -9 11 0 19 -7 19 -16 0 -10 -6 -14 -15 -10 -9 3 -15 0 -15
-10 0 -12 -6 -15 -22 -11 -41 11 -82 -55 -43 -69 8 -3 17 -14 20 -25 4 -10 15
-19 25 -19 10 0 22 -4 25 -10 3 -5 1 -10 -6 -10 -7 0 -10 -3 -6 -6 9 -9 -13
-28 -50 -43 -17 -7 -39 -21 -49 -32 -16 -18 -18 -18 -36 -3 -17 16 -18 15 -18
-17 0 -23 7 -39 20 -49 11 -8 20 -18 20 -22 0 -13 -41 -19 -55 -8 -8 7 -26 10
-41 7 -18 -3 -24 -1 -20 9 4 10 -3 14 -19 14 -27 0 -63 17 -80 37 -5 7 -35 25
-65 41 -49 25 -72 43 -146 112 -12 11 -26 20 -33 20 -6 0 -11 5 -11 10 0 6
-13 24 -30 40 -17 16 -30 34 -30 39 0 5 -15 18 -32 30 -18 11 -53 47 -77 80
-24 34 -48 61 -52 61 -5 0 -9 7 -9 15 0 8 -16 29 -35 48 -19 19 -35 38 -35 44
0 5 -15 24 -34 41 -25 22 -40 29 -57 25 -13 -4 -20 -2 -16 4 3 5 -10 15 -29
22 -18 7 -34 18 -34 25 0 16 -48 50 -70 51 -8 0 -15 9 -15 20 0 13 -11 24 -30
32 -43 17 -55 15 -55 -6 0 -11 -5 -21 -11 -23 -6 -2 12 -26 40 -53 28 -28 51
-56 51 -63 0 -7 6 -15 14 -18 8 -3 19 -18 24 -32 5 -15 25 -47 43 -72 30 -40
82 -113 101 -144 20 -32 58 -120 58 -135 0 -10 9 -26 20 -36 24 -21 26 -45 5
-45 -8 0 -15 -9 -15 -20 0 -11 5 -20 10 -20 6 0 10 -5 10 -12 0 -6 7 -18 15
-27 9 -9 49 -61 91 -116 41 -55 80 -107 87 -115 7 -9 30 -41 50 -72 21 -31 44
-62 52 -68 8 -7 15 -23 15 -35 0 -13 6 -26 13 -28 9 -4 9 -6 0 -6 -7 -1 -23 9
-35 21 l-21 21 6 -42 c3 -24 12 -50 20 -59 10 -11 17 -47 20 -97 6 -94 10
-116 31 -147 8 -13 18 -43 21 -68 9 -60 25 -100 40 -100 8 0 16 -6 18 -12 3
-7 6 0 6 17 l1 29 20 -20 c11 -11 28 -49 39 -84 19 -70 35 -157 23 -127 -4 10
-11 18 -15 18 -4 -1 -6 -3 -4 -4 1 -2 -3 -11 -10 -19 -9 -10 -10 -25 -4 -49 5
-19 12 -46 15 -61 7 -30 60 -88 81 -88 11 0 10 9 -5 44 -25 58 -35 123 -18
109 7 -6 27 -8 43 -6 25 4 35 -2 62 -34 29 -34 33 -36 33 -16 0 37 45 41 102
11 49 -26 64 -23 53 11 -3 10 0 23 7 29 10 8 30 0 77 -28 35 -21 67 -44 71
-50 6 -9 9 -9 13 1 3 8 6 2 6 -13 1 -15 8 -33 16 -42 8 -8 15 -20 15 -26 0 -7
13 -29 29 -49 15 -20 36 -63 46 -96 9 -33 24 -74 31 -92 24 -54 17 -104 -26
-189 -22 -43 -40 -86 -40 -96 0 -10 -6 -18 -13 -18 -6 0 -18 -13 -25 -29 -7
-16 -33 -51 -57 -77 -25 -27 -45 -59 -45 -70 0 -16 -8 -23 -30 -28 -17 -3 -29
-11 -28 -18 2 -8 -9 -14 -24 -16 -16 -2 -28 -6 -28 -10 0 -4 -24 -9 -53 -11
-74 -6 -83 -5 -169 3 -71 8 -78 7 -84 -10 -10 -31 -46 -128 -55 -149 -25 -57
-40 -117 -59 -228 -35 -209 -41 -240 -57 -312 -39 -171 -109 -433 -134 -500
-6 -16 -22 -63 -34 -103 -30 -93 -67 -155 -125 -212 -46 -45 -107 -70 -240
-99 -127 -28 -654 -41 -801 -20 l-86 12 -69 -45 c-71 -47 -162 -81 -249 -92
-27 -4 -77 -14 -110 -23 -98 -27 -318 -26 -430 3 -131 32 -164 49 -231 115
-24 24 -44 52 -44 62 0 9 -9 25 -20 34 -11 10 -20 25 -20 34 0 9 -9 19 -20 22
-17 4 -20 14 -20 55 0 29 -6 56 -13 64 -19 18 -35 75 -35 122 0 21 -4 41 -10
45 -15 10 -13 169 2 178 7 5 16 17 21 28 7 18 9 18 12 2 7 -27 23 -10 23 24 0
17 6 32 15 35 16 6 21 45 8 58 -5 4 -8 11 -9 14 0 4 -6 26 -13 49 -17 50 -10
77 30 123 l30 35 24 -27 c17 -20 25 -23 29 -13 3 8 -2 15 -12 18 -9 2 3 5 28
6 85 6 145 1 175 -14 25 -11 44 -12 100 -4 39 6 84 15 100 21 17 7 66 11 110
10 46 0 103 6 133 15 30 8 70 13 90 10 21 -2 60 0 89 5 43 7 57 6 77 -7 22
-15 28 -15 53 -2 94 49 141 58 163 32 7 -8 23 -15 36 -15 59 0 7 89 -66 114
-42 14 -70 12 -105 -10 -11 -6 -33 -15 -50 -18 -34 -6 -261 -11 -405 -8 -52 2
-107 1 -122 -1 -14 -2 -41 3 -60 11 -18 8 -38 14 -44 13 -6 -1 -17 6 -24 14
-17 20 -69 19 -92 -1 -14 -14 -20 -14 -33 -4 -8 7 -15 10 -15 7 0 -3 -16 -1
-35 3 -32 7 -34 6 -24 -11 5 -10 15 -20 22 -20 7 -1 -13 -5 -43 -8 -85 -11
-219 16 -204 41 3 4 -4 8 -15 8 -12 0 -21 -4 -21 -9 0 -5 -13 -3 -29 5 -21 11
-30 24 -35 52 -9 55 -8 62 10 62 8 0 13 4 9 10 -3 5 -12 7 -20 3 -10 -3 -15 1
-15 16 0 11 -10 26 -22 32 -22 12 -22 12 -3 20 17 6 17 8 3 8 -19 1 -22 12
-18 79 1 23 -3 42 -8 42 -12 0 -43 -100 -35 -113 3 -4 -4 -11 -15 -14 -17 -4
-20 -12 -18 -46 4 -56 -2 -71 -20 -56 -8 6 -14 8 -14 3 -1 -9 -32 55 -34 68
-1 3 -4 10 -9 14 -7 7 -5 44 8 147 5 32 3 37 -15 37 -11 0 -32 -7 -45 -16 -17
-11 -25 -12 -25 -5 0 7 -4 10 -9 6 -5 -3 -13 0 -16 5 -4 6 -18 16 -32 21 -14
5 -23 12 -20 15 3 3 -10 19 -28 36 -19 16 -40 45 -47 64 -6 19 -16 34 -20 34
-4 0 -8 11 -8 25 0 14 -4 25 -8 25 -5 0 -14 11 -20 25 -6 14 -8 25 -3 25 12 0
21 39 11 45 -5 3 -11 -1 -13 -7 -3 -7 -6 -3 -6 10 -1 33 -21 27 -28 -9 -6 -29
-8 -31 -49 -27 -33 2 -44 0 -44 -11 0 -8 -15 -42 -34 -75 -33 -59 -52 -80
-190 -211 -156 -148 -199 -192 -223 -229 -13 -21 -41 -57 -62 -80 -20 -22 -54
-67 -75 -99 -23 -35 -64 -76 -100 -103 -34 -24 -69 -55 -80 -70 -10 -14 -50
-47 -90 -72 -39 -25 -86 -58 -104 -74 -18 -15 -61 -42 -95 -59 -34 -18 -75
-42 -92 -54 -16 -13 -49 -32 -73 -44 -23 -12 -62 -36 -87 -54 l-44 -32 0 -787
-1 -788 896 0 c612 0 902 3 915 11 14 7 18 16 14 30 -5 15 -3 18 12 13 14 -5
15 -4 3 4 -8 6 -17 9 -21 6 -4 -2 -12 3 -19 10 -9 11 -9 20 1 37 9 18 9 25 -2
33 -17 13 -21 76 -5 76 6 0 4 6 -5 13 -15 11 -14 16 13 45 31 36 55 38 72 7 5
-11 18 -31 27 -45 9 -14 20 -40 23 -57 5 -21 15 -33 30 -37 12 -3 28 -16 35
-28 31 -59 41 -73 53 -74 38 -1 88 -16 83 -25 -4 -5 39 -9 109 -9 l116 0 -13
33 c-8 19 -21 32 -33 33 -28 2 -174 104 -148 104 4 0 2 6 -4 13 -9 10 -4 13
24 15 25 2 36 -2 42 -15 4 -10 13 -19 21 -21 14 -3 13 10 -4 66 -7 22 -6 22
36 16 24 -4 41 -3 37 1 -4 4 0 14 9 23 14 14 16 14 25 -1 5 -9 18 -17 28 -17
24 0 61 30 53 43 -3 5 1 13 8 18 10 6 11 9 2 9 -21 0 -15 27 7 33 15 4 20 14
20 41 0 26 4 36 16 36 11 0 15 6 11 19 -3 14 0 17 14 14 11 -3 19 0 19 6 0 7
-19 9 -61 4 l-62 -6 34 32 c30 28 34 38 31 72 -4 34 -2 39 17 39 12 0 21 -6
21 -15 0 -8 5 -15 10 -15 6 0 10 9 10 20 0 16 7 20 31 20 24 0 30 -3 25 -16
-3 -9 -6 -20 -6 -26 0 -6 -7 -8 -15 -4 -9 3 -15 0 -15 -9 0 -8 9 -15 20 -15
11 0 20 -4 20 -10 0 -5 6 -10 14 -10 9 0 16 -12 18 -27 2 -23 7 -28 27 -25 14
1 28 -3 32 -10 11 -17 40 21 33 43 -4 13 6 17 48 22 67 8 211 2 228 -8 9 -6
11 -4 5 5 -6 10 -3 11 16 6 13 -4 30 -8 37 -8 7 -1 11 -7 8 -15 -3 -7 -2 -13
2 -13 10 0 39 20 29 20 -4 0 2 9 13 20 30 30 123 29 104 -2 -4 -6 -3 -8 3 -5
14 9 53 -30 47 -47 -7 -19 41 -27 63 -10 17 13 17 13 -2 14 -20 1 -20 1 -1 15
23 17 40 20 31 5 -3 -5 -2 -10 4 -10 6 0 8 -7 5 -15 -5 -12 6 -15 65 -15 41 0
71 -4 71 -10 0 -5 13 -10 28 -10 16 0 32 -3 36 -7 3 -4 14 -7 24 -8 9 -1 27
-5 39 -9 16 -5 27 -1 40 13 10 12 22 21 28 21 6 0 16 9 23 20 8 13 23 20 43
20 24 0 30 4 25 15 -6 17 9 21 19 5 10 -16 38 -12 32 4 -8 19 12 25 43 14 13
-5 41 -6 62 -3 21 4 60 2 86 -5 49 -11 98 -2 113 21 4 6 21 2 45 -12 21 -12
51 -21 67 -21 15 0 27 -4 27 -9 0 -20 27 -7 63 32 33 34 43 39 67 34 21 -5 34
-1 49 14 24 24 74 51 96 51 8 0 15 6 15 14 0 8 7 16 15 20 8 3 15 12 15 20 0
16 21 26 56 26 14 0 24 6 24 14 0 7 10 16 23 20 17 5 19 8 8 15 -11 7 -10 11
7 20 11 6 28 11 36 11 25 0 54 38 48 65 -2 14 -9 25 -16 25 -7 0 -6 4 2 9 8 4
13 10 12 12 -6 12 25 58 48 72 15 9 64 51 110 94 62 59 82 85 82 104 0 15 9
38 21 53 11 14 18 30 14 36 -3 5 2 17 12 27 19 19 29 74 24 133 -4 55 -3 92 4
133 6 32 5 37 -12 37 -34 0 -65 30 -59 55 8 31 -10 76 -27 70 -16 -7 -20 30
-6 56 8 15 20 79 22 117 0 14 27 17 27 3 0 -14 102 -131 114 -131 31 0 130
-170 176 -304 30 -88 28 -308 -4 -467 -13 -64 -27 -122 -31 -129 -20 -33 -27
-103 -30 -317 -3 -214 -13 -352 -36 -492 -5 -30 -6 -57 -3 -60 11 -11 2377
-12 2388 -1 6 6 2 18 -15 36 -37 41 -167 143 -197 157 -51 23 -169 105 -195
137 -40 47 -37 91 11 145 33 38 37 48 34 84 -2 22 3 64 13 93 12 41 15 79 12
163 -3 61 -8 126 -12 145 -7 33 -69 126 -108 162 -26 23 -46 227 -24 243 25
18 45 59 51 106 l7 46 -283 280 c-344 341 -479 470 -484 463 -2 -3 -29 20 -59
50 -56 54 -57 56 -52 103 4 41 0 53 -19 74 -13 14 -24 35 -24 47 0 48 -11 65
-44 68 -49 5 -46 36 9 81 51 43 58 67 20 67 -29 0 -47 46 -24 61 24 16 -15 36
-84 42 -78 7 -144 32 -152 58 -4 10 -11 19 -16 19 -6 0 -8 -4 -4 -9 3 -5 1
-12 -4 -16 -6 -3 -8 -12 -4 -20 7 -20 -2 -19 -22 1 -22 23 -41 5 -26 -25 36
-70 36 -71 21 -71 -6 0 -13 8 -17 18 -3 9 -15 30 -27 46 -11 16 -21 37 -21 45
-1 9 -5 51 -9 93 -7 67 -5 79 8 84 21 8 52 -16 35 -26 -8 -6 -8 -9 0 -14 16
-10 26 23 13 44 -6 10 -8 27 -5 39 l5 21 1717 1 c944 1 2311 0 3039 -1 l1322
-1 0 2320 0 2321 -72 75 c-40 41 -78 75 -84 75 -6 0 -21 11 -34 25 -30 32 -31
102 -3 122 16 12 14 16 -22 53 -22 22 -43 40 -49 40 -5 0 -44 33 -85 74 -65
63 -163 146 -174 146 -2 0 -33 27 -68 60 -35 33 -69 60 -75 60 -6 0 -19 9 -29
20 -10 11 -23 20 -29 20 -6 0 -47 36 -91 80 -44 44 -84 80 -90 80 -5 1 -30 21
-55 46 -25 25 -63 54 -85 64 -22 10 -53 32 -69 49 -16 17 -33 28 -38 25 -4 -3
-8 0 -8 6 0 7 -6 10 -14 7 -17 -7 -27 13 -20 40 5 17 0 20 -33 21 -21 1 -39 6
-41 12 -2 5 -26 10 -54 10 l-50 0 43 -37 c23 -21 53 -50 67 -65 13 -14 36 -31
51 -38 15 -6 34 -21 42 -33 28 -44 89 -95 143 -122 31 -15 53 -31 51 -36 -7
-10 -35 0 -35 12 0 5 -10 8 -23 7 -13 -1 -47 10 -75 25 -28 15 -58 27 -65 27
-8 0 -23 8 -35 18 -38 33 -98 57 -196 77 -16 3 -42 20 -59 36 -27 28 -29 34
-23 80 l7 50 -88 -3 c-82 -3 -88 -5 -91 -25 -4 -27 -31 -51 -40 -36 -4 6 -34
16 -67 23 -33 6 -68 14 -77 16 -12 4 -18 0 -18 -11 0 -9 4 -13 10 -10 5 3 20
-1 32 -9 12 -9 17 -16 10 -16 -7 0 -10 -5 -6 -11 5 -8 1 -8 -14 0 -11 6 -39
11 -61 11 -33 0 -41 4 -41 19 0 14 6 17 25 13 19 -3 25 0 25 13 0 13 -6 16
-22 11 -13 -3 -28 -6 -35 -6 -6 0 -15 -9 -18 -20 -3 -11 -11 -20 -16 -20 -6 0
-8 4 -5 9 3 4 -7 8 -22 9 -171 4 -214 7 -218 14 -7 12 -42 10 -46 -2 -2 -6
-19 4 -37 22 -28 27 -42 33 -79 33 -29 0 -47 5 -50 13 -3 11 0 12 17 2 12 -6
27 -9 34 -7 7 2 -20 20 -60 40 -39 19 -74 33 -77 30 -3 -3 -13 0 -21 7 -9 7
-29 13 -45 12 -17 0 -30 4 -30 10 0 6 -9 8 -20 5 -10 -3 -18 0 -17 5 1 6 -7
11 -18 13 -11 1 -45 10 -75 20 -38 13 -55 15 -58 6 -2 -6 -7 -9 -11 -6 -11 6
-44 -32 -75 -88 -32 -59 -32 -61 -1 -125 14 -29 27 -70 29 -92 3 -32 12 -47
45 -77 58 -53 111 -193 111 -297 0 -39 7 -116 16 -171 8 -55 24 -176 34 -270
13 -120 27 -192 46 -245 29 -82 33 -151 21 -339 -9 -130 -16 -158 -77 -286
-27 -56 -72 -169 -99 -251 -56 -167 -70 -210 -82 -239 -4 -11 -25 -74 -46
-140 -21 -66 -41 -121 -45 -123 -5 -2 -8 -8 -8 -13 0 -6 -16 -44 -35 -85 -19
-41 -35 -81 -35 -89 0 -7 -4 -16 -9 -20 -12 -6 -131 -254 -131 -270 0 -3 -9
-24 -19 -48 -11 -23 -27 -64 -37 -92 -9 -27 -23 -57 -30 -65 -6 -8 -15 -25
-19 -38 -10 -35 -51 -27 -47 10 5 40 -15 43 -34 3 -18 -38 -25 -41 -54 -23
-16 11 -23 9 -40 -10 -11 -12 -25 -33 -30 -47 -7 -19 -17 -25 -39 -25 -17 0
-42 -11 -60 -26 l-31 -26 -10 24 c-8 19 -9 17 -4 -12 l6 -35 -21 19 c-11 11
-21 27 -21 38 0 10 -3 18 -7 18 -14 -1 -43 -27 -43 -39 0 -15 -13 -14 -29 2
-10 10 -15 9 -25 -5 -7 -10 -16 -15 -19 -11 -4 3 -7 1 -7 -5 0 -17 -71 -14
-94 3 -17 13 -22 13 -37 -1 -10 -9 -19 -11 -23 -6 -3 6 -21 8 -38 6 -106 -15
-118 -16 -118 -5 0 6 -19 11 -44 11 -34 0 -45 4 -48 17 -2 14 -12 17 -50 14
-42 -2 -48 0 -73 33 -15 20 -35 36 -45 36 -20 0 -75 60 -98 108 -9 17 -22 32
-29 32 -7 0 -21 18 -30 40 -10 22 -21 40 -25 40 -5 0 -8 7 -8 15 0 9 -6 18
-14 21 -8 3 -14 15 -14 27 -1 43 -15 92 -29 109 -9 10 -16 39 -17 73 0 30 -4
55 -8 55 -21 0 -62 179 -53 235 5 40 4 44 -11 38 -15 -6 -17 0 -11 57 3 35 2
71 -2 80 -5 8 -11 57 -15 108 -7 89 -6 93 18 117 15 14 21 27 15 31 -16 9 0
124 21 154 9 14 20 38 24 54 4 17 16 42 27 57 10 15 19 31 19 35 0 12 73 114
82 114 4 0 27 18 49 40 23 22 46 40 51 40 6 0 27 13 48 30 21 17 41 30 45 30
3 0 26 13 50 30 24 16 56 35 72 41 15 5 46 18 68 28 84 38 141 60 175 67 19 4
41 10 50 15 8 5 31 13 50 18 34 9 34 9 6 10 -46 2 -240 -54 -267 -76 -8 -7
-23 -13 -32 -13 -9 0 -18 -4 -21 -9 -3 -4 -20 -11 -38 -15 -17 -3 -39 -12 -47
-20 -9 -8 -40 -21 -69 -30 -30 -9 -74 -32 -100 -54 -26 -22 -65 -50 -87 -64
-22 -14 -46 -33 -54 -42 -7 -9 -19 -16 -27 -16 -7 0 -15 -8 -19 -19 -3 -10
-14 -26 -25 -36 -11 -10 -20 -28 -20 -40 0 -13 -6 -28 -14 -34 -8 -7 -17 -24
-21 -39 -3 -14 -15 -45 -26 -69 -10 -23 -19 -46 -19 -52 0 -5 -5 -13 -10 -16
-6 -4 -10 7 -9 27 0 18 -5 60 -12 93 -16 71 -16 230 0 249 6 7 8 16 5 19 -14
14 8 27 27 16 18 -9 25 -6 50 23 22 24 28 39 24 56 -4 15 -2 21 4 18 6 -4 17
7 26 24 8 16 20 30 25 30 6 0 10 6 10 14 0 7 11 21 25 30 14 9 25 25 25 36 0
10 8 25 18 32 20 16 42 52 42 71 0 8 23 35 50 61 47 44 58 72 25 59 -8 -3 -15
0 -15 7 0 6 4 9 9 6 5 -4 12 7 16 23 3 16 15 37 26 47 10 9 19 22 20 28 0 6
20 38 45 71 24 33 50 74 58 92 17 37 48 57 64 41 7 -7 14 7 22 47 9 41 15 55
26 51 7 -3 18 3 24 14 15 28 11 38 -6 15 -15 -20 -15 -19 -12 5 2 17 9 25 23
25 16 0 20 7 20 32 0 17 8 40 18 50 9 11 17 25 17 32 0 7 4 10 10 6 5 -3 7
-12 4 -20 -3 -8 2 -24 11 -37 16 -22 17 -21 10 33 -6 52 -4 56 19 68 13 8 27
24 30 37 4 13 17 35 31 50 19 21 30 25 51 20 22 -6 25 -5 16 6 -8 10 -6 20 8
38 11 14 20 22 20 18 0 -4 11 -3 24 2 15 5 27 5 33 -1 7 -7 23 4 47 34 20 24
36 49 36 55 0 6 10 12 21 14 15 2 27 18 41 53 10 28 30 74 43 103 14 29 25 59
25 68 0 8 6 17 13 20 8 3 14 10 14 17 2 23 28 82 41 90 6 4 12 17 12 28 0 27
30 92 47 102 7 4 13 18 13 30 0 13 4 27 9 32 6 6 12 33 14 62 2 29 9 58 15 65
5 7 18 38 28 68 10 30 21 58 26 61 5 3 8 22 6 42 -1 23 4 43 15 55 22 24 22
39 0 21 -15 -12 -16 -12 -10 4 3 9 3 17 -1 17 -12 0 -82 -71 -82 -83 0 -10
-18 -50 -88 -197 -16 -33 -21 -35 -69 -38 -29 -2 -53 -7 -53 -13 0 -6 -28 -7
-75 -3 -54 5 -75 4 -75 -5 0 -17 -50 -2 -83 26 -16 12 -35 23 -42 23 -8 0 -29
9 -48 20 -20 12 -42 18 -53 14 -14 -4 -16 -3 -5 4 11 8 9 11 -10 17 -13 3 -37
12 -54 20 -16 7 -66 15 -110 19 -44 3 -112 13 -150 21 -39 8 -86 15 -105 15
-19 0 -53 9 -74 21 -22 11 -69 25 -105 31 -36 5 -86 21 -110 34 -24 13 -58 24
-77 24 -18 0 -85 18 -148 41 -64 22 -124 38 -134 34 -23 -7 -47 -49 -37 -65 4
-6 37 -31 74 -54 64 -42 118 -87 231 -193 30 -29 60 -53 66 -53 6 0 19 -9 29
-20 10 -11 22 -20 27 -20 5 0 19 -10 31 -23 12 -13 30 -27 41 -30 10 -4 30
-16 45 -28 45 -35 143 -89 162 -89 10 0 25 -10 33 -21 9 -14 21 -19 31 -15 9
3 23 2 33 -3 49 -24 90 -40 115 -45 22 -5 27 -3 27 13 0 21 40 36 71 26 12 -4
19 -2 19 7 0 9 3 10 8 2 8 -13 52 -1 52 14 0 13 27 12 98 0 44 -9 61 -16 58
-25 -8 -20 4 -42 19 -36 21 7 31 -43 12 -61 -8 -8 -17 -12 -21 -9 -3 4 -6 -1
-6 -10 0 -20 -16 -23 -22 -5 -3 9 -16 8 -54 -4 l-49 -16 40 -11 c22 -6 53 -11
68 -11 32 0 110 -37 105 -49 -2 -5 -30 -32 -64 -59 -79 -66 -127 -130 -208
-275 -58 -103 -100 -171 -116 -187 -3 -3 -19 -25 -35 -49 -44 -66 -122 -148
-173 -183 -49 -34 -126 -58 -188 -58 -60 0 -206 27 -240 45 -16 8 -34 15 -40
15 -6 0 -17 7 -24 15 -7 8 -19 15 -28 15 -8 0 -23 6 -31 14 -9 8 -28 17 -43
20 -36 6 -107 46 -138 76 -14 14 -38 33 -52 42 -15 10 -34 34 -44 53 -9 19
-22 35 -29 35 -8 0 -11 8 -8 20 6 24 -50 82 -72 74 -8 -3 -22 2 -31 11 -13 12
-14 21 -7 38 6 13 8 46 5 75 -4 51 -6 53 -29 47 -15 -3 -22 -2 -19 4 10 15
-26 77 -51 88 -18 9 -25 8 -32 -4 -7 -14 -11 -14 -33 1 -13 9 -28 13 -31 9 -4
-3 -7 6 -7 20 0 17 -5 27 -15 27 -8 0 -15 5 -15 11 0 5 -10 3 -22 -5 -30 -21
-50 -20 -83 6 -22 17 -26 27 -22 53 4 24 1 34 -14 43 -16 10 -19 9 -19 -3 0
-11 -7 -14 -24 -9 -46 11 -38 -67 9 -91 22 -11 107 -99 172 -177 21 -26 54
-59 74 -75 21 -15 45 -40 54 -54 10 -14 40 -41 67 -60 46 -31 84 -68 160 -152
26 -29 43 -77 27 -77 -15 0 -10 -18 10 -37 10 -10 24 -28 30 -40 6 -13 30 -32
51 -43 30 -16 40 -26 40 -45 0 -14 4 -25 8 -25 5 0 14 -10 21 -23 7 -13 26
-31 41 -41 25 -14 33 -15 50 -4 18 11 23 10 36 -6 8 -11 14 -14 14 -7 0 8 5 9
17 3 11 -7 30 -5 56 4 21 8 44 11 50 7 7 -4 32 -7 57 -8 l45 0 6 -42 c4 -36
-2 -56 -45 -145 -27 -57 -53 -125 -57 -152 -5 -27 -12 -52 -17 -55 -5 -3 -13
-21 -17 -38 -3 -18 -12 -33 -18 -33 -8 0 -7 -4 2 -9 7 -5 10 -14 7 -20 -4 -6
-11 -9 -16 -6 -5 3 -14 -14 -21 -37 -17 -65 -21 -98 -11 -98 18 0 42 -103 42
-179 0 -42 7 -113 15 -159 11 -59 12 -89 5 -103 -8 -13 -7 -25 0 -39 14 -27
15 -305 1 -350 -6 -19 -11 -53 -11 -76 0 -39 -17 -104 -27 -104 -13 0 -52 38
-45 44 4 4 -7 6 -23 4 -21 -2 -30 1 -30 12 0 8 -7 18 -16 22 -11 4 -19 24 -24
57 -4 28 -11 48 -16 45 -5 -3 -9 2 -9 10 0 9 6 16 13 16 6 1 2 9 -10 19 -29
25 -52 82 -54 139 -1 26 -9 55 -18 65 -12 15 -13 22 -3 37 16 26 15 33 -4 26
-11 -4 -22 9 -42 54 -15 33 -33 59 -40 60 -7 0 -12 6 -11 13 3 25 -13 56 -27
50 -8 -3 -14 0 -14 7 0 6 -13 30 -29 53 -15 23 -26 47 -24 53 5 14 -26 41 -52
46 -13 2 -20 11 -20 25 0 11 -7 29 -16 39 -8 11 -21 37 -27 60 -7 22 -27 56
-45 75 -32 32 -77 138 -77 180 0 9 -7 22 -15 29 -8 6 -14 19 -13 28 3 40 -3
62 -17 62 -23 0 -18 17 8 24 20 5 18 9 -35 59 -33 31 -58 62 -58 74 0 11 -11
30 -25 43 -14 13 -25 31 -25 41 0 10 -6 24 -12 31 -79 84 -148 208 -129 232 5
6 12 22 16 35 l7 23 -38 -26 c-21 -14 -44 -26 -52 -26 -18 0 -26 28 -13 44 12
14 5 46 -10 46 -17 0 -9 35 17 73 14 21 23 43 20 50 -3 8 -5 6 -5 -3 -1 -19
-32 -47 -58 -52 -10 -2 -17 -10 -15 -16 1 -7 -4 -12 -11 -12 -14 0 -16 157 -3
248 5 37 4 52 -4 52 -14 0 -40 25 -40 39 0 10 -37 47 -79 79 -23 18 -24 22
-14 80 6 39 6 67 0 78 -6 11 -6 23 1 34 8 13 7 21 -1 29 -18 18 -34 13 -57
-19 -18 -25 -26 -29 -48 -24 -38 9 -52 23 -49 47 1 16 -3 21 -15 19 -20 -3
-33 35 -23 68 7 24 -18 60 -42 60 -8 0 -11 5 -8 10 4 6 15 8 25 5 10 -3 21 -1
25 5 8 13 52 13 60 0 3 -5 14 -10 24 -10 25 0 51 -32 51 -63 0 -21 5 -27 21
-27 18 0 20 4 15 25 -4 14 -2 25 4 25 5 0 10 -8 11 -17 0 -14 3 -12 10 5 7 18
14 22 31 17 21 -7 87 -51 98 -66 3 -3 39 -27 80 -52 l75 -46 3 32 c2 18 8 36
13 41 5 6 9 19 9 29 0 15 -5 18 -25 13 -24 -6 -35 7 -15 19 13 8 13 51 0 76
-6 10 -21 19 -33 19 -23 0 -57 43 -57 73 0 8 -7 20 -16 28 -8 7 -13 21 -11 30
8 29 -18 54 -55 54 -23 0 -33 5 -33 15 0 10 8 14 23 13 12 -2 22 1 22 6 0 14
-26 31 -36 23 -4 -4 -2 1 5 10 15 21 6 58 -16 58 -10 0 -14 -6 -10 -20 3 -13
-1 -24 -14 -30 -15 -8 -19 -7 -19 4 0 8 -14 28 -31 45 -17 17 -28 35 -24 41 3
5 2 10 -3 10 -5 0 -12 9 -15 20 -3 12 -14 20 -27 20 -13 0 -20 5 -17 13 2 6
12 11 21 11 24 -2 11 103 -17 134 -15 16 -17 22 -6 22 11 0 12 2 1 9 -11 7
-10 10 3 15 9 3 25 6 36 6 23 0 24 13 5 43 -8 12 -17 39 -20 59 -5 30 -3 41
13 57 12 12 27 18 36 15 10 -4 15 0 15 13 0 11 11 33 25 49 14 16 25 32 25 37
0 4 14 7 30 7 36 0 79 42 80 78 0 12 6 22 15 22 8 0 12 6 10 13 -3 6 5 17 17
22 18 8 24 19 26 55 4 81 6 90 19 90 17 0 17 36 1 44 -10 5 -10 7 -1 12 9 4 6
12 -10 27 -22 22 -36 54 -19 43 5 -3 9 8 10 24 0 16 -4 32 -9 36 -5 3 -7 14
-4 23 3 10 -1 24 -10 31 -21 17 -19 30 4 30 11 0 23 5 26 10 3 6 -1 10 -9 10
-18 0 -18 2 -16 81 1 35 -5 69 -16 92 -16 33 -16 38 0 70 9 19 16 47 16 61 0
16 6 26 14 26 11 0 14 10 12 38 -3 43 2 64 15 57 10 -7 29 28 29 54 0 12 4 21
10 21 20 0 50 43 44 65 -7 29 53 96 67 74 7 -12 9 -11 9 2 0 9 7 20 16 23 9 4
14 9 11 12 -8 9 62 83 92 97 31 14 44 77 17 77 -20 0 -20 19 0 48 17 25 57 31
48 7 -14 -35 18 -10 49 38 14 22 21 26 32 17 9 -8 14 -6 19 6 10 25 7 34 -11
34 -14 0 -14 3 -5 12 10 10 15 10 21 -1 7 -11 12 -11 31 2 25 17 61 12 53 -8
-3 -9 3 -14 14 -15 10 0 39 -2 64 -3 26 -1 53 -8 60 -14 8 -6 37 -17 64 -24
53 -13 85 -34 85 -55 0 -8 12 -16 28 -19 15 -3 41 -10 57 -16 17 -6 39 -13 50
-16 11 -4 23 -12 27 -18 4 -7 29 -16 55 -20 27 -3 82 -15 123 -25 65 -16 203
-37 250 -38 8 0 49 -4 90 -8 106 -10 227 -6 289 11 41 11 65 11 111 3 34 -7
57 -16 54 -22 -2 -6 5 -21 16 -34 16 -20 22 -21 41 -12 14 8 24 9 31 2 7 -7
17 -7 31 1 15 9 21 9 24 0 3 -7 9 -13 14 -13 4 0 6 7 3 15 -7 17 0 19 26 5 13
-7 19 -6 24 5 7 19 32 19 40 0 6 -18 32 -20 42 -4 11 18 5 112 -10 176 -19 80
-41 126 -66 141 -11 7 -18 17 -14 23 4 7 -1 7 -15 -1 -12 -6 -30 -8 -41 -5
-29 9 -58 -11 -62 -42 -4 -37 -22 -35 -28 3 -4 21 -11 29 -25 29 -12 0 -21 8
-23 20 -2 12 -19 27 -45 39 -23 11 -53 32 -67 47 -25 27 -108 61 -183 75 -20
3 -40 10 -43 15 -3 5 -21 9 -40 9 -21 0 -40 7 -51 19 -9 11 -22 17 -29 14 -7
-2 -17 4 -23 15 -6 11 -22 22 -35 26 -14 3 -32 13 -40 22 -9 8 -37 19 -63 24
-48 8 -113 30 -123 41 -14 15 -73 27 -145 29 -126 3 -143 5 -139 11 6 10 -16
16 -79 24 -48 6 -62 4 -92 -14 -49 -28 -70 -28 -54 0 6 12 20 24 30 26 10 3
19 9 19 14 0 5 9 18 21 30 11 11 18 27 15 35 -10 26 58 114 88 114 10 0 14 -5
11 -10 -4 -6 -10 -8 -15 -5 -4 3 -11 -7 -14 -21 -4 -15 -14 -33 -22 -41 -25
-26 -7 -27 25 -2 33 27 56 71 48 94 -4 9 2 19 13 25 11 6 20 19 20 29 0 11 7
22 16 25 25 10 32 -4 10 -20 -19 -13 -19 -14 8 -14 15 0 37 5 49 12 12 7 49
17 82 23 49 9 64 9 82 -3 22 -14 65 -22 138 -26 22 -1 54 -9 70 -18 17 -9 38
-19 49 -22 14 -5 17 -13 12 -36 -5 -26 -3 -30 17 -30 12 0 40 -11 62 -25 22
-13 81 -44 130 -69 50 -24 101 -56 114 -70 17 -17 35 -26 56 -26 19 0 39 -8
50 -20 10 -11 21 -20 25 -20 4 0 28 -21 54 -46 40 -41 50 -46 77 -40 29 5 31
4 25 -18 -5 -21 -1 -25 39 -36 59 -17 140 5 140 37 0 29 -77 90 -124 98 -22 4
-45 13 -52 21 -6 8 -17 14 -24 14 -6 0 -24 14 -39 31 -21 23 -25 33 -16 39 16
10 6 40 -13 40 -8 0 -20 6 -26 14 -7 8 -25 18 -41 21 -33 7 -107 42 -126 59
-8 6 -21 17 -30 25 -9 8 -37 15 -63 15 -34 1 -46 5 -46 16 0 8 -17 23 -37 32
-20 10 -42 27 -48 38 -6 11 -17 20 -24 20 -7 0 -30 12 -51 26 -21 14 -44 23
-52 20 -8 -3 -25 1 -38 10 -19 12 -28 13 -46 4 -19 -10 -21 -10 -16 3 6 17
-26 52 -40 44 -5 -3 -15 -2 -23 4 -12 7 -11 9 5 9 18 1 17 2 -5 14 -18 10 -38
12 -68 6 -31 -5 -45 -4 -53 6 -8 10 -8 14 -1 14 10 0 6 68 -5 80 -2 2 -14 -8
-26 -22 -24 -29 -65 -53 -75 -44 -3 3 0 6 6 6 7 0 19 16 27 36 20 49 19 52 -7
18 -24 -31 -38 -44 -50 -44 -15 0 -8 25 10 36 9 6 30 36 45 65 15 30 39 68 52
84 l25 30 -11 -35 c-7 -19 -16 -43 -20 -52 -13 -26 -11 -31 12 -25 16 4 18 3
9 -8 -8 -9 -8 -15 0 -20 13 -8 32 4 25 16 -4 5 -1 9 6 9 7 0 10 12 7 32 -5 34
8 64 48 105 12 13 21 37 22 54 0 21 9 40 25 53 14 12 25 33 25 50 1 16 11 44
21 62 14 23 16 35 8 43 -7 7 -6 16 6 29 9 10 17 21 17 25 0 3 18 34 40 68 21
33 42 69 45 79 4 11 12 17 21 13 7 -3 14 0 14 6 0 6 7 11 15 11 16 0 21 26 5
32 -6 2 -6 8 0 18 8 12 12 13 19 2 7 -11 9 -11 14 2 4 9 4 23 0 32 -3 8 3 32
13 52 30 58 119 135 100 87 -3 -8 -2 -15 1 -15 10 0 89 85 96 103 3 9 19 24
34 34 40 25 113 102 113 119 0 8 5 14 10 14 6 0 10 9 10 21 0 11 5 17 10 14 6
-4 8 -11 5 -16 -13 -20 57 -8 78 14 12 12 34 29 50 36 27 14 36 31 17 31 -24
0 -6 20 40 44 28 14 50 22 50 16 0 -5 -4 -10 -10 -10 -5 0 -10 -7 -10 -15 0
-20 42 -20 81 0 44 23 189 19 174 -5 -3 -5 12 -14 32 -21 21 -6 57 -23 80 -36
24 -14 48 -22 55 -20 7 3 4 6 -7 6 -15 1 -16 4 -7 13 9 9 21 7 53 -11 32 -19
51 -22 87 -18 34 4 52 1 64 -10 13 -12 40 -16 106 -15 78 0 90 -2 101 -20 11
-17 10 -22 -1 -29 -9 -6 -3 -9 18 -9 40 0 103 -26 111 -45 3 -9 18 -15 36 -15
44 0 111 -36 141 -75 14 -18 26 -38 26 -43 0 -5 21 -15 47 -21 53 -14 106 -62
170 -156 60 -89 73 -119 89 -203 41 -217 46 -364 30 -879 -7 -219 -6 -286 3
-297 7 -8 11 -34 10 -57 -2 -27 1 -44 9 -47 7 -2 9 -8 6 -14 -4 -6 -1 -9 7 -6
8 3 17 23 21 45 4 23 16 59 27 82 12 22 21 47 21 56 0 9 6 18 13 21 9 3 12 16
9 34 -2 17 0 36 6 43 9 12 20 75 28 172 3 28 13 97 24 155 10 58 20 141 21
185 4 155 0 351 -10 405 -12 72 -57 241 -75 285 -21 50 -114 158 -148 173 -17
7 -32 21 -35 31 -6 25 -87 75 -146 91 -52 14 -84 54 -72 90 5 15 0 22 -19 30
-16 6 -26 17 -26 29 0 19 -25 35 -40 26 -5 -3 -11 -1 -15 4 -3 6 6 18 19 27
27 17 30 44 8 66 -16 16 -15 28 3 48 19 21 10 50 -15 50 -53 0 -69 46 -27 80
19 16 20 22 10 39 -7 11 -13 28 -13 37 0 13 -6 15 -29 11 -31 -6 -51 7 -51 34
0 10 -6 19 -12 21 -10 4 -10 10 -1 31 7 15 10 33 7 41 -3 9 3 17 15 21 25 8
27 18 6 35 -8 6 -13 22 -12 33 1 14 -6 25 -20 32 -28 12 -29 25 -3 32 29 8 19
28 -14 29 -40 1 -64 29 -49 54 7 10 9 21 4 24 -5 3 -6 17 -3 31 4 24 -8 32
-42 26 -5 -1 -16 5 -25 13 -9 8 -28 18 -43 21 -18 5 -28 14 -28 26 0 10 -4 19
-10 19 -5 0 -10 6 -10 13 0 19 -48 66 -74 73 -12 3 -30 18 -39 34 -11 18 -28
30 -51 34 -28 5 -37 13 -46 42 -9 27 -16 34 -31 29 -21 -7 -79 31 -79 52 0 7
-4 13 -8 13 -5 0 -15 12 -22 28 -7 15 -15 22 -17 15 -6 -16 -39 -17 -48 -3 -4
6 -10 8 -15 5 -4 -3 -23 13 -40 35 -17 22 -36 40 -40 40 -5 0 -26 11 -46 25
-20 14 -41 22 -46 19 -14 -9 -29 17 -22 38 6 21 -24 31 -62 22 -22 -6 -26 -4
-21 8 3 10 -4 20 -19 29 -14 7 -22 19 -19 27 3 10 -1 12 -16 7 -16 -5 -20 -3
-17 12 4 25 -49 31 -66 7 -12 -15 -13 -15 -19 -1 -3 9 -2 19 3 22 17 11 11 25
-11 25 -30 0 -59 18 -53 34 3 9 -3 17 -18 21 -36 12 -88 49 -88 63 0 13 -13
11 -57 -5 -7 -3 -13 2 -13 10 0 16 -39 38 -90 52 -14 4 -47 22 -74 39 -27 17
-53 30 -59 28 -19 -6 -48 10 -43 24 6 17 10 16 -78 19 -50 2 -73 8 -82 19 -6
10 -26 16 -47 16 -20 0 -38 4 -41 8 -7 11 -325 13 -351 3z m510 -4032 c-4 -13
-1 -19 9 -19 9 0 16 7 16 15 0 17 9 19 28 7 7 -5 10 -16 6 -25 -7 -20 16 -23
33 -6 8 8 13 6 17 -7 3 -11 31 -30 61 -44 42 -19 55 -30 54 -45 -2 -35 1 -39
15 -20 18 25 46 13 46 -20 0 -14 -4 -25 -9 -25 -5 0 -23 -3 -41 -7 -29 -5 -32
-4 -27 11 4 11 3 15 -4 10 -6 -4 -78 -6 -160 -6 -143 1 -151 2 -211 30 -35 17
-72 32 -82 34 -30 5 -29 21 4 66 23 32 36 41 55 40 19 -2 25 -8 25 -27 0 -23
1 -24 20 -6 11 10 22 26 26 37 6 19 6 19 21 -2 11 -16 18 -18 28 -10 8 7 24 9
36 5 19 -6 21 -4 15 19 -5 20 -3 24 9 20 10 -4 13 -13 10 -25z m-2721 -4629
c35 -33 68 -60 73 -60 18 0 131 -99 138 -121 11 -32 1 -32 -51 3 -27 18 -66
42 -87 53 -34 18 -83 60 -113 97 -6 7 -25 25 -44 39 -20 15 -31 30 -26 37 15
25 50 10 110 -48z m-117 -39 c38 -38 74 -78 81 -91 13 -21 12 -22 -19 -15 -17
4 -50 15 -73 25 -46 21 -57 18 -33 -8 10 -10 17 -21 17 -24 0 -11 -85 -7 -114
6 -17 8 -44 17 -61 20 -16 2 -45 9 -62 15 -18 5 -33 7 -33 3 0 -4 -4 -2 -8 3
-9 14 -81 35 -121 35 -24 0 -31 4 -31 19 0 21 -17 30 -58 32 -20 1 -22 3 -8 6
15 4 16 7 5 14 -8 5 62 9 171 9 102 0 201 4 220 9 19 5 41 9 47 10 7 1 43 -30
80 -68z m-79 -2189 c17 -24 28 -50 26 -57 -4 -10 0 -12 15 -8 15 4 21 1 21
-11 0 -9 -5 -16 -11 -16 -7 0 -9 -10 -5 -25 4 -17 2 -25 -6 -25 -9 0 -8 -3 2
-10 11 -7 5 -10 -22 -10 -21 0 -41 0 -45 -1 -5 0 -10 8 -12 18 -2 10 -16 33
-32 52 -21 26 -26 38 -18 52 5 11 6 20 0 24 -6 3 -9 13 -9 23 0 9 -1 24 -3 32
-3 11 3 14 18 12 18 -3 21 0 16 15 -6 15 -4 15 14 -2 11 -11 34 -39 51 -63z
m-2872 -797 c0 -38 4 -82 9 -97 l7 -28 -68 0 c-96 0 -118 13 -122 72 -3 42 0
47 35 75 50 38 82 53 113 50 24 -2 25 -5 26 -72z m3980 -1280 c31 -31 62 -48
74 -40 6 4 10 3 9 -2 -6 -34 7 -64 46 -106 25 -26 45 -52 45 -57 0 -5 8 -11
18 -14 23 -8 83 -62 75 -69 -3 -3 12 -9 33 -13 51 -9 80 -24 66 -33 -7 -4 0
-14 18 -25 17 -9 30 -21 30 -27 0 -5 6 -9 13 -9 14 -1 57 -34 57 -45 0 -4 9
-14 20 -23 19 -17 19 -17 0 -40 -18 -21 -23 -23 -53 -13 -32 11 -87 2 -87 -14
0 -4 4 -4 9 0 13 7 27 -20 36 -68 8 -39 -8 -54 -18 -16 -3 12 -10 18 -15 15
-13 -8 -68 79 -76 119 -4 19 -24 44 -56 70 -27 22 -49 44 -50 49 0 6 -17 26
-38 45 -44 42 -132 155 -132 170 0 6 -14 26 -31 45 -45 51 -61 126 -28 126 5
0 21 -11 35 -25z m-240 -281 c6 -8 14 -14 18 -14 3 0 23 -16 43 -36 21 -19 72
-61 113 -92 90 -68 123 -103 110 -116 -8 -8 -36 6 -125 62 -11 7 -27 15 -36
18 -14 5 -135 131 -178 187 -13 17 -12 18 15 11 16 -3 34 -13 40 -20z m-34
-149 c2 2 22 -16 44 -42 63 -74 87 -95 105 -90 19 5 49 -43 68 -113 7 -25 17
-54 21 -66 4 -11 4 -28 -2 -37 -6 -11 -5 -17 2 -17 5 0 10 -7 10 -15 0 -8 -7
-15 -15 -15 -9 0 -18 -7 -21 -15 -6 -15 -35 -22 -33 -7 3 18 -2 32 -11 32 -5
0 -10 -11 -10 -24 0 -14 -4 -27 -9 -31 -11 -6 -26 18 -53 80 l-17 40 -1 -35 0
-35 -19 24 c-27 35 -51 22 -51 -28 0 -29 -5 -43 -19 -50 -10 -6 -24 -24 -29
-41 -6 -16 -15 -30 -19 -30 -4 -1 -28 -3 -53 -5 -42 -4 -49 -1 -102 46 -31 27
-67 69 -81 93 -33 59 -58 136 -49 150 7 12 9 18 11 41 0 8 8 15 16 15 14 0 21
18 27 70 2 14 9 26 16 26 6 1 13 2 15 3 1 2 12 4 23 7 23 4 27 -2 74 -112 l21
-52 25 25 c18 18 27 39 29 71 2 25 8 48 14 51 5 3 12 20 16 36 15 64 15 66 34
55 10 -5 20 -7 23 -5z"/>
<path d="M9711 11728 c-11 -4 -22 -11 -26 -17 -3 -6 -11 -9 -16 -5 -5 3 -24 1
-42 -5 -17 -5 -59 -12 -92 -15 -74 -7 -116 -16 -132 -28 -6 -5 -25 -10 -42
-10 -18 -1 -39 -11 -52 -25 -13 -12 -33 -23 -45 -23 -28 0 -41 -19 -23 -32 19
-12 171 0 224 18 24 8 56 11 73 8 19 -4 42 0 62 10 18 9 37 13 42 10 5 -3 14
-2 21 3 11 9 18 9 55 5 14 -2 17 -52 2 -52 -5 0 -10 -5 -10 -11 0 -13 -57 -88
-165 -215 l-20 -23 -110 29 c-60 16 -119 29 -130 29 -52 -1 -195 10 -203 15
-5 3 -31 4 -58 2 -46 -2 -50 -5 -69 -42 -16 -32 -19 -60 -20 -161 0 -108 2
-125 21 -150 13 -17 34 -30 55 -34 19 -3 43 -10 55 -17 33 -17 163 -42 225
-42 65 0 119 16 119 35 0 8 4 16 9 19 13 8 46 -50 61 -109 16 -61 16 -61 32
-43 16 17 21 38 9 38 -5 0 -3 14 6 30 8 17 18 28 22 25 5 -2 17 13 27 35 12
26 24 38 33 35 16 -6 31 11 31 37 0 19 -28 14 -43 -6 -4 -6 -7 0 -5 14 2 18 9
25 24 24 17 0 25 9 34 40 7 23 13 59 14 81 1 23 6 46 10 53 9 15 18 82 17 131
0 19 6 39 13 45 8 6 16 23 20 38 5 23 3 27 -11 22 -10 -4 -3 3 15 15 17 11 32
25 32 31 0 14 -17 12 -23 -2 -4 -10 -6 -10 -6 0 -1 7 10 17 23 22 32 12 50 67
41 129 -6 45 -8 48 -36 47 -16 -1 -38 -4 -48 -8z m-536 -459 c4 -5 18 -14 31
-19 13 -5 30 -24 38 -43 7 -19 29 -46 47 -60 32 -25 33 -27 17 -43 -26 -26
-115 -30 -185 -8 -32 9 -60 19 -61 20 -2 1 8 22 22 47 14 24 26 51 26 60 0 10
4 17 9 17 5 0 11 9 14 20 5 21 31 27 42 9z"/>
<path d="M8263 9975 c3 -30 1 -57 -4 -60 -24 -15 -7 -27 30 -21 28 4 42 2 48
-7 21 -33 93 -54 93 -26 0 5 5 9 10 9 6 0 10 -11 10 -25 0 -21 5 -25 29 -25
39 0 47 32 20 87 -26 54 -74 89 -145 108 -96 25 -98 24 -91 -40z"/>
<path d="M6214 9992 c10 -16 -33 -70 -71 -88 -21 -11 -37 -25 -35 -33 1 -7 -2
-19 -8 -26 -13 -16 -7 -100 10 -120 7 -8 20 -15 30 -15 11 0 20 -10 24 -25 4
-14 11 -23 16 -20 5 3 7 12 4 19 -3 8 -1 17 4 20 5 3 8 31 6 62 -4 50 -1 60
20 81 14 13 22 31 19 39 -3 8 0 21 7 29 9 10 9 15 1 15 -6 0 -11 16 -11 35 0
19 -5 35 -11 35 -5 0 -8 -4 -5 -8z"/>
<path d="M7423 6850 c-80 -5 -88 -22 -18 -34 22 -4 54 -14 71 -22 17 -8 48
-14 70 -13 21 1 91 -1 154 -5 133 -7 177 -2 159 20 -8 10 -22 12 -44 8 -18 -3
-53 1 -81 10 -27 8 -80 17 -119 20 -72 5 -92 8 -110 16 -5 3 -42 3 -82 0z"/>
<path d="M3644 4689 c-3 -5 -40 -6 -83 -2 -64 5 -85 2 -112 -12 -20 -10 -66
-19 -114 -22 -44 -3 -89 -10 -100 -16 -41 -21 -211 -79 -244 -83 -56 -6 -105
-25 -127 -50 -12 -13 -30 -24 -42 -24 -11 0 -33 -7 -48 -15 -16 -8 -37 -15
-46 -15 -11 0 -21 -13 -29 -38 -9 -33 -8 -42 11 -74 17 -29 29 -38 60 -43 22
-4 49 -3 62 1 39 12 121 54 157 79 19 14 42 25 52 25 27 0 127 49 133 66 4 9
21 14 51 14 25 0 58 6 73 14 15 8 46 17 67 21 22 4 72 17 110 30 39 13 84 27
102 30 20 4 30 11 27 19 -3 8 8 18 26 26 26 11 40 10 98 -9 37 -11 90 -21 118
-21 38 0 75 -11 150 -44 119 -53 144 -61 144 -47 0 6 -4 11 -9 11 -5 0 -31 17
-58 38 -67 53 -132 85 -248 121 -94 30 -170 38 -181 20z"/>
<path d="M3656 4315 c-4 -11 -27 -14 -113 -13 -162 1 -273 -3 -323 -13 -52
-11 -151 -60 -196 -98 -132 -110 -129 -106 -109 -144 8 -16 12 -52 11 -94 -3
-67 -2 -68 36 -104 30 -29 49 -38 91 -43 28 -3 75 -14 102 -24 45 -16 60 -17
145 -6 52 6 112 19 132 28 21 9 51 16 67 16 16 0 104 18 195 40 91 22 171 40
179 40 8 0 20 6 27 14 6 8 21 16 33 18 14 2 30 18 43 44 l22 42 -25 36 c-21
29 -24 38 -14 50 7 8 9 21 5 28 -10 16 -45 43 -59 44 -19 2 -60 23 -85 44 -14
12 -18 20 -10 17 10 -3 16 2 17 12 2 18 -52 47 -105 57 -18 4 -35 11 -38 15
-8 14 -21 11 -28 -6z m-297 -218 c1 -28 6 -58 12 -68 5 -10 9 -27 9 -39 0 -20
-3 -20 -162 -17 -97 2 -163 8 -165 14 -6 17 121 121 173 142 27 10 67 19 90
19 l41 0 2 -51z"/>
<path d="M1977 3570 c-15 -12 -24 -27 -21 -35 4 -8 -1 -18 -10 -21 -29 -11
-55 -69 -49 -111 3 -22 -2 -62 -11 -93 l-16 -55 26 30 c61 69 93 131 108 215
9 45 16 84 16 86 0 10 -19 2 -43 -16z"/>
<path d="M2628 2948 c-19 -15 -40 -21 -67 -20 -46 2 -156 -21 -192 -40 -51
-28 -52 -28 -23 -55 29 -27 20 -45 -19 -35 -13 3 -18 1 -13 -6 5 -8 -2 -10
-24 -6 -25 5 -30 3 -30 -12 0 -26 12 -41 34 -45 17 -4 17 -5 -5 -16 -13 -6
-36 -14 -51 -17 -21 -5 -28 -12 -28 -30 0 -19 -4 -23 -20 -19 -11 3 -26 15
-32 27 -14 25 -34 46 -45 46 -4 0 -41 32 -80 70 -40 39 -76 70 -81 70 -5 0
-30 20 -57 45 -27 24 -51 42 -53 40 -3 -2 9 -26 26 -52 46 -74 58 -112 55
-178 -4 -82 -7 -96 -25 -109 -14 -10 -13 -15 9 -36 17 -17 27 -20 32 -12 5 9
12 4 21 -13 7 -13 21 -27 32 -31 10 -3 18 -9 18 -14 0 -5 7 -7 15 -4 13 5 13
9 3 22 -11 13 -10 15 5 9 22 -8 70 10 62 23 -3 5 1 10 9 10 9 0 16 8 16 18 0
10 16 24 40 35 36 17 43 17 92 3 107 -31 188 -7 188 56 -1 43 -21 111 -40 135
-18 23 -18 26 -3 41 26 26 113 33 205 18 25 -5 64 -5 85 -1 36 7 37 8 16 18
-14 6 -23 19 -23 33 0 27 -10 54 -19 53 -3 0 -18 -10 -33 -21z"/>
</g>
</svg>
