<?xml version="1.0" standalone="no"?>
<!DOCTYPE svg PUBLIC "-//W3C//DTD SVG 20010904//EN"
 "http://www.w3.org/TR/2001/REC-SVG-20010904/DTD/svg10.dtd">
<svg version="1.0" xmlns="http://www.w3.org/2000/svg"
 width="256.000000pt" height="256.000000pt" viewBox="0 0 256.000000 256.000000"
 preserveAspectRatio="xMidYMid meet">
<metadata>
Created by potrace 1.15, written by Peter Selinger 2001-2017
</metadata>
<g transform="translate(0.000000,256.000000) scale(0.100000,-0.100000)"
fill="#000000" stroke="none">
<path d="M936 2515 c-16 -8 -43 -28 -62 -44 -29 -26 -40 -29 -102 -30 -83 -1
-141 -21 -170 -60 -14 -19 -33 -30 -59 -34 -21 -4 -71 -22 -111 -42 -80 -38
-168 -54 -198 -37 -18 11 -17 12 6 13 17 1 11 4 -19 11 -37 8 -48 7 -70 -10
-14 -10 -52 -22 -83 -26 -32 -4 -60 -12 -64 -17 -3 -6 16 -7 50 -3 31 4 56 3
56 -2 0 -5 3 -20 7 -33 6 -24 6 -24 -53 -17 -56 6 -60 5 -60 -14 0 -16 7 -20
31 -20 l30 -1 -32 -14 -33 -14 0 -341 c0 -287 2 -341 14 -346 8 -3 12 -12 9
-20 -3 -8 -9 -11 -14 -8 -5 3 -9 -62 -9 -153 1 -112 4 -153 11 -140 9 16 13
14 50 -15 43 -34 46 -43 23 -73 -14 -18 -16 -18 -24 -4 -5 9 -22 24 -37 34
-26 16 -25 15 6 -18 l35 -37 -32 -61 c-21 -40 -32 -76 -32 -102 l0 -41 39 38
c30 29 41 35 47 24 5 -7 20 -13 33 -13 38 0 48 -27 24 -61 -12 -16 -26 -47
-32 -68 -14 -54 2 -84 64 -115 l50 -25 265 67 c146 37 269 67 273 67 4 0 -11
-27 -34 -61 -22 -33 -54 -88 -71 -122 -17 -34 -41 -75 -54 -90 -13 -16 -24
-41 -24 -56 0 -15 -9 -53 -20 -84 -23 -66 -70 -253 -70 -279 0 -16 13 -18 133
-18 l134 0 12 98 c7 53 19 144 27 202 9 58 17 159 19 225 1 66 6 133 10 148 7
28 8 27 29 -25 49 -121 158 -232 294 -302 30 -16 32 -16 32 1 0 11 -21 31 -56
52 -114 68 -224 191 -258 289 -14 40 -14 47 5 97 l20 54 -50 66 c-46 60 -91
167 -91 217 0 8 -7 36 -16 62 -13 37 -19 44 -29 36 -21 -18 -55 5 -55 36 0 24
-26 70 -57 102 -8 8 -20 27 -29 43 -14 27 -13 32 5 57 10 15 36 43 56 62 53
51 88 105 119 187 15 40 37 87 50 105 l22 33 167 0 c92 0 167 3 167 7 0 3 9 4
20 1 15 -4 20 0 20 13 0 17 10 19 118 21 64 2 144 0 176 -5 58 -7 60 -8 97
-62 33 -47 56 -100 63 -147 1 -7 5 -16 9 -19 4 -4 7 -17 7 -29 0 -12 8 -53 19
-93 10 -39 16 -74 13 -76 -11 -12 29 -17 43 -6 10 9 15 9 15 1 0 -6 5 -11 11
-11 5 0 8 4 5 9 -4 5 -2 11 2 13 4 1 24 26 42 53 37 53 49 47 32 -17 -6 -25
-14 -32 -28 -30 -16 2 -16 1 -4 -7 8 -6 11 -11 5 -11 -5 0 1 -7 13 -16 12 -8
22 -21 22 -27 0 -7 -6 -3 -12 7 -10 18 -12 17 -29 -15 -10 -19 -18 -42 -19
-51 0 -10 -5 -18 -10 -18 -6 0 -18 -16 -27 -35 -9 -19 -22 -35 -28 -35 -16 0
-17 -12 -17 -203 0 -152 1 -170 18 -183 11 -9 13 -12 5 -8 -9 5 -12 3 -7 -4 4
-7 2 -12 -5 -12 -7 0 -10 -3 -7 -6 10 -10 49 16 42 28 -4 6 11 1 32 -11 56
-32 77 -80 30 -72 -5 1 -13 -4 -17 -11 -7 -11 -9 -11 -9 0 0 7 -4 11 -9 7 -5
-3 -13 0 -17 6 -4 8 -3 9 4 5 7 -4 12 -2 12 3 0 6 -6 11 -12 11 -9 0 -10 2 -2
8 7 4 8 15 3 27 -7 18 -8 18 -8 2 -1 -10 -5 -16 -10 -13 -11 7 -1 -31 14 -55
12 -18 76 -49 102 -49 10 0 25 -6 32 -12 11 -11 13 -10 8 5 -4 9 -2 17 3 17 5
0 11 -10 13 -22 3 -16 5 -13 6 10 0 20 -3 31 -9 27 -6 -3 -10 -1 -10 4 0 6 8
11 18 12 14 0 14 2 2 7 -22 10 -22 28 0 28 10 0 16 -4 14 -8 -3 -4 0 -8 6 -8
7 0 8 -6 0 -19 -13 -24 -13 -71 -1 -71 5 0 9 14 9 30 -1 36 8 48 25 31 7 -7 8
-14 2 -19 -17 -12 -16 -39 2 -46 14 -6 15 -5 6 5 -8 8 -9 18 -2 31 10 18 11
18 39 1 17 -9 30 -20 30 -24 0 -10 88 -52 98 -45 5 3 12 19 16 36 6 34 21 52
49 63 9 3 17 15 17 26 0 11 6 22 12 24 10 4 10 6 1 6 -9 1 -13 18 -13 51 0 42
2 49 18 44 10 -4 13 -2 7 3 -5 4 -18 28 -27 53 -9 25 -22 59 -29 77 -11 28
-11 35 4 51 13 14 16 28 11 48 -6 24 -8 25 -14 10 -6 -17 -7 -17 -23 -1 -10 9
-23 14 -30 12 -9 -4 -9 -6 1 -6 6 -1 13 -13 13 -28 1 -17 3 -21 6 -10 5 21 20
23 20 2 0 -8 -5 -15 -11 -15 -6 0 -5 -4 3 -9 7 -5 9 -11 4 -14 -6 -4 -16 5
-23 18 -7 14 -17 25 -22 25 -4 0 -8 14 -8 30 0 17 -5 30 -11 30 -6 0 -8 -9 -4
-21 5 -15 4 -19 -5 -14 -7 4 -9 17 -5 32 3 14 2 30 -3 36 -15 18 4 54 35 71
35 17 65 67 45 73 -6 3 -10 9 -6 14 3 5 1 8 -4 7 -14 -4 -104 111 -131 170
l-24 51 33 28 c67 57 109 56 229 -6 105 -54 156 -66 225 -56 l46 7 0 119 c0
115 -1 119 -21 119 -18 0 -19 2 -9 15 10 12 9 15 -8 15 -42 0 -51 9 -41 43 11
39 11 46 1 29 -5 -6 -23 -23 -42 -37 -19 -14 -29 -25 -23 -25 6 0 13 -8 15
-18 4 -14 -1 -18 -28 -19 -23 0 -34 4 -34 14 0 8 4 12 8 9 5 -3 8 29 8 70 -1
67 -3 74 -21 74 -11 0 -38 -16 -59 -35 -42 -37 -96 -48 -96 -21 0 8 -4 18 -10
21 -14 9 -50 -13 -45 -28 10 -27 -20 -44 -83 -46 -19 -1 -21 -5 -16 -26 8 -32
-13 -34 -26 -2 l-9 22 0 -22 c-1 -26 -19 -39 -33 -25 -7 7 -7 20 0 42 10 26 9
32 -6 36 -35 11 -47 22 -57 50 -14 40 -45 35 -45 -8 0 -24 3 -29 16 -24 14 5
15 4 5 -8 -7 -8 -19 -12 -27 -9 -9 3 -37 6 -62 7 -40 1 -47 4 -50 22 -4 27 20
47 58 48 33 1 42 26 10 26 -11 0 -20 -4 -20 -9 0 -6 -9 -9 -20 -8 -23 1 -25 8
-8 25 23 23 98 12 98 -14 0 -9 9 -13 25 -12 35 3 31 11 -15 32 -35 15 -40 22
-40 50 0 40 -11 50 -67 65 -23 6 -45 16 -48 21 -3 5 -12 7 -20 3 -9 -3 -15 1
-15 8 0 12 -2 12 -9 1 -11 -18 -56 -11 -56 8 0 20 51 26 73 9 9 -7 5 0 -10 16
-21 23 -24 34 -17 48 7 11 7 17 -1 17 -5 0 -10 -5 -10 -11 0 -6 -23 11 -50 37
-28 27 -57 52 -65 57 -8 4 -15 14 -15 22 0 8 -5 17 -11 21 -7 4 -9 -2 -7 -17
2 -16 -2 -24 -12 -24 -10 0 -14 10 -14 31 1 29 -4 34 -55 58 -98 45 -174 67
-246 71 -38 3 -106 7 -150 10 -61 4 -87 2 -109 -10z"/>
<path d="M793 1519 c-44 -13 -42 -26 2 -21 56 7 285 -96 285 -127 0 -11 -5 -9
-20 7 -51 54 -160 77 -223 47 -21 -9 -37 -21 -37 -26 0 -13 42 -10 70 5 22 13
25 12 35 -8 15 -29 59 -33 78 -6 14 21 15 20 55 -13 23 -19 38 -38 34 -42 -4
-5 -1 -5 6 -1 7 4 10 11 7 16 -3 4 1 10 7 13 10 3 10 9 0 28 -9 17 -52 44
-128 82 -121 60 -121 60 -171 46z"/>
<path d="M1667 1203 c-4 -7 -18 -82 -22 -118 -1 -5 3 -16 8 -23 7 -9 6 -17 -3
-25 -10 -10 -12 -9 -7 6 4 9 2 17 -3 17 -4 0 -11 -13 -15 -30 -3 -16 -16 -48
-27 -72 -15 -31 -20 -59 -19 -103 1 -33 3 -83 4 -112 0 -28 5 -49 9 -47 5 3 6
9 3 14 -3 4 2 10 9 13 8 3 17 1 19 -6 2 -7 8 -9 12 -4 5 4 0 13 -10 21 -12 9
-15 15 -6 20 8 5 8 13 0 29 -7 12 -8 19 -4 15 4 -4 16 -3 26 2 12 7 19 6 23
-3 4 -6 4 -2 2 11 -3 15 2 26 16 33 12 7 16 14 10 18 -20 12 -31 196 -17 304
6 44 3 58 -8 40z"/>
</g>
</svg>
