<svg xmlns="http://www.w3.org/2000/svg" viewBox="0 0 614.99 602.48"><title>skin</title><g id="Capa_9" data-name="Capa 9"><rect x="0.5" y="0.5" width="613.99" height="601.48" style="fill:none;stroke:#211915;stroke-miterlimit:10"/></g><g id="Capa_8" data-name="Capa 8"><path d="M108.75,348.91c-.46-3.4-1.3-9.07-2-14.76-.41-3.56-1.72-7.6-.65-10.66,10.11-29,21.13-57.68,47.47-75.06,6.35-4.2,13.91-6.33,22.82-10.25l-6.6-1.75c-.32-.63-.65-1.26-1-1.89,5.19-2.73,10.36-7.66,15.57-7.71,10.83-.1,22.7,0,32.19,4.6,6.76,3.26,10.3,13.95,15.31,21.3,2.08,3.06,4.63,5.85,6.25,9.16,1.21,2.46,2.48,6.06,1.65,8.29-3.18,8.48.38,15.54,2.46,23.27,2.49,9.23,3.25,19,5.45,28.31.63,2.64,4.06,4.39,5.47,7A15.39,15.39,0,0,1,255,336.3c-.32,8-1.11,16-.27,24.29l4-9.54c5.07,8.83-6.26,14-1.15,21.29l-2.63.23c-1.05-3.06-2.09-6.12-3.33-9.75-1.91,5-3.56,9.4-5.41,14.31-20.43-1.66-31.68,12.8-42.8,27.83-2.33,3.14-7.24,4.31-9.16,7.57-7.61,13-13.72,27-21.89,39.5-7.66,11.74-16.2,23.32-26.29,32.61a65.87,65.87,0,0,1-27.48,14.58c-12.76,3.29-22.22,11.37-32.1,19.07-6.3,4.91-12.67,4.05-19.15,2.45-5.31-1.31-8.08-5.64-6.87-11.46a187.47,187.47,0,0,1,5.63-20.95c5.46-16.23,7.57-32.51,5-49.78-2.46-16.39.31-32.72,5.75-48.2,3.37-9.6,7.2-19.46,12.93-27.52C93.86,357,101.46,354,108.75,348.91Zm45.68-33.61c-4,7.24-1.86,18.17,5,25.46,3.47,11,14.34,16.43,27.73,13.86,12.71-2.43,24.16-16.62,23.49-29l-15,8.56,6.21,4.56c-8.3,11.82-21,17.4-31.66,11.34-4-2.31-7.32-6.06-10.94-9.16-.34-1.48-1-3-.94-4.45.16-3.9.64-7.78,1-11.67l7.69.82c-2-10.25-2.39-10.47-12.26-6.62-.18-1.3-.36-2.58-.55-3.88l8-9.12c2.13,3.72,3.51,6.11,4.85,8.44,3.72-6.39,3.07-8.61-3.25-10.56S154.52,305.6,154.43,315.3Zm-1-35.88-1.2-3.68,22.16.7c-9.62-8.8-21.48-2.76-31.9-5.26l-.63-2.22L161,259.25c5.47,7.46,8.84-1.47,13.3-1.94.32,0,.67.24,1.23.46-.26,1.57-.53,3.17-.89,5.31l14.91-4.46c-1.44-5.42-3-11.37-4.59-17.32l-1-.11c.06,4.35.12,8.7.18,13-35.87-7-62.67,28.36-60.75,58.51C128.64,295.67,132.76,279,153.48,279.42Zm17.62,44.9c3.49,9.25,9.33,10,15.32,9.23s10.14-9.18,10.21-19.78c.06-7.88-4.67-14.73-11.29-16.37,10.89,14.89,11.07,15.56,6.1,23.63l-5.47-2.9-.27,8.65-5.59-3.25-1.54,6.85Zm32-23.18c-2,6.51,9,13.3-1.59,20.23l10.67.34C215.88,311.61,212.35,304.94,203.12,301.14Zm6.69-14.76,17,2.5.69-3-9.81-6.74Zm-13.76-49.83,19.09,11.86C211.49,239,205.51,235.66,196.05,236.55Z" transform="translate(0.5 0.5)" style="fill:#c4c4c4"/><path d="M293,24.11a155.92,155.92,0,0,0-16.13-1.77c-8.16-.19-16.95,2.46-24.36.18-11.68-3.61-22.79,1.87-34.62-.77-1.14-.26-2.28-.5-3.41-.74-.41,1.69-1.3,4.74-2.85,9.7C207,45.37,208.22,57.19,208.36,63c.35,14.07,6.49,23,10.49,36.29,4.13,13.67,21.1,39.45,20.81,38.89-.58-1.12,5.18,7.88,5.48,7.54.6-.69,8.07-5.19,5.81-12.54-.1-.35-4.5-3.67-4.69-4-2-3.39-4.71-6.43-6.6-10-1.1-2.1-5.26-13.57-4.45-14.73,4-5.65,3.53-4.18,8.1-9.38,4.23-4.82,9.42-9,12.75-14.35,2.39-3.84,3.68-7.11,8.91-7.77,5.5-.7,10.83-2.82,16.7-4.53.36-.1,5.27-5.13,5.25-5.51-.62-12.39-.16-20.62-6.78-32.37a.83.83,0,0,1,.49-1.21l12.45-3.58A.83.83,0,0,0,293,24.11Z" transform="translate(0.5 0.5)" style="fill:#c4c4c4"/><path d="M233.81,136.62C219.33,112.24,218.87,116.5,208.08,79c-1.71-5.95-3.88-38.3.5-47,1.39-2.77,3.77-8.4,5.12-11.14-6.49-1.38-12.81-2.79-18.53-6.23-4.7-2.83-8.89-5.63-14.53-2.77-5.38,2.74-6.73,7.6-6.21,12.9s-2.69,6.79-6.56,7.4c-2.93.46-6,.15-9.42.11a.8.8,0,0,0-.82.69c-.44,2.83-.92,6-1.4,9.14a.84.84,0,0,0,.64.94l2,.43a.83.83,0,0,0,1-.81V39.14a.82.82,0,0,1,.93-.82l.27,0a.82.82,0,0,1,.7.94c-.92,7.68,5.92,16.19-1.64,23.7a.82.82,0,0,1-1.06.08c-7.4-5.34-4.2-11.85-3-18a.82.82,0,0,0-1.25-.85c-2.7,1.85-5.86.17-8.91-.07-2.76-.22-6.27-.87-8.24.48-7.92,5.41-15.35,11.55-23,17.38-5.66,4.33-7.4,14.64-4.06,21.66a.83.83,0,0,0,1.56-.26v0a.83.83,0,0,1,1.3-.56c8.13,5.73,8.75,7.81,4,14.8a.83.83,0,0,1-1.46-.17c-.7-1.9-1.4-3.79-2.11-5.69a.82.82,0,0,0-1.59.39c1.15,9.32,2.53,18.68-.91,27.74,0,6.24-.18,12.3-3.22,18.07a46.28,46.28,0,0,1-2.2,5.72c-4.69,10.82-9.67,21.52-13.89,32.52-3.47,9-6.13,18.4-9.45,28.75a.83.83,0,0,1-1.36.35c-4.33-4.29-13-2.44-11.08-11.8.08-.41-2.58-2.14-3.74-1.93-3.78.66-8.31.93-11,3.24-3.23,2.81-4.4,2.66-7.2-.19-4.63-4.73-18.5-4.39-21.45.65a157,157,0,0,0-10.56,21.61,219.57,219.57,0,0,0-9.36,28.41c-1.33,5.45-.72,11.49-.36,17.23.38,6.33,1.62,12.61,2.21,18.94.43,4.57-.21,9.33.72,13.78,5.08,24.36,10.71,48.61,15.66,73,1.48,7.25,4.29,12.46,12.67,14.41a.83.83,0,0,1,.13,1.58c-6.33,2.47-11.07,6.35-17.48,1.93a.82.82,0,0,0-1.28.53c-.42,2.4-1.1,4.6-.35,6.05s3.83,1.7,5.93,1.87c8.83.69,17.68,1.16,26.81,1.72a.81.81,0,0,0,.74-.37l2.76-4.25a.83.83,0,0,0-.57-1.27l-1.38-.2a.82.82,0,0,1-.5-1.36l8-9.15a.83.83,0,0,0-.73-1.37l-4.1.56a.82.82,0,0,1-.59-1.49c6.74-4.7,10.78-9.91,10.89-15.82.32-17.08-.52-34.17-.23-51.25.12-7.12-4.38-15.62,4.1-20.81a.83.83,0,0,0,.22-1.19c-.91-1.27-1.7-2.36-2.48-3.46l1.81.44a.82.82,0,0,0,.93-.45c1.39-2.87,2.87-5.71,4-8.67.56-1.4-.18-3.91.67-4.54,7.39-5.47,9-12.25,4.87-21.33a.83.83,0,0,1,.91-1.15l6,1.21c2.16-9.28,4.51-18.52,6.37-27.86.68-3.45,1.23-7.62-.09-10.58s-5-4.56-7.69-6.77l1.23.5a.82.82,0,0,0,1.09-.49c2.46-6.81,4.78-13.68,7.46-20.4a110.83,110.83,0,0,1,5.19-10.26.83.83,0,0,1,1.12-.34l.69.36a.83.83,0,0,1,.39,1l-.92,2.61a.83.83,0,0,0,1.35.87c8.35-8,17.42-16.9,26.88-25.38,12.65-11.33,27.29-17.39,44.35-13.41,6.69,1.56,12.92,3.92,16.81-1.16a.83.83,0,0,1,1.3,0c2.79,3.54,4.91,7.29,8.09,9.29,5,3.17,11.79,2.31,16.28,8.18,1.63,2.14,7,1.32,11.37,1.56a.82.82,0,0,0,.86-.9l12.25-7.75C242.42,148.5,234.33,137.48,233.81,136.62Zm-177.55,96a.83.83,0,0,1-1.11.71c-1.76-.66-4.34-1.64-6.94-2.52-1.71-.58-4.4-1.87-5.1-1.2-5.4,5.12-9.32.48-13.68-1.1a.81.81,0,0,1-.55-.67l-.2-1.62a.83.83,0,0,1,.7-.92c5.16-.74,10.31-1.65,15.49-2.12,7.12-.63,9.76-3.53,7.06-8.82a.83.83,0,0,1,.78-1.21l4.28.24a.82.82,0,0,1,.78.89C57.29,220.11,56.82,225.84,56.26,232.66Z" transform="translate(0.5 0.5)" style="fill:#c4c4c4"/><path d="M40.57,511.16c-2.74-10.45-5.88-19.33-7.25-28.41-1.66-10.95-3.25-22.17-2.11-33.06.78-7.45-5.05-11.15-6.93-16.64-3-8.84-3.17-18.41-4.52-27.67a2.92,2.92,0,0,1,.07-.83c.81-5,.3-13.63,2.69-14.27,6.39-1.71,14,0,21.17.38,2.25.12,4.49.41,6.74.63.27,2.9.54,5.81.9,9.57L57,393.43c5.79,7.14,2.07,14.2.49,20a135.09,135.09,0,0,0-2.91,59.77c1.86,10.83-4.79,22.77-7.84,34.15C46.53,508.35,44.36,508.92,40.57,511.16Z" transform="translate(0.5 0.5)" style="fill:#c4c4c4"/><path d="M129.65,175.48c9.15-3.24,17.79-4,22.75-8.66,5.89-5.54,10.68-2.84,16.76-1.18-2.45,1.06-5.36,1.59-7.26,3.26-9,7.92-17.62,16.29-26.69,24.13-1.79,1.54-3.69,5.76-8,1.5-1.52-1.52-6.88.82-10.88,1.46v-7.48l-4.56.62c-.5-8.12,1.37-14.93,7.7-20.46,9.41-8.23,19.12-15.43,30.72-20.92s20.69-2.16,30.77,1.35c1.47.52,2.87,1.24,6,2.59-2.75,1.15-4.42,2.33-6.18,2.51-8.12.83-16.74-.08-24.27,2.41C146.52,159.9,137.52,165.93,129.65,175.48Z" transform="translate(0.5 0.5)" style="fill:#c4c4c4"/><path d="M147.5,184.65c6.23-9.5,14.16-13.36,21.45-10.46C163.54,181.68,163.54,181.68,147.5,184.65Z" transform="translate(0.5 0.5)" style="fill:#c4c4c4"/><path d="M93.81,245.08,105,231.43c-.39,5.19.29,9.72-1.43,13-.79,1.49-6.31.48-9.7.61Z" transform="translate(0.5 0.5)" style="fill:#c4c4c4"/><path d="M152.81,193.28l-7.07,7.7-2-1c0-2.65-1-6.21.29-7.71s5-1.06,7.63-1.47Z" transform="translate(0.5 0.5)" style="fill:#c4c4c4"/></g></svg>