<?xml version="1.0" standalone="no"?>
<!DOCTYPE svg PUBLIC "-//W3C//DTD SVG 20010904//EN"
 "http://www.w3.org/TR/2001/REC-SVG-20010904/DTD/svg10.dtd">
<svg version="1.0" xmlns="http://www.w3.org/2000/svg"
 width="1200.000000pt" height="1500.000000pt" viewBox="0 0 1200.000000 1500.000000"
 preserveAspectRatio="xMidYMid meet">
<metadata>
Created by potrace 1.15, written by Peter Selinger 2001-2017
</metadata>
<g transform="translate(0.000000,1500.000000) scale(0.100000,-0.100000)"
fill="#000000" stroke="none">
<path d="M0 14937 c0 -37 5 -69 13 -76 9 -11 9 -14 0 -18 -18 -7 -18 -619 0
-627 9 -5 9 -7 0 -12 -17 -7 -19 -8044 -3 -8044 12 0 11 -98 -2 -106 -16 -10
-5 -89 17 -131 24 -44 23 -83 -1 -83 -20 0 -20 -159 1 -186 20 -27 18 -52 -5
-66 -26 -16 -26 -40 0 -56 11 -7 20 -18 19 -25 0 -9 -2 -9 -6 1 -2 6 -11 12
-19 12 -12 0 -14 -258 -14 -1834 l0 -1835 25 -19 c14 -11 25 -25 25 -30 0 -6
6 -15 14 -19 29 -18 38 -52 22 -85 -9 -17 -14 -34 -11 -36 3 -3 5 -3 5 1 0 3
12 -5 26 -18 14 -13 23 -28 20 -34 -3 -5 2 -17 11 -27 16 -16 18 -16 21 -2 4
20 32 32 32 14 0 -8 -7 -16 -15 -20 -8 -3 -15 -12 -15 -20 0 -23 34 -76 52
-82 10 -3 18 -11 18 -18 0 -7 15 -18 32 -24 30 -9 31 -10 8 -11 -14 -1 -35 5
-46 13 -15 11 -21 11 -22 3 -3 -28 -16 -72 -22 -77 -4 -3 -11 -18 -17 -35 -9
-27 -14 -31 -64 -36 -30 -3 -57 -1 -60 4 -4 6 -14 5 -25 -2 -14 -7 -15 -10 -5
-11 12 0 12 -3 3 -12 -17 -17 -16 -155 1 -161 9 -3 9 -9 -1 -29 -10 -17 -12
-49 -8 -109 2 -46 5 -94 6 -105 0 -12 9 -29 20 -39 11 -10 20 -26 20 -36 0
-26 49 -38 62 -15 5 9 19 16 32 16 19 0 22 4 19 23 -4 18 2 25 29 35 44 15 48
15 48 -3 0 -8 -4 -15 -10 -15 -5 0 -10 -6 -10 -14 0 -8 -4 -16 -9 -18 -5 -2
-6 -21 -2 -44 8 -40 7 -41 -20 -40 -24 1 -27 4 -22 25 4 17 2 22 -6 17 -6 -4
-11 -14 -11 -22 0 -15 -23 -17 -55 -5 -14 6 -29 2 -47 -11 l-27 -19 19 -32
c27 -44 25 -60 -10 -80 l-30 -18 0 -172 c0 -168 1 -173 22 -187 13 -8 27 -13
31 -12 14 4 20 -30 6 -39 -10 -6 -10 -9 -1 -9 6 0 12 -8 13 -17 0 -11 3 -13 6
-5 7 17 38 15 53 -3 7 -8 23 -15 36 -15 25 0 30 -17 15 -54 -13 -32 21 -56 79
-56 36 0 50 4 50 14 0 16 -29 25 -65 21 -39 -4 -29 17 26 55 42 28 61 35 100
35 27 0 49 4 49 8 0 5 5 5 10 2 6 -4 8 -15 5 -26 -11 -35 12 -20 30 20 16 37
19 39 62 38 34 0 43 -3 38 -14 -3 -8 -5 -17 -5 -19 0 -2 -6 -4 -14 -4 -8 0
-24 -12 -35 -27 -12 -14 -24 -23 -28 -20 -3 4 -12 -1 -19 -11 -8 -10 -13 -12
-14 -4 0 17 -30 15 -30 -2 0 -8 -13 -19 -30 -25 -33 -11 -42 -26 -10 -18 11 3
20 1 20 -3 0 -5 13 -5 29 0 22 6 31 5 35 -6 9 -23 88 -18 104 6 7 12 10 25 7
30 -3 5 3 14 13 19 14 7 18 18 15 35 -7 33 25 96 54 107 15 5 23 17 23 31 0
19 2 20 10 8 5 -8 10 -34 10 -58 0 -23 5 -51 12 -62 17 -27 -7 -71 -36 -65
-30 7 -56 -17 -49 -43 5 -20 12 -22 69 -22 51 0 68 4 84 20 25 25 59 26 76 3
12 -17 137 -18 2346 -21 1769 -2 2338 0 2355 9 16 9 26 9 36 1 19 -16 2327
-17 2327 -1 0 9 3 9 14 0 15 -12 176 -11 176 2 0 4 18 7 40 7 26 0 42 6 50 18
9 16 12 15 33 -10 l22 -26 153 0 c143 0 152 1 152 19 0 21 15 26 25 8 5 -7 15
-3 30 11 13 12 24 18 26 13 2 -5 23 -16 46 -25 46 -18 63 -10 63 29 0 33 25
28 40 -8 12 -29 16 -31 52 -25 30 5 38 3 38 -9 0 -10 10 -15 33 -15 30 1 31 2
13 15 -22 17 -12 39 12 27 27 -14 102 -15 102 -2 0 22 45 6 48 -17 5 -32 20
-29 24 5 2 17 8 26 17 24 8 -2 31 -5 50 -6 25 -2 39 -10 46 -25 l10 -21 1199
0 1200 0 22 21 23 21 -4 -23 c-4 -21 -3 -20 7 3 15 34 22 35 53 3 l25 -24 1
22 c0 21 1 21 9 2 7 -16 9 -12 9 18 1 21 -2 36 -6 34 -5 -3 -17 -1 -28 4 -18
7 -18 8 5 8 37 1 52 -13 48 -44 -2 -16 2 -30 10 -32 8 -3 12 6 12 27 0 17 7
38 15 46 8 9 15 11 15 5 0 -5 -5 -13 -10 -16 -6 -3 -10 -11 -10 -18 0 -8 3 -8
12 1 19 19 28 14 28 -14 l0 -26 20 23 c13 16 22 20 27 13 9 -13 53 -25 53 -15
0 4 -9 17 -20 29 l-21 22 26 10 c31 12 33 38 3 50 -18 7 -19 9 -5 9 22 1 21
10 -5 42 l-22 26 -18 -21 -19 -21 7 25 c4 14 12 28 18 32 7 5 4 8 -6 8 -23 0
-23 16 0 29 9 6 12 11 6 11 -15 0 -23 54 -12 75 7 11 3 17 -16 24 -44 17 -43
70 2 71 6 0 12 5 12 10 0 6 11 10 24 10 15 0 27 7 30 18 9 28 4 132 -6 132 -5
0 -4 9 2 19 7 13 7 22 0 26 -7 4 -6 13 1 27 10 19 9 20 -10 15 -23 -6 -28 12
-9 31 9 9 9 15 0 24 -17 17 -15 28 4 28 12 0 14 3 6 13 -6 6 -10 14 -11 17 0
19 -15 38 -26 34 -7 -3 -25 2 -40 12 -21 14 -26 24 -23 46 3 15 0 28 -4 28 -5
0 -2 7 7 17 14 13 18 14 25 2 6 -8 4 -16 -3 -21 -9 -5 -8 -11 4 -23 18 -18 82
-30 77 -14 -2 6 -8 11 -13 12 -23 2 -43 35 -47 75 -2 23 0 42 4 42 18 0 7 38
-13 46 -20 9 -21 11 -5 27 25 25 11 54 -37 77 l-42 19 32 1 c32 0 33 0 31 48
-1 26 -9 54 -17 62 -13 13 -14 10 -8 -23 5 -32 3 -38 -11 -35 -9 2 -17 12 -17
23 0 11 -5 19 -12 18 -6 -2 -15 7 -18 20 -4 12 -9 30 -12 41 -8 28 16 10 28
-21 8 -21 12 -23 24 -13 8 6 17 20 20 31 4 11 15 19 29 19 28 0 53 25 36 35
-25 15 -68 23 -78 13 -13 -13 -32 -2 -32 18 0 8 9 14 21 14 28 0 45 20 51 59
3 22 0 35 -9 38 -7 3 -13 12 -13 20 0 23 35 10 38 -15 2 -14 10 -22 23 -22 10
0 19 -6 20 -12 0 -7 5 0 9 16 10 31 5 50 -11 41 -5 -4 -9 -2 -9 4 0 5 -10 11
-22 13 -13 2 -24 11 -26 21 -3 16 1 18 27 12 27 -6 31 -4 31 15 0 18 -3 19
-21 9 -17 -9 -24 -7 -40 10 -23 24 -24 41 -4 41 14 0 14 4 0 31 -9 17 -14 33
-11 37 3 3 6 0 6 -6 0 -7 10 -12 21 -12 20 0 21 1 5 25 -31 47 -14 71 28 40
16 -12 17 -19 9 -38 -8 -17 -7 -27 2 -40 7 -9 14 -17 16 -17 9 0 9 89 -1 95
-16 10 -12 23 9 30 14 4 18 14 16 38 -2 18 -3 40 -4 50 -1 14 -6 17 -21 12
-18 -6 -19 -3 -13 27 3 18 10 34 15 36 4 2 8 13 8 24 0 16 -5 19 -24 16 -19
-4 -26 0 -30 16 -8 29 8 41 28 21 9 -9 23 -14 32 -11 13 5 14 18 8 78 -4 40
-10 75 -15 78 -4 3 -11 18 -14 33 -6 22 -4 26 8 21 19 -7 34 15 17 26 -8 5
-10 18 -5 38 3 18 2 33 -4 37 -6 3 -11 24 -11 46 0 29 -4 39 -16 39 -10 0 -13
6 -10 18 4 11 -1 25 -12 35 -13 12 -17 26 -14 47 5 37 10 37 45 4 23 -21 28
-22 33 -10 3 9 3 24 -2 34 -4 9 -9 34 -9 55 -1 21 -8 43 -16 48 -12 7 -11 9 2
9 13 0 16 10 14 48 -2 47 9 77 26 66 5 -3 9 7 9 23 0 20 -3 24 -9 14 -23 -36
-29 9 -28 224 0 124 4 228 8 231 4 2 6 35 3 72 -2 37 -6 114 -8 172 -2 64 -8
106 -15 108 -19 6 -12 22 14 32 27 10 33 28 11 36 -12 4 -12 14 1 61 8 30 12
71 10 92 -3 32 -6 36 -30 33 -21 -2 -27 1 -27 18 0 11 5 19 11 17 25 -5 19 23
-6 29 -19 5 -24 9 -15 18 8 8 13 7 20 -4 12 -20 17 -12 22 42 4 30 1 54 -7 65
-10 14 -11 38 -5 93 8 76 0 110 -29 110 -10 0 -10 -5 4 -26 19 -29 7 -54 -26
-54 -14 0 -19 7 -19 28 0 32 25 72 46 72 8 0 14 5 14 11 0 5 4 8 9 5 14 -9 34
55 21 68 -12 12 -13 59 -2 70 8 9 10 146 1 146 -9 0 -1 114 10 143 5 13 6 28
1 33 -4 5 -10 27 -12 49 -2 33 0 40 15 39 23 -2 22 4 -5 27 -16 12 -19 21 -12
26 26 19 34 185 10 213 -10 11 -12 30 -7 67 4 29 4 58 0 65 -4 6 -3 21 3 32 6
11 11 44 10 73 0 47 -4 57 -32 83 -21 19 -30 36 -26 46 3 9 6 19 7 22 1 4 5
-4 9 -18 7 -22 8 -20 9 14 1 22 7 44 16 50 9 6 17 23 19 37 1 13 5 30 9 36 5
7 -3 19 -18 29 -24 16 -25 18 -11 39 13 20 13 25 1 35 -13 10 -12 14 0 27 8 8
15 28 15 44 0 21 4 28 12 23 7 -4 2 7 -11 24 -20 29 -21 36 -11 67 6 19 17 35
23 35 7 0 5 5 -4 10 -12 7 -17 26 -18 71 -1 34 -4 65 -7 70 -3 5 4 9 15 9 27
0 27 20 1 27 -22 6 -28 33 -7 33 16 0 20 66 6 93 -7 12 -6 22 6 33 17 17 21
54 5 54 -6 0 -10 35 -10 84 0 47 5 88 10 91 15 9 12 41 -5 55 -20 17 -19 43 4
71 18 23 18 24 1 57 -13 24 -16 41 -10 57 5 12 6 56 3 96 -4 53 -1 87 10 119
9 24 13 49 8 55 -4 5 -8 32 -9 60 -1 27 -6 51 -12 53 -6 2 -6 11 1 24 6 11 12
47 14 79 3 57 3 60 -18 54 -14 -4 -17 -3 -9 2 7 5 13 33 13 66 1 32 5 60 9 62
4 3 4 21 0 42 -6 24 -4 50 5 77 17 53 8 193 -15 221 -10 13 -9 15 8 15 15 0
19 5 15 19 -3 10 0 28 6 40 10 17 9 21 -3 21 -12 0 -14 12 -11 61 2 33 9 66
15 74 8 10 6 21 -10 47 -11 18 -20 45 -20 59 0 34 -29 59 -55 49 -35 -15 -92
-11 -114 8 -18 14 -23 31 -27 87 -5 83 -10 128 -18 175 -3 19 -11 82 -16 140
-6 58 -12 121 -15 140 -2 19 -6 79 -9 133 -3 53 -8 102 -12 108 -4 6 -8 44
-10 83 -2 39 -6 98 -9 131 -14 144 -25 247 -37 340 -7 55 -13 156 -13 225 l0
125 25 -3 c44 -5 61 -33 70 -115 5 -42 14 -95 20 -119 7 -23 12 -58 12 -76 0
-32 1 -33 17 -17 12 13 13 19 4 22 -7 3 -13 18 -13 34 0 40 17 29 41 -28 22
-52 19 -62 -16 -55 -18 3 -25 0 -25 -12 0 -9 7 -16 15 -16 8 0 15 -5 15 -11 0
-6 6 -16 13 -24 8 -8 12 -26 9 -44 -4 -26 -8 -30 -24 -25 -18 5 -19 2 -13 -73
4 -43 11 -94 16 -113 5 -19 9 -55 10 -80 1 -56 11 -92 24 -88 14 4 13 54 -2
107 -16 56 -17 181 -2 181 7 0 9 -10 7 -25 -7 -34 8 -41 24 -13 12 23 12 23
18 -7 4 -16 3 -35 -2 -41 -5 -6 -6 -19 -2 -28 4 -10 0 -18 -10 -22 -21 -8 -20
-21 4 -51 25 -32 25 -43 0 -43 -12 0 -20 -7 -20 -16 0 -13 3 -14 15 -4 15 13
15 14 30 -35 2 -8 0 -17 -5 -20 -6 -4 -6 -15 2 -28 10 -19 19 -73 21 -129 1
-10 5 -18 9 -18 14 0 9 -128 -5 -142 -15 -14 -11 -42 4 -32 5 3 9 -6 9 -20 0
-13 -6 -27 -12 -30 -7 -4 -2 -4 12 -1 14 2 33 5 43 5 9 0 17 5 17 10 0 6 -7
10 -16 10 -11 0 -14 6 -9 20 5 15 2 20 -12 20 -11 0 -14 3 -6 8 13 8 21 87 10
98 -14 14 -7 43 14 58 l21 14 -21 14 c-21 13 -20 13 6 34 27 21 27 21 5 28
-22 7 -30 40 -12 51 10 6 6 67 -5 85 -3 5 1 20 10 33 10 16 14 42 11 85 -2 47
0 62 10 62 9 0 14 11 14 30 0 19 -5 30 -14 30 -17 0 -29 31 -20 53 3 9 2 22
-2 29 -7 10 -8 40 -5 78 1 6 9 10 19 10 14 0 18 7 17 28 -1 15 -4 32 -5 37 -2
6 0 18 5 28 4 9 4 30 1 45 -4 15 -7 33 -6 40 1 29 0 51 -9 122 -5 41 -5 96 -1
122 4 26 5 50 3 52 -11 11 -8 127 3 137 13 10 16 65 6 84 -10 17 -12 115 -3
115 15 0 13 1080 -1 1098 -8 10 -9 15 -1 20 7 5 11 72 12 200 0 159 -2 197
-14 209 -19 19 -19 47 0 67 13 13 15 47 14 218 -2 132 -6 205 -13 210 -8 5 -7
11 2 20 15 15 16 132 1 160 -8 15 -8 22 0 27 15 10 12 171 -3 171 -7 0 -7 3 1
8 7 4 11 36 11 80 0 62 -2 71 -14 61 -19 -16 -18 5 1 25 10 9 13 27 11 48 -3
18 -5 33 -6 33 -9 0 -7 51 2 56 11 7 11 12 0 29 -7 11 -9 26 -5 33 13 20 12
171 -1 179 -8 6 -8 8 2 8 7 0 12 15 12 40 0 23 -5 40 -11 40 -8 0 -8 4 0 14
10 12 9 20 -4 40 -14 21 -15 26 -3 26 11 0 15 17 16 69 1 39 -2 73 -8 76 -6 4
-7 11 -3 18 12 19 13 230 1 245 -8 9 -8 16 0 24 15 15 16 83 1 109 -7 15 -7
24 1 34 16 20 11 244 -6 270 -18 25 -18 35 1 35 18 0 21 50 3 68 -9 9 -9 15 0
24 15 15 16 98 1 98 -8 0 -8 4 0 14 14 17 13 146 -1 164 -7 8 -7 12 1 12 15 0
13 212 -3 222 -8 6 -7 8 2 8 7 0 12 14 12 35 l0 35 -1595 0 c-877 0 -1601 -3
-1610 -6 -8 -3 -15 -12 -15 -20 0 -9 -11 -14 -30 -14 -23 0 -30 4 -30 20 0 29
-21 25 -53 -10 -16 -16 -33 -30 -38 -30 -4 0 -6 14 -2 30 5 28 4 30 -26 30
-25 0 -31 -4 -32 -22 -1 -22 -1 -22 -8 2 -6 23 -8 23 -14 6 -4 -10 -6 -20 -5
-21 2 -1 13 -8 26 -14 15 -8 22 -20 20 -33 -4 -25 -28 -37 -28 -14 0 10 -9 16
-24 16 -20 0 -25 6 -31 40 -6 38 -9 40 -42 40 -38 0 -43 -23 -5 -28 40 -6 26
-32 -18 -32 -46 0 -51 -14 -20 -48 l21 -22 -21 -17 c-27 -23 -25 -41 5 -65 14
-11 25 -26 25 -34 0 -8 7 -14 15 -14 10 0 15 -10 15 -30 0 -28 -2 -30 -39 -30
-22 0 -41 5 -43 12 -4 10 -11 10 -34 -2 -16 -7 -40 -14 -54 -14 -20 -1 -26 -7
-28 -28 -2 -20 -9 -28 -23 -28 -10 0 -19 5 -19 10 0 6 -8 10 -17 10 -20 0 -63
-41 -63 -59 0 -7 -28 -11 -80 -11 -67 0 -80 3 -80 16 0 11 -5 14 -16 10 -9 -3
-18 -6 -20 -6 -11 0 -2 -29 13 -41 13 -11 17 -11 20 -1 6 15 55 16 71 0 9 -9
12 -9 12 0 0 7 5 12 10 12 6 0 10 -13 10 -30 0 -23 4 -30 20 -30 11 0 20 -4
20 -10 0 -5 -15 -10 -34 -10 -19 0 -38 -4 -41 -10 -9 -15 -41 -12 -55 5 -7 8
-20 15 -29 14 -12 0 -11 -2 4 -9 18 -7 19 -8 2 -15 -9 -4 -29 -5 -42 -3 -30 6
-32 -8 -4 -42 l20 -25 16 23 c12 17 25 22 58 22 40 0 43 -2 49 -31 3 -17 5
-46 5 -63 -1 -23 -3 -25 -6 -8 -5 25 -8 26 -52 11 -20 -7 -31 -18 -31 -30 0
-12 -7 -19 -20 -19 -11 0 -20 -4 -20 -10 0 -5 -9 -10 -20 -10 -16 0 -20 7 -20
30 0 28 2 30 40 30 33 0 40 3 40 20 0 17 -7 20 -40 20 -38 0 -40 2 -40 30 0
17 -4 30 -9 30 -13 0 -25 -83 -17 -115 5 -20 3 -25 -12 -25 -17 0 -18 6 -14
48 l4 48 -56 1 c-42 1 -56 -2 -56 -13 0 -8 9 -14 20 -14 11 0 20 -4 20 -9 0
-5 9 -13 20 -16 11 -3 20 -13 20 -22 0 -8 -6 -13 -12 -10 -21 7 -48 -12 -48
-33 0 -11 -5 -20 -11 -20 -6 0 -9 -6 -6 -13 4 -10 -2 -13 -19 -9 -23 4 -23 5
-7 18 17 13 17 15 -1 28 -10 8 -15 19 -11 25 3 6 1 11 -5 11 -7 0 -9 7 -6 16
11 28 -13 44 -65 44 -27 0 -49 2 -49 4 0 25 23 56 41 56 13 0 23 8 26 21 4 16
8 17 14 7 7 -10 9 -10 9 0 0 6 7 12 15 12 19 0 19 14 1 29 -12 10 -20 9 -40
-4 -17 -12 -30 -14 -43 -7 -13 7 -27 5 -50 -8 -32 -17 -32 -17 -12 -37 21 -21
17 -53 -7 -53 -10 0 -14 -12 -14 -39 l0 -38 -52 3 -53 3 45 -9 c25 -4 55 -11
66 -15 12 -4 25 -2 28 4 11 17 26 13 26 -6 0 -10 7 -27 15 -37 14 -18 13 -21
-16 -33 -17 -7 -28 -17 -24 -23 4 -6 -6 -10 -25 -10 -24 0 -33 -6 -40 -26 -7
-18 -15 -24 -26 -20 -9 3 -18 6 -20 6 -2 0 -4 18 -4 40 0 33 -3 40 -20 40 -15
0 -21 -9 -26 -41 -7 -39 -26 -69 -45 -69 -5 0 -9 7 -9 15 0 14 -19 17 -87 15
-5 0 -8 -13 -8 -28 0 -21 -4 -27 -20 -25 -11 1 -24 -5 -29 -14 -7 -12 -10 -13
-17 -2 -6 10 -11 6 -18 -14 -12 -32 -31 -35 -38 -7 -3 10 -16 26 -30 35 -19
13 -22 19 -13 31 7 7 16 11 22 8 5 -3 15 0 23 6 11 9 18 10 29 1 7 -6 21 -9
30 -5 28 11 6 24 -40 24 -27 0 -44 5 -44 12 0 6 -7 4 -18 -5 -23 -21 -62 -22
-62 -2 0 19 -16 20 -27 2 -4 -8 -16 -17 -26 -20 -11 -4 -21 -16 -24 -27 -4
-16 -14 -20 -44 -20 -36 0 -39 2 -39 29 0 18 -6 31 -17 36 -17 6 -17 7 0 19
24 18 21 36 -5 36 -32 0 -51 -15 -55 -41 -5 -31 -10 -34 -28 -19 -21 17 -48
-5 -42 -34 3 -12 1 -30 -3 -41 -5 -11 -9 -15 -9 -8 -1 7 -20 14 -43 16 l-43 4
43 1 c38 2 42 5 42 27 0 25 -1 25 -80 25 l-80 0 0 -29 c0 -24 3 -28 20 -24 26
7 26 -18 0 -37 -11 -8 -20 -26 -20 -41 0 -15 -5 -29 -12 -31 -6 -2 3 -10 21
-18 30 -12 34 -11 43 3 11 21 94 24 101 5 3 -7 6 0 6 15 1 25 3 27 22 17 20
-11 20 -12 3 -25 -15 -11 -16 -15 -5 -28 7 -9 10 -21 6 -27 -10 -16 -25 -12
-26 8 0 13 -3 12 -11 -5 -15 -32 -28 -29 -28 7 0 20 -5 30 -15 30 -23 0 -29
-27 -11 -45 20 -20 20 -25 1 -25 -8 0 -15 6 -15 14 0 13 -20 26 -39 26 -4 0
-13 -12 -19 -26 -10 -21 -14 -23 -25 -12 -25 26 -40 77 -27 93 17 21 3 35 -31
31 -32 -3 -55 -26 -38 -37 6 -3 -6 -20 -25 -37 -31 -27 -39 -29 -71 -22 -20 5
-40 11 -43 15 -8 7 37 44 55 45 6 0 14 6 16 13 3 7 6 5 6 -5 1 -10 6 -18 12
-18 7 0 8 7 4 18 -18 43 -18 52 3 52 12 0 26 9 32 20 12 23 30 27 30 6 0 -19
28 -28 51 -16 20 11 23 29 13 68 -8 29 -20 28 -28 -4 -5 -19 -10 -23 -20 -15
-7 6 -29 8 -50 4 -27 -4 -41 -2 -47 8 -8 14 -14 -29 -10 -73 2 -12 -5 -18 -19
-18 -17 0 -20 -4 -15 -20 5 -14 2 -20 -10 -20 -10 0 -15 7 -13 18 2 14 -6 18
-44 20 -35 2 -48 7 -48 18 0 11 6 13 20 9 50 -16 75 19 49 68 -9 16 -9 22 0
25 6 2 11 21 11 42 0 34 3 39 28 43 l27 4 -27 2 c-16 0 -28 5 -28 10 0 5 -7
12 -15 15 -13 4 -15 -1 -14 -27 4 -58 -1 -87 -14 -87 -8 0 -19 10 -25 23 l-11
22 0 -22 c-1 -18 -7 -23 -27 -23 -14 0 -23 -4 -19 -10 9 -14 42 -12 48 3 2 6
7 9 11 6 12 -11 -17 -59 -35 -59 -10 0 -21 -4 -24 -10 -3 -5 -1 -10 4 -10 6 0
11 -18 11 -40 0 -33 -3 -40 -19 -40 -11 0 -22 -4 -26 -9 -6 -12 18 -19 63 -19
27 -1 32 2 27 17 -3 10 1 24 10 31 13 11 19 10 36 -6 25 -23 18 -58 -19 -96
-31 -31 -42 -35 -42 -13 0 8 -6 15 -14 15 -8 0 -17 6 -20 13 -5 10 -7 10 -12
0 -8 -18 -34 -16 -34 2 0 11 -11 15 -39 15 -22 0 -42 4 -45 8 -12 20 -156 -2
-156 -24 0 -8 -4 -14 -10 -14 -13 0 -13 13 1 27 8 8 6 19 -7 39 -10 16 -22 32
-27 35 -12 9 28 40 44 34 13 -5 49 44 49 67 0 10 -29 37 -41 38 -3 0 -4 -12
-2 -27 2 -16 -1 -35 -7 -43 -9 -13 -13 -12 -28 8 l-18 24 -16 -24 c-10 -15
-13 -30 -8 -38 14 -23 1 -31 -20 -12 -24 20 -26 32 -5 32 23 0 18 27 -6 33
-11 3 -23 15 -26 26 -3 14 -13 21 -29 21 -20 0 -23 -4 -19 -22 8 -34 -8 -52
-39 -44 -28 7 -35 33 -14 54 9 9 6 12 -16 12 -15 0 -37 5 -48 11 -15 8 -22 8
-28 -1 -5 -7 -20 -9 -44 -5 -24 5 -36 3 -36 -4 0 -6 16 -11 36 -11 29 0 44 -8
71 -35 19 -19 38 -35 43 -35 6 0 10 -11 10 -25 0 -22 -4 -25 -35 -25 -45 0
-96 22 -115 49 -8 11 -22 21 -32 21 -10 0 -18 5 -18 10 0 6 -9 10 -20 10 -13
0 -20 -7 -20 -20 0 -13 7 -20 19 -20 10 0 21 -7 25 -15 3 -9 0 -15 -8 -15 -7
0 -19 7 -26 15 -13 15 -70 21 -70 7 0 -4 6 -14 13 -21 10 -11 9 -13 -6 -7 -10
3 -21 6 -23 6 -2 0 -4 8 -4 18 0 11 -11 24 -25 30 -27 13 -32 37 -13 77 8 17
8 29 1 36 -14 14 -43 0 -43 -22 0 -10 -7 -19 -15 -19 -11 0 -15 -12 -15 -45 0
-31 4 -45 13 -45 8 0 22 -9 33 -21 18 -20 18 -21 -1 -35 -24 -18 -35 -18 -35
1 0 8 5 15 11 15 8 0 7 5 -1 16 -8 9 -25 14 -44 12 -27 -3 -31 1 -40 30 -8 30
-26 45 -26 22 0 -22 -17 -8 -28 23 -17 47 -15 55 13 81 14 13 25 28 25 33 0 6
7 16 15 23 30 25 17 40 -35 40 -49 0 -50 1 -50 30 0 34 -18 39 -43 12 -12 -13
-17 -37 -17 -76 0 -49 -3 -57 -16 -52 -9 3 -18 6 -20 6 -2 0 -4 19 -4 41 0 41
0 41 -33 36 -17 -3 -26 -3 -19 0 6 2 12 11 12 18 0 8 17 16 40 20 51 9 51 21
0 30 -22 4 -40 11 -40 16 0 4 7 6 15 3 12 -5 15 3 15 35 0 23 -4 41 -10 41 -5
0 -10 9 -10 20 0 27 -28 37 -48 16 -15 -15 -14 -16 11 -16 22 0 27 -5 27 -25
0 -13 -11 -36 -25 -50 -23 -22 -34 -25 -99 -25 -58 0 -75 3 -80 16 -3 9 -3 21
1 27 8 12 7 34 -4 77 l-6 25 -13 -30 c-8 -19 -13 -23 -14 -12 0 13 -9 17 -40
17 -22 0 -40 -4 -40 -9 0 -4 -25 -8 -55 -7 -31 0 -60 -5 -67 -12 -20 -20 -36
-14 -43 17 -3 16 -15 39 -26 52 -19 22 -27 79 -11 79 5 0 6 17 2 38 -3 20 -3
53 1 72 5 21 2 55 -5 83 l-12 48 -13 -39 c-12 -36 -16 -39 -35 -31 -12 6 -29
23 -38 40 -12 20 -25 29 -43 29 -14 0 -25 6 -25 13 0 6 -16 25 -35 40 -19 15
-35 37 -35 47 0 11 -7 20 -15 20 -20 0 -19 -29 0 -36 12 -5 13 -10 4 -20 -9
-11 -8 -18 1 -29 10 -13 9 -15 -9 -15 -11 0 -21 -4 -21 -10 0 -5 7 -10 15 -10
8 0 15 -3 15 -7 0 -5 14 -23 31 -41 29 -32 31 -33 44 -15 13 17 16 16 45 -17
30 -34 31 -35 46 -15 13 17 16 18 25 5 5 -8 7 -27 5 -41 -3 -14 0 -31 5 -36
11 -11 16 -139 6 -150 -16 -15 -26 14 -18 50 5 21 7 46 4 57 -8 30 -40 25 -48
-7 -4 -16 -10 -22 -12 -15 -3 6 -22 15 -44 18 -35 6 -38 8 -22 19 10 7 37 18
61 25 43 13 51 23 30 36 -6 4 -16 0 -23 -9 -17 -23 -32 -21 -38 4 -3 11 -15
23 -26 26 -12 3 -21 11 -21 19 0 17 -42 28 -75 20 -24 -6 -25 -4 -26 36 l-1
43 -10 -37 c-11 -41 -22 -48 -32 -21 -4 10 -10 13 -14 8 -10 -15 -50 -35 -67
-35 -9 0 -15 9 -15 25 0 16 6 25 15 25 9 0 18 7 21 15 4 9 19 15 37 15 24 0
28 3 19 12 -9 9 -22 9 -53 1 -35 -9 -40 -8 -37 6 2 11 16 17 41 19 30 3 37 7
37 24 0 15 -4 18 -17 13 -17 -7 -55 -16 -153 -35 -38 -7 -48 -6 -66 11 -19 18
-23 19 -37 5 -13 -14 -15 -13 -20 4 -3 11 -13 20 -22 20 -35 0 -6 25 36 31 37
5 33 6 -29 7 -67 2 -73 0 -68 -16 8 -23 -34 -48 -60 -38 -16 6 -16 8 6 19 50
25 35 36 -49 36 -45 0 -81 -4 -81 -10 0 -5 -9 -9 -20 -9 -11 0 -20 4 -20 10 0
5 -73 9 -181 9 -179 1 -180 1 -177 -21 2 -11 -3 -23 -10 -26 -9 -3 -11 3 -6
22 6 26 6 26 -53 26 -33 0 -65 -5 -72 -12 -11 -10 -14 -10 -18 -1 -4 10 -318
13 -1484 13 l-1479 0 0 -63z m2502 -812 c12 -14 30 -25 40 -25 10 0 18 -6 18
-14 0 -8 9 -18 20 -21 24 -8 44 -41 34 -57 -5 -8 0 -9 16 -5 27 7 69 -14 111
-55 15 -16 35 -28 43 -28 9 0 16 -7 16 -15 0 -8 4 -15 10 -15 5 0 25 -16 44
-36 23 -23 36 -31 39 -22 3 9 10 6 22 -9 9 -13 23 -23 31 -23 8 0 14 -7 14
-16 0 -8 4 -12 10 -9 5 3 20 -1 32 -9 13 -8 35 -12 50 -9 29 6 29 23 0 23 -9
1 -28 14 -42 30 -13 17 -28 30 -32 30 -5 0 -21 11 -36 25 -15 14 -35 25 -44
25 -17 0 -22 10 -19 35 0 6 -15 19 -35 30 -19 10 -40 27 -45 37 -6 11 -21 23
-35 28 -29 11 -31 30 -4 37 11 3 20 9 20 14 0 5 17 9 39 9 31 0 40 4 46 23 6
19 8 20 12 4 3 -14 8 -15 18 -7 9 8 14 7 19 -5 3 -8 17 -15 31 -15 36 0 31
-25 -7 -37 -21 -6 -32 -15 -30 -25 1 -8 -5 -21 -13 -28 -21 -17 -19 -37 4 -43
12 -3 26 5 42 24 21 25 25 27 31 11 3 -9 7 -30 7 -45 1 -22 8 -30 31 -38 17
-6 30 -17 30 -24 0 -8 19 -13 62 -14 65 -1 81 -7 59 -21 -18 -11 -6 -40 19
-47 11 -3 20 -11 20 -17 0 -22 22 -36 41 -26 19 11 40 -4 60 -42 9 -17 8 -24
-3 -32 -8 -6 -18 -24 -22 -40 -4 -15 -14 -35 -21 -43 -8 -8 -15 -32 -15 -52 0
-21 -3 -53 -6 -70 l-7 -32 -29 31 c-21 24 -35 31 -53 28 -17 -4 -31 2 -46 18
-13 13 -30 24 -40 24 -9 0 -19 3 -21 8 -1 4 -25 23 -53 41 -27 19 -54 41 -58
48 -4 7 -14 13 -20 13 -7 0 -28 13 -47 30 -19 16 -41 29 -47 30 -7 0 -18 9
-25 20 -7 11 -18 20 -25 20 -7 0 -18 9 -25 20 -7 11 -18 20 -24 20 -6 0 -26
14 -45 31 -19 17 -53 40 -76 51 -24 10 -43 26 -43 35 0 9 -6 13 -14 10 -8 -3
-22 1 -33 8 -10 8 -28 15 -39 15 -25 0 -36 29 -27 71 5 25 2 29 -16 29 -18 0
-22 5 -19 23 2 12 9 21 16 20 6 -2 12 1 12 6 0 24 21 61 35 61 8 0 25 -11 37
-25z m4554 -20 c13 -14 28 -25 34 -25 7 0 9 -8 5 -19 -4 -13 4 -30 25 -52 24
-26 27 -35 15 -37 -8 -2 -15 -14 -15 -28 0 -13 -4 -24 -10 -24 -5 0 -10 8 -10
18 0 11 -12 24 -26 30 -21 10 -25 18 -22 45 3 32 3 32 -44 35 -46 3 -48 2 -48
-22 0 -15 5 -26 11 -26 5 0 7 -5 4 -10 -11 -17 -31 12 -33 48 -2 26 2 35 17
39 10 2 24 16 30 29 14 31 38 31 67 -1z m-524 -3272 c16 -14 23 -15 38 -5 27
17 38 15 44 -6 9 -29 52 -48 70 -33 12 10 20 8 43 -13 22 -20 29 -23 33 -12 4
13 9 12 28 -3 13 -9 25 -26 27 -36 2 -11 4 -22 4 -24 1 -2 7 2 15 8 12 10 19
8 35 -8 12 -12 29 -21 39 -21 10 0 28 -9 40 -20 12 -11 26 -20 31 -20 6 0 16
-9 23 -20 15 -23 28 -26 28 -7 0 8 10 13 22 13 17 -1 24 6 28 29 5 27 9 30 42
28 31 -1 37 2 40 20 2 12 10 22 18 22 11 0 15 -11 13 -42 -2 -39 0 -43 23 -43
13 0 24 5 24 10 0 6 4 10 8 10 4 0 8 -17 8 -37 0 -20 5 -38 12 -41 22 -7 13
-21 -25 -39 -21 -9 -51 -25 -68 -36 l-30 -18 32 6 c47 9 61 -4 24 -22 -31 -15
-42 -35 -18 -32 6 1 26 0 42 -1 l30 -2 -27 -9 -27 -10 34 -31 c19 -16 35 -36
35 -44 0 -8 6 -14 13 -14 6 0 28 -20 47 -45 19 -24 42 -44 51 -45 9 0 22 -14
29 -30 7 -17 32 -44 56 -61 45 -31 69 -63 59 -78 -3 -5 4 -12 15 -16 11 -3 20
-10 20 -14 0 -5 36 -32 80 -61 44 -29 80 -56 80 -60 0 -4 20 -18 44 -31 32
-16 50 -35 62 -62 10 -21 41 -62 69 -90 28 -29 63 -68 77 -87 82 -111 123
-342 88 -492 -7 -29 -32 -93 -55 -143 -24 -49 -64 -135 -90 -190 -38 -80 -95
-220 -95 -232 0 -7 -60 -2 -64 6 -3 4 -33 11 -67 15 -34 3 -68 11 -75 17 -8 6
-14 7 -14 2 0 -9 -20 -4 -170 42 -86 27 -181 31 -213 10 -31 -20 -35 -45 -8
-45 10 0 32 -7 47 -15 16 -8 46 -15 67 -15 20 0 37 -4 37 -10 0 -5 24 -10 53
-11 57 0 158 -12 225 -27 33 -7 42 -7 42 4 0 38 62 -9 73 -56 7 -26 -34 -89
-81 -124 -24 -18 -25 -18 -175 57 -91 45 -194 88 -257 106 -58 17 -131 39
-162 50 -55 19 -66 25 -105 61 -15 13 -16 13 -11 -2 7 -17 -16 -57 -27 -47 -3
4 -8 17 -9 30 -4 31 -24 79 -32 79 -4 0 -17 -12 -29 -26 -13 -16 -29 -24 -38
-21 -17 6 -28 76 -18 114 l7 26 26 -34 c15 -18 30 -30 34 -26 4 3 -18 39 -47
79 -107 143 -129 181 -115 190 7 5 4 8 -6 8 -11 0 -18 8 -18 19 0 10 -6 24
-14 30 -8 7 -18 27 -22 44 -3 18 -10 37 -14 42 -5 6 -23 37 -40 70 -17 32 -40
68 -51 79 -11 12 -35 43 -52 70 -34 52 -87 100 -124 111 -34 10 -30 -20 11
-88 19 -32 41 -73 48 -93 7 -19 20 -43 30 -54 12 -12 14 -20 6 -22 -15 -5 29
-65 95 -130 26 -26 47 -52 47 -57 0 -6 -15 6 -34 24 -18 19 -37 35 -42 35 -5
0 -20 10 -34 23 -43 39 -132 99 -138 93 -3 -3 -3 -7 -1 -9 40 -25 106 -73 114
-81 6 -6 24 -22 40 -34 59 -45 166 -157 202 -211 74 -111 76 -170 7 -246 -19
-22 -48 -54 -62 -70 -61 -69 -201 -152 -295 -176 -26 -6 -50 -15 -53 -20 -9
-16 -107 -10 -177 10 -77 22 -205 88 -273 140 -86 66 -201 185 -233 242 -27
48 -31 65 -31 127 0 87 21 148 91 262 53 88 133 179 145 167 5 -4 7 -22 6 -40
-3 -45 38 -84 93 -89 36 -3 40 -6 43 -33 6 -68 23 -97 82 -138 25 -17 100 -24
100 -9 0 5 10 13 22 19 21 9 21 10 -10 24 -33 14 -49 46 -38 75 5 14 11 12 35
-12 16 -16 31 -36 33 -44 4 -11 9 -7 19 13 10 22 17 27 36 22 25 -6 32 12 8
21 -8 3 -17 14 -20 25 -4 10 -13 19 -21 19 -16 0 -145 106 -138 113 3 2 -19
14 -48 27 -89 37 -105 76 -28 67 50 -6 223 -84 295 -133 46 -31 55 -31 25 1
-13 14 -27 25 -32 25 -5 0 -21 8 -36 18 -15 11 -44 30 -64 43 -20 13 -34 28
-31 33 3 5 1 6 -5 2 -6 -4 -37 13 -69 37 -32 24 -104 70 -160 101 -57 31 -103
63 -103 71 0 7 -9 16 -19 20 -11 3 -37 20 -58 36 -35 29 -66 50 -241 169 -37
25 -69 53 -70 63 -4 22 28 60 78 90 19 12 54 36 78 54 24 18 50 33 58 33 8 0
17 7 20 15 4 8 11 15 18 15 20 1 107 66 121 91 25 43 37 74 42 109 2 19 7 42
10 50 4 8 5 21 4 28 -1 6 8 12 21 12 21 1 22 2 5 14 -13 10 -14 15 -5 19 7 2
15 4 18 3 3 0 25 14 49 33 28 23 39 36 30 41 -17 11 -3 28 39 48 30 14 38 23
40 50 2 20 9 32 18 32 8 0 17 7 20 15 4 8 25 24 48 35 22 11 50 25 61 32 11 7
38 24 60 37 22 14 43 25 47 23 3 -1 3 12 -2 28 -11 39 -2 44 76 35 53 -5 64
-4 64 8 0 29 45 35 72 10z m-1816 -979 c-7 -33 -7 -33 30 -32 51 2 84 -36 84
-98 0 -31 -4 -44 -14 -44 -8 0 -20 -16 -26 -35 -20 -60 -19 -89 1 -108 10 -10
26 -31 35 -48 14 -29 19 -31 54 -26 51 7 64 -10 64 -77 -1 -50 -50 -241 -73
-285 -19 -35 -47 -59 -73 -63 -24 -3 -26 -12 -13 -88 4 -22 0 -49 -10 -73 -14
-35 -19 -38 -43 -32 -42 10 -105 68 -131 121 -14 27 -30 56 -37 64 -20 25 -43
104 -33 116 4 5 5 20 2 33 -4 16 -8 19 -14 10 -13 -22 -23 -2 -26 54 -4 60 -6
72 -21 110 -7 16 -12 35 -12 44 0 12 -3 13 -14 4 -10 -9 -16 -9 -21 -1 -11 17
3 43 20 36 11 -4 15 2 15 24 0 111 130 404 202 454 18 13 22 12 40 -6 15 -15
18 -28 14 -54z m727 -185 c14 -11 187 -138 203 -147 23 -15 44 -59 44 -93 0
-43 -25 -125 -70 -230 -83 -194 -100 -310 -59 -398 14 -29 63 -86 134 -156
157 -154 312 -248 488 -294 115 -30 224 -5 453 105 61 30 120 54 132 54 37 0
101 -31 108 -52 3 -11 6 -35 6 -54 0 -19 4 -31 9 -28 15 9 11 -6 -31 -137 -23
-68 -44 -152 -47 -186 -5 -55 -2 -69 22 -120 49 -99 168 -199 321 -269 41 -18
74 -37 74 -40 0 -4 -38 -44 -84 -89 -46 -45 -87 -92 -91 -104 -3 -12 -11 -18
-17 -15 -6 4 -8 -1 -4 -13 9 -28 -11 -124 -29 -137 -8 -6 -22 -29 -31 -50 -8
-22 -27 -48 -40 -58 -16 -13 -24 -30 -24 -52 0 -28 -16 -61 -45 -92 -5 -6 -20
-23 -33 -38 -29 -34 -46 -29 -52 14 -4 26 -7 30 -16 19 -6 -8 -14 -22 -17 -31
-9 -25 -26 -22 -31 5 -18 83 -17 115 5 153 11 22 25 44 30 50 5 6 6 14 3 17
-10 10 5 39 16 32 8 -5 7 -11 -1 -21 -9 -11 -8 -14 5 -14 9 0 16 7 16 16 0 10
6 14 14 11 7 -3 23 1 35 9 26 19 54 71 42 78 -12 8 -71 -23 -78 -40 -3 -8 -9
-12 -13 -9 -4 3 -13 -2 -20 -10 -7 -8 -19 -15 -27 -15 -32 0 -81 -177 -69
-252 4 -21 4 -38 1 -38 -11 0 -65 64 -77 91 -7 16 -16 29 -20 29 -13 0 -173
-75 -176 -82 -2 -5 -8 -8 -14 -8 -6 0 -45 -25 -87 -56 -107 -78 -271 -174
-296 -174 -7 0 -23 -9 -36 -19 l-24 -19 19 -36 c11 -20 25 -36 32 -36 7 0 21
-12 31 -26 10 -14 30 -40 46 -57 76 -88 -29 -260 -180 -292 -17 -3 -41 -15
-54 -26 -12 -10 -31 -19 -43 -19 -12 -1 -48 -3 -81 -5 -77 -6 -167 4 -158 18
4 6 -20 8 -73 5 -87 -6 -220 6 -238 21 -6 5 -45 17 -86 27 -41 9 -83 20 -92
25 -20 11 -164 49 -318 85 -141 33 -319 91 -425 138 -22 10 -53 24 -70 31 -16
7 -64 30 -105 50 -41 21 -76 37 -77 37 -2 -1 -53 23 -115 53 -62 29 -132 59
-155 67 -24 7 -43 16 -43 20 0 5 -5 8 -11 8 -14 0 -167 94 -201 124 -16 13
-28 27 -28 32 1 9 82 64 94 64 4 0 41 23 83 50 42 28 78 50 80 50 2 0 36 21
76 48 104 68 109 71 137 83 14 6 50 15 82 21 51 9 59 8 85 -12 27 -19 31 -20
59 -5 16 8 39 15 51 15 13 0 40 16 62 35 21 19 48 35 60 35 35 0 54 26 48 64
-5 29 -2 34 24 43 17 7 31 7 35 2 3 -5 -4 -9 -15 -9 -12 0 -21 -4 -21 -9 0 -6
8 -10 18 -10 9 0 41 -3 70 -7 46 -6 52 -5 46 10 -4 10 -1 16 7 16 7 0 22 11
34 24 11 13 35 26 53 30 31 5 35 2 83 -64 28 -39 57 -70 64 -70 8 0 26 -11 41
-25 15 -14 31 -25 35 -25 5 0 9 -7 9 -15 0 -8 9 -15 20 -15 15 0 20 -7 20 -25
0 -18 9 -28 34 -40 19 -9 39 -14 44 -11 5 3 23 -8 41 -24 17 -17 40 -30 51
-30 11 0 20 -3 20 -8 0 -20 136 -163 180 -188 16 -10 30 -24 30 -31 0 -16 16
-17 26 -2 3 6 -18 34 -49 62 -31 29 -68 69 -82 90 -51 77 -111 203 -124 262
-7 33 -19 67 -25 75 -7 8 -18 33 -24 56 -6 22 -23 60 -36 85 -59 107 -105 207
-111 244 -9 60 -28 118 -42 133 -7 7 -13 26 -13 42 0 22 -5 29 -22 32 -20 3
-24 11 -29 58 -4 30 -12 68 -18 84 -13 33 -5 320 10 349 6 9 16 17 24 17 11 0
15 11 15 39 0 58 6 67 43 64 43 -5 65 10 48 31 -8 9 -10 23 -6 33 7 16 9 15
14 -7 4 -16 15 -26 29 -28 12 -2 23 -11 23 -20 1 -9 3 -28 4 -42 1 -14 4 -65
6 -114 2 -59 7 -90 15 -93 9 -3 11 -15 7 -34 -4 -23 0 -36 17 -54 13 -14 32
-25 42 -25 10 0 18 -5 18 -11 0 -6 7 -9 14 -6 10 4 13 1 9 -9 -7 -19 14 -44
38 -44 24 0 46 39 28 50 -9 6 -8 15 8 40 21 34 22 31 -12 190 -8 36 -19 133
-25 215 -6 83 -16 165 -22 183 -5 18 -7 45 -4 58 4 15 2 32 -5 40 -7 8 -12 28
-11 44 0 17 -4 30 -9 30 -5 0 -9 16 -9 35 0 20 -8 52 -19 73 -15 31 -17 48
-10 107 4 39 8 79 8 91 1 11 12 34 26 50 14 16 25 32 25 37 0 4 6 7 13 7 6 1
26 18 42 39 20 26 52 49 93 67 41 19 62 34 62 46 0 9 5 20 10 23 6 4 8 11 4
16 -3 6 -3 22 0 36 6 21 11 24 32 19 14 -4 31 -11 37 -17z m4053 -603 c4 -11
11 -24 16 -27 11 -7 18 -70 22 -204 2 -69 8 -111 15 -113 6 -2 11 -27 12 -55
1 -82 14 -158 30 -169 11 -7 11 -11 2 -15 -16 -6 -16 -54 -2 -108 6 -22 10
-57 9 -78 0 -22 3 -44 9 -50 5 -7 9 -36 8 -64 -1 -43 3 -57 23 -75 14 -13 19
-23 12 -26 -9 -3 -10 -37 -5 -125 5 -110 8 -124 29 -146 25 -24 32 -65 14 -76
-5 -3 -10 1 -10 9 0 9 -4 16 -10 16 -5 0 -10 -2 -10 -5 0 -10 25 -50 39 -61
12 -9 11 -12 -3 -17 -17 -7 -23 -57 -6 -57 6 0 10 -8 10 -17 0 -10 7 -31 15
-47 10 -18 15 -57 15 -111 0 -64 3 -84 15 -89 19 -7 19 -30 0 -60 -14 -20 -14
-27 0 -59 16 -38 45 -233 45 -301 0 -21 6 -64 14 -95 8 -31 17 -103 20 -161 3
-58 11 -134 16 -170 6 -36 8 -75 5 -87 -3 -12 -1 -23 5 -25 5 -2 12 -39 15
-83 3 -44 8 -92 11 -107 3 -15 7 -46 9 -70 3 -24 11 -81 18 -128 8 -47 15
-140 16 -207 l2 -123 -48 -1 c-26 0 -62 -2 -79 -3 -26 -3 -32 1 -42 27 -8 21
-8 34 -1 43 7 8 6 13 -3 16 -9 3 -13 33 -15 98 -2 52 -7 108 -12 125 -11 37
-22 170 -22 265 0 48 -4 70 -12 70 -8 0 -12 24 -13 73 -2 97 -22 292 -34 321
-10 26 -16 89 -60 586 -17 184 -35 376 -40 425 -6 50 -15 162 -20 250 -5 88
-13 198 -19 245 -6 47 -13 126 -17 175 -4 50 -9 101 -10 115 -1 14 -5 68 -7
121 -3 53 -10 106 -16 118 -9 15 -9 36 -2 74 5 28 6 53 2 55 -4 1 -4 26 1 55
8 53 3 107 -11 107 -5 0 -6 10 -4 23 6 30 50 33 59 3z m344 -257 c0 -5 18 -9
40 -9 29 0 40 -4 40 -15 0 -9 -9 -15 -25 -15 -14 0 -25 -4 -25 -10 0 -5 11
-10 25 -10 16 0 25 -6 25 -15 0 -9 -9 -15 -25 -15 -22 0 -25 -4 -25 -40 0 -36
3 -40 25 -40 23 0 25 -4 25 -40 0 -22 -4 -40 -10 -40 -5 0 -10 -18 -10 -40 0
-34 -3 -40 -21 -40 -18 0 -19 -2 -5 -15 8 -9 13 -22 10 -29 -3 -8 4 -16 18
-20 14 -5 18 -9 10 -13 -6 -2 -10 -9 -6 -14 3 -5 -1 -9 -8 -9 -8 0 -6 -5 5
-11 9 -5 17 -19 17 -29 0 -11 4 -20 9 -20 5 0 12 -8 15 -18 13 -41 136 -75
136 -37 0 16 16 20 24 6 3 -5 -1 -14 -9 -21 -20 -17 -20 -51 0 -44 11 4 15 0
15 -16 0 -15 -5 -20 -14 -17 -8 3 -17 1 -20 -6 -2 -7 -5 7 -5 31 -1 30 -5 42
-16 42 -10 0 -15 -10 -15 -30 0 -41 22 -110 35 -109 28 3 65 -2 65 -9 0 -4
-13 -16 -29 -25 -25 -15 -31 -15 -38 -3 -4 8 -19 16 -33 18 -14 1 -25 8 -25
15 0 6 -3 14 -7 18 -4 4 -3 18 3 32 12 32 12 93 -1 93 -5 0 -10 -18 -10 -40 0
-38 -2 -40 -30 -40 -30 0 -37 -14 -31 -60 10 -75 10 -100 0 -100 -7 0 -9 -14
-7 -37 3 -21 1 -48 -3 -60 -7 -19 -5 -23 12 -23 12 0 17 -4 14 -11 -5 -7 -15
-5 -31 5 -31 21 -46 20 -42 -1 2 -10 10 -18 18 -18 23 0 31 -18 15 -35 -7 -8
-15 -28 -17 -45 -3 -26 1 -31 32 -42 31 -10 37 -9 52 8 9 10 25 19 36 19 11 0
25 6 31 14 15 18 51 17 51 -1 0 -7 5 -13 10 -13 7 0 7 7 0 21 -9 16 -8 26 6
47 15 22 19 24 22 10 2 -10 8 -18 13 -18 5 0 9 -5 9 -11 0 -5 -4 -8 -9 -5 -5
3 -11 -5 -13 -19 -4 -17 -1 -25 8 -25 8 0 14 -4 14 -10 0 -5 -18 -10 -40 -10
-39 0 -40 -1 -40 -36 l0 -37 50 5 c47 5 63 -3 40 -17 -13 -8 -13 -55 0 -55 6
0 8 11 4 25 -6 25 8 33 32 17 15 -9 18 -122 4 -122 -6 0 -8 -4 -5 -10 3 -5 13
-10 21 -10 10 0 15 14 16 48 l1 47 4 -45 c3 -24 9 -47 14 -51 11 -7 1 -39 -12
-39 -5 0 -9 -7 -9 -16 0 -8 -5 -12 -11 -8 -13 7 -29 -13 -29 -37 0 -13 10 -17
45 -17 57 -2 85 -16 78 -41 -3 -10 0 -22 7 -26 8 -5 8 -10 -1 -21 -8 -10 -8
-14 0 -14 20 0 12 -39 -11 -54 -13 -8 -45 -22 -73 -31 -51 -16 -110 -42 -133
-59 -9 -6 -9 -12 -1 -22 15 -19 64 -18 94 2 13 9 29 13 34 10 5 -4 28 -2 49 3
22 4 46 5 53 0 8 -5 10 -9 5 -9 -5 0 -3 -6 3 -14 10 -12 9 -17 -6 -24 -10 -5
-24 -7 -31 -5 -14 5 -42 -14 -42 -28 0 -5 8 -9 18 -9 9 0 25 -7 35 -14 25 -19
20 -85 -8 -100 -36 -20 -47 -46 -18 -46 14 0 14 -2 -2 -20 -18 -20 -18 -21 3
-43 30 -32 28 -37 -20 -39 l-43 -1 45 -7 c40 -6 36 -7 -33 -8 -90 -2 -117 -13
-117 -47 0 -33 20 -75 37 -75 9 0 13 -13 13 -40 0 -22 3 -40 8 -40 4 0 8 -27
8 -60 1 -33 -2 -60 -7 -60 -8 0 -13 15 -10 33 0 4 -3 7 -9 7 -5 0 -10 -12 -10
-27 0 -26 3 -28 37 -28 32 0 38 -4 44 -29 11 -39 -5 -56 -45 -53 -25 2 -31 -2
-31 -18 0 -14 8 -21 30 -25 24 -4 31 -11 33 -33 3 -27 5 -28 48 -21 40 6 44 4
44 -15 0 -12 -6 -21 -14 -21 -8 0 -18 -5 -22 -11 -5 -8 1 -10 19 -7 18 3 28 0
32 -11 3 -8 1 -17 -4 -19 -6 -2 -11 -26 -11 -53 0 -36 -4 -49 -14 -49 -8 0
-18 5 -21 10 -3 6 -23 10 -43 10 l-37 -1 27 -24 c16 -13 23 -27 18 -30 -35
-22 23 -35 61 -14 27 14 49 5 43 -18 -7 -26 -90 -57 -146 -55 -27 1 -48 -2
-48 -8 0 -5 11 -10 24 -10 14 0 27 -4 31 -9 7 -12 46 -11 63 2 9 7 17 6 24 -1
7 -7 24 -12 38 -12 33 0 78 -21 85 -39 7 -18 5 -20 -33 -27 -28 -6 -33 -3 -42
21 -14 36 -32 27 -35 -18 -1 -27 4 -41 19 -54 33 -28 66 -44 66 -33 0 5 9 10
20 10 34 0 24 -35 -12 -45 -36 -11 -54 -55 -24 -55 10 0 16 -9 16 -25 0 -18
-7 -26 -25 -31 -21 -5 -25 -12 -26 -43 0 -20 -3 -30 -6 -23 -7 17 -23 15 -23
-3 0 -8 -4 -15 -10 -15 -5 0 -10 -18 -10 -40 0 -22 5 -40 10 -40 6 0 10 9 10
20 0 24 8 25 37 5 12 -8 30 -14 40 -13 33 2 88 -4 71 -9 -13 -3 -18 -15 -18
-44 0 -35 3 -39 25 -39 23 0 24 -2 13 -22 -7 -13 -20 -32 -28 -42 -14 -18 -13
-19 8 -14 25 7 20 -8 -10 -30 -14 -10 -16 -18 -8 -32 5 -10 10 -25 9 -32 0
-10 -2 -10 -6 0 -7 19 -30 14 -36 -8 -6 -24 9 -36 27 -21 11 9 15 5 19 -19 4
-17 12 -29 19 -28 9 2 13 -9 13 -34 0 -21 -3 -38 -7 -38 -5 0 -8 -12 -8 -26 0
-21 4 -24 20 -19 14 4 22 1 27 -12 4 -10 11 -21 16 -25 7 -4 4 -16 -7 -33 -17
-26 -18 -26 -37 -9 -18 16 -19 16 -19 -9 0 -17 5 -27 15 -27 20 0 19 -17 -2
-30 -17 -10 -17 -10 0 -20 19 -12 23 -30 7 -30 -20 0 -68 -43 -63 -56 7 -18
43 5 43 28 0 11 5 15 15 12 8 -4 15 -12 15 -20 0 -7 11 -16 23 -20 32 -8 61
-67 46 -95 -6 -13 -8 -53 -5 -103 l5 -83 -30 -22 c-20 -15 -40 -21 -56 -18
-15 3 -27 -1 -30 -9 -3 -8 -18 -14 -34 -14 -16 0 -29 -4 -29 -10 0 -5 18 -10
40 -10 24 0 40 5 40 12 0 6 8 4 19 -6 20 -18 61 -14 61 5 0 6 4 7 10 4 5 -3 8
-25 6 -48 -3 -33 -8 -42 -22 -42 -11 0 -19 5 -19 12 0 25 -15 24 -24 -1 -6
-14 -15 -26 -21 -26 -14 0 -12 -43 3 -64 13 -17 15 -16 36 19 25 42 32 41 33
-4 1 -18 5 -34 10 -37 4 -3 8 -28 8 -56 l0 -52 21 22 c11 12 24 20 30 17 14
-9 11 -17 -15 -48 -21 -24 -23 -32 -13 -57 9 -24 8 -32 -8 -49 -17 -20 -17
-22 0 -41 18 -20 17 -20 -8 -20 -18 0 -27 5 -27 16 0 14 -2 14 -16 3 -10 -8
-12 -15 -5 -17 6 -2 11 -22 12 -45 0 -32 2 -37 9 -22 7 18 8 19 15 2 4 -9 4
-24 1 -33 -4 -10 3 -24 16 -36 16 -13 19 -21 11 -24 -7 -3 -13 -23 -13 -45 0
-35 3 -39 25 -39 16 0 25 -6 25 -15 0 -11 -11 -15 -37 -15 -30 0 -40 -5 -49
-25 -13 -26 -20 -25 76 -10 17 2 30 0 30 -5 0 -6 -4 -10 -10 -10 -5 0 -10 -13
-10 -30 0 -21 5 -30 16 -30 11 0 14 -6 9 -21 -4 -12 -8 -28 -9 -35 -3 -21 -16
-29 -16 -11 0 10 -4 17 -10 17 -5 0 -9 6 -7 12 1 7 -8 14 -21 16 -23 3 -23 3
-7 -35 9 -21 20 -40 26 -41 5 -2 6 -8 3 -13 -9 -15 5 -61 17 -54 5 4 17 4 25
1 14 -5 13 -8 -1 -23 -14 -13 -18 -14 -25 -2 -5 7 -12 11 -15 7 -8 -8 13 -49
34 -65 14 -11 14 -12 -1 -13 -10 0 -18 -7 -18 -15 0 -8 -7 -15 -15 -15 -8 0
-15 -4 -15 -9 0 -5 27 -7 60 -4 56 5 60 4 60 -16 0 -17 -6 -21 -30 -21 -19 0
-30 -5 -30 -14 0 -27 12 -46 30 -46 15 0 50 -28 39 -31 -2 0 -12 -2 -23 -4
-33 -6 -41 -23 -21 -45 16 -18 16 -20 2 -20 -19 0 -12 -30 10 -43 7 -4 13 -23
13 -41 0 -23 6 -36 18 -41 16 -6 16 -7 -2 -21 -14 -10 -16 -14 -5 -14 8 0 10
-3 4 -8 -20 -14 -40 -63 -29 -70 6 -4 13 -17 16 -29 4 -15 0 -23 -13 -26 -23
-6 -25 -30 -4 -47 8 -7 15 -22 15 -34 0 -26 28 -69 40 -61 4 3 15 -6 24 -20
14 -21 14 -25 2 -25 -7 0 -16 7 -20 15 -7 19 -26 19 -26 0 0 -8 5 -15 10 -15
6 0 10 -4 10 -10 0 -18 -29 -10 -35 10 -7 21 -25 28 -25 10 0 -5 5 -10 10 -10
6 0 10 -13 10 -30 0 -28 3 -30 36 -30 19 0 42 -6 50 -14 12 -13 10 -14 -21 -9
-21 3 -41 1 -50 -7 -10 -9 -15 -9 -15 -1 0 6 -9 2 -20 -9 -11 -11 -29 -20 -40
-20 -11 0 -20 -4 -20 -10 0 -5 15 -10 34 -10 19 0 38 -4 41 -10 3 -6 11 -10
18 -10 8 0 8 3 -1 12 -7 7 -12 16 -12 20 0 12 48 9 56 -3 7 -12 -33 -49 -51
-48 -26 3 -32 -3 -31 -31 1 -17 7 -30 14 -30 6 0 12 5 12 10 0 6 8 10 19 10
10 0 24 7 31 15 16 19 30 19 30 0 0 -8 -4 -15 -10 -15 -5 0 -10 -5 -10 -11 0
-6 6 -9 13 -6 28 10 36 -6 25 -53 -5 -25 -12 -62 -15 -82 -7 -49 -23 -39 -24
15 l0 42 -18 -40 c-12 -27 -15 -42 -7 -45 11 -5 16 -80 6 -80 -5 0 -5 -24 -1
-62 1 -5 10 -8 21 -8 34 0 25 -38 -11 -47 -36 -10 -39 -25 -7 -35 13 -3 17 -6
11 -7 -8 -1 -13 -16 -13 -40 0 -29 -5 -41 -17 -44 -15 -4 -15 -6 5 -12 12 -4
22 -14 22 -21 0 -17 -22 -18 -37 -3 -7 7 -12 3 -15 -16 -6 -31 9 -40 52 -31
25 4 30 2 30 -14 0 -10 5 -22 10 -25 6 -3 10 -13 10 -22 0 -9 7 -24 16 -34 8
-9 17 -33 18 -52 2 -19 6 -39 10 -45 3 -6 2 -13 -4 -17 -6 -3 -13 1 -16 9 -8
20 -34 21 -34 1 0 -8 10 -24 22 -35 17 -16 20 -24 12 -37 -16 -26 -33 -27 -44
-1 -10 21 -10 21 -7 2 3 -12 1 -28 -4 -35 -4 -7 -5 -17 -2 -22 3 -5 9 -3 14 4
11 19 16 10 21 -43 5 -40 3 -48 -13 -53 -11 -4 -19 -13 -19 -20 0 -14 23 -11
45 6 14 11 59 16 63 7 6 -21 1 -78 -8 -78 -5 0 -10 7 -10 15 0 8 -4 15 -9 15
-5 0 -4 -13 2 -29 6 -17 16 -27 24 -24 7 3 13 1 13 -5 0 -6 3 -17 6 -26 4 -12
0 -16 -15 -16 -13 0 -21 6 -21 17 0 9 -3 14 -6 10 -3 -3 -3 -19 1 -36 6 -28
10 -31 43 -31 20 0 44 -5 52 -10 11 -7 5 -10 -22 -10 -37 0 -38 -1 -38 -38 0
-21 -5 -43 -12 -50 -6 -6 -9 -15 -5 -18 9 -9 59 5 52 15 -2 5 2 12 11 15 8 3
12 2 9 -4 -3 -6 2 -10 11 -10 16 0 15 -2 -2 -21 -15 -17 -26 -20 -56 -15 -30
5 -38 3 -38 -9 0 -9 9 -15 23 -15 13 0 36 -11 52 -24 24 -21 27 -29 22 -65 -3
-23 -1 -43 3 -46 4 -3 7 -13 5 -23 -16 -78 -15 -83 4 -77 11 3 22 1 26 -5 3
-5 -1 -10 -10 -10 -11 0 -15 -5 -12 -14 6 -16 -39 -28 -75 -20 -27 7 -339 6
-346 -1 -2 -2 -11 3 -20 12 -17 17 -38 146 -47 303 -4 52 -9 113 -12 135 -2
22 -5 68 -5 102 -1 34 -5 60 -9 57 -5 -3 -8 21 -8 53 0 114 -1 136 -10 147
-10 12 -14 152 -7 241 2 30 -1 57 -10 70 -13 20 -19 71 -28 225 -2 36 -7 94
-11 128 -15 128 -16 149 -19 232 -1 47 -5 94 -9 105 -4 11 -9 63 -12 115 -3
52 -8 118 -11 145 -2 28 -7 97 -9 155 -3 58 -10 118 -17 133 -6 16 -8 55 -5
94 3 44 2 61 -5 52 -7 -10 -8 -6 -4 12 3 15 0 71 -8 125 -7 55 -14 108 -15
119 0 11 -2 61 -4 111 -2 50 -7 97 -12 104 -5 8 -9 50 -11 94 -1 45 -7 122
-13 171 -16 123 -30 273 -37 375 -3 47 -8 88 -10 92 -3 4 -7 56 -9 115 -3 59
-16 189 -29 288 -13 99 -20 186 -16 194 8 16 2 51 -10 51 -4 0 -11 72 -15 160
-4 88 -10 160 -14 160 -4 0 -7 33 -8 73 -1 39 -7 85 -13 102 -6 16 -8 45 -5
65 3 19 -1 68 -10 108 -17 83 -20 212 -5 212 6 0 10 7 10 15 0 8 5 15 10 15
18 0 11 15 -12 25 -15 7 -24 20 -26 40 -2 17 -8 34 -13 39 -15 16 -10 26 12
26 15 0 19 -4 14 -19 -3 -11 -1 -22 5 -26 8 -5 10 11 8 52 -3 54 -5 58 -28 58
-25 0 -25 2 -32 100 -3 55 -11 126 -17 158 -5 32 -8 71 -5 87 4 15 1 31 -5 34
-17 11 -13 53 5 60 9 3 31 6 50 6 19 0 34 4 34 9 0 5 -18 7 -40 4 -37 -5 -40
-4 -40 18 0 14 -6 34 -14 45 -8 11 -19 50 -25 85 -19 115 -52 412 -56 504 -2
50 -7 113 -9 140 -25 248 -32 360 -24 363 13 6 9 29 -6 35 -17 7 -26 50 -14
70 5 9 4 18 -1 21 -4 3 -9 36 -10 73 -1 38 -4 86 -7 108 -3 22 -4 46 -4 53 3
33 1 72 -6 121 -5 39 -4 52 5 47 7 -5 11 1 11 13 0 12 -4 21 -10 21 -14 0 -12
37 3 43 9 4 9 7 -1 14 -20 15 -33 72 -37 177 -3 65 -10 107 -20 122 -17 27
-19 44 -5 44 6 0 10 17 10 37 0 40 24 75 46 66 8 -3 14 -9 14 -14z m-2527
-340 c99 -33 144 -57 257 -133 110 -75 174 -128 192 -161 6 -11 -13 2 -42 28
-46 41 -116 87 -134 87 -10 0 -68 -92 -70 -113 -2 -12 -6 -29 -10 -38 -4 -9
-8 -27 -10 -40 -2 -23 -26 -93 -51 -154 -7 -16 -18 -47 -24 -67 -7 -20 -22
-52 -34 -70 -13 -18 -32 -50 -45 -71 -27 -47 -18 -53 67 -37 74 13 163 63 234
131 50 47 67 58 67 42 0 -13 -13 -26 -82 -86 -153 -132 -206 -157 -306 -139
-177 30 -369 154 -431 279 -25 50 -28 132 -7 210 33 125 176 341 218 330 10
-3 18 -1 18 4 0 5 8 9 18 9 15 0 19 -8 20 -41 2 -46 16 -69 40 -69 13 0 12 -3
-4 -15 -17 -13 -15 -14 31 -15 43 0 56 5 84 31 18 16 34 29 35 27 17 -28 68
-139 70 -152 2 -16 22 -35 37 -36 17 0 69 66 69 88 0 34 -1 35 -203 140 -32
16 -32 16 -41 -21 -5 -21 -4 -27 5 -21 8 4 9 3 5 -4 -4 -7 -23 -12 -42 -12
-36 0 -39 7 -34 69 1 13 -4 28 -12 32 -27 17 53 9 115 -12z m-665 -1741 c16
-20 26 -88 13 -88 -5 0 -15 -17 -21 -37 -5 -21 -25 -56 -42 -78 -26 -32 -41
-41 -70 -43 -31 -2 -43 4 -81 40 -61 58 -63 76 -10 102 23 12 42 27 43 34 0
21 32 63 54 72 32 13 102 11 114 -2z m380 -42 c23 0 32 -4 32 -15 -1 -44 -35
-152 -67 -214 -34 -64 -80 -126 -86 -116 -23 39 -37 70 -37 81 0 7 -4 19 -9
27 -8 12 -12 12 -24 2 -12 -10 -18 -8 -30 9 l-15 21 -26 -24 c-14 -13 -26 -30
-26 -36 0 -19 -31 -61 -45 -61 -19 0 -37 53 -30 86 4 16 23 61 43 101 27 51
42 72 57 72 11 1 32 1 47 2 17 0 35 9 47 24 10 14 25 25 32 25 8 1 25 7 39 15
14 8 34 11 45 7 11 -4 35 -6 53 -6z m-6356 -478 c0 -62 0 -120 0 -128 -1 -8
-5 -107 -8 -220 -9 -321 -12 -373 -19 -403 -4 -16 -3 -33 4 -41 8 -10 8 -16
-3 -25 -15 -13 -59 -1 -71 19 -5 8 -13 6 -25 -5 -16 -15 -22 -15 -38 -3 -11 7
-20 16 -21 20 -5 23 -18 49 -24 49 -31 -4 -75 1 -87 9 -13 8 -13 11 -1 22 11
10 14 10 18 1 6 -15 83 -18 83 -3 0 6 -6 10 -12 11 -7 0 -33 2 -57 4 -24 2
-48 9 -55 15 -8 10 -2 11 30 6 28 -4 47 -1 63 10 l23 16 -29 19 c-15 10 -35
17 -43 14 -21 -7 -46 10 -30 20 7 4 16 1 21 -6 5 -8 9 -9 9 -3 0 7 11 15 25
18 28 7 33 27 10 46 -12 10 -20 9 -39 -4 -23 -15 -26 -15 -35 2 -9 15 -13 15
-32 4 -13 -9 -25 -10 -31 -4 -12 12 13 18 105 27 37 4 70 11 72 16 3 4 -14 12
-37 17 l-43 9 44 12 c55 16 50 22 -9 11 -71 -14 -110 -12 -110 5 0 10 10 15
34 15 19 0 47 5 62 10 41 16 14 35 -46 32 l-50 -2 1 37 c1 33 2 34 8 13 9 -33
52 -35 61 -4 4 18 9 20 28 13 14 -5 22 -15 20 -26 -4 -24 34 -29 56 -8 23 23
22 77 -1 74 -51 -5 -73 1 -73 20 0 11 -4 23 -10 26 -5 3 -10 17 -10 31 0 17 6
24 18 24 10 0 22 -3 26 -7 8 -8 12 -9 59 -11 18 -2 27 -8 28 -19 0 -14 2 -15
6 -3 3 8 10 18 15 21 10 7 -20 69 -33 69 -6 0 -19 -5 -29 -10 -30 -16 -70 4
-70 35 0 18 5 25 20 25 13 0 20 7 20 20 0 11 5 20 11 20 6 0 9 -14 7 -32 -2
-24 -7 -32 -20 -30 -9 1 -19 -2 -22 -7 -3 -5 16 -9 44 -9 l50 -1 0 37 c0 34 4
39 40 54 46 19 50 34 15 50 -24 11 -24 12 -9 30 21 22 32 23 55 2 13 -11 17
-12 16 -2 -1 39 4 68 13 68 6 0 11 -45 12 -112z m6288 -113 c7 -8 18 -15 26
-15 19 0 29 -66 13 -83 -8 -7 -27 -30 -44 -51 -38 -49 -62 -61 -81 -45 -20 17
-41 -5 -48 -50 -5 -38 -26 -67 -26 -36 0 10 -3 16 -6 12 -12 -11 -54 50 -54
78 0 8 -5 23 -10 33 -13 20 9 153 26 159 6 2 16 -8 24 -21 12 -23 14 -24 36
-10 17 12 28 13 42 5 16 -9 25 -6 44 14 27 29 41 31 58 10z m2871 -505 c26 15
81 12 103 -5 23 -18 32 -74 41 -245 3 -63 10 -135 16 -158 5 -24 7 -53 4 -63
-4 -13 -2 -19 6 -17 10 2 13 -25 15 -112 2 -63 7 -135 13 -160 6 -25 11 -64
11 -87 0 -23 4 -44 9 -47 4 -3 7 -25 5 -48 -3 -55 4 -81 22 -74 7 3 16 1 19
-4 4 -6 -3 -10 -14 -10 -12 0 -21 -7 -21 -15 0 -8 4 -15 8 -15 5 0 10 -65 10
-145 1 -83 6 -154 13 -166 6 -11 12 -52 14 -90 2 -38 9 -76 15 -84 7 -8 9 -26
5 -43 -4 -20 0 -36 15 -55 12 -15 17 -27 11 -27 -16 0 -24 -45 -13 -67 7 -12
7 -36 1 -68 -8 -42 -7 -52 7 -62 13 -9 14 -16 6 -26 -11 -13 -9 -64 7 -142 l8
-40 10 45 11 45 3 -47 c1 -27 3 -56 3 -65 1 -12 -5 -17 -16 -15 -13 2 -18 -4
-18 -20 0 -17 3 -19 12 -10 18 18 28 15 28 -8 0 -11 -6 -23 -14 -26 -19 -7 -9
-32 12 -30 18 1 18 -5 6 -71 -5 -26 -3 -33 10 -33 10 0 16 -8 16 -24 0 -13 3
-31 6 -39 3 -8 -2 -17 -11 -21 -9 -3 -13 -2 -10 4 8 12 -3 50 -15 50 -11 0
-20 -38 -13 -56 3 -8 11 -14 19 -14 9 0 14 -11 14 -30 0 -16 5 -30 10 -30 6 0
10 -7 10 -15 0 -8 -7 -15 -15 -15 -21 0 -35 -40 -21 -62 6 -10 18 -18 27 -18
12 0 16 -13 17 -67 0 -46 -2 -62 -8 -48 -7 15 -9 16 -9 4 -1 -9 8 -23 20 -30
22 -15 17 -54 -6 -45 -18 6 -27 -36 -16 -66 6 -13 10 -17 10 -10 1 6 6 12 12
12 6 0 9 -10 8 -22 -2 -13 2 -33 9 -45 7 -12 12 -39 11 -60 l-1 -38 -9 32 c-5
18 -13 34 -18 37 -10 7 -7 -121 4 -147 4 -9 5 -24 2 -32 -4 -8 -2 -17 4 -21 6
-3 8 -13 5 -21 -4 -9 -2 -21 4 -28 7 -8 7 -22 0 -41 -6 -17 -8 -41 -6 -54 2
-14 5 -28 5 -32 1 -5 10 -8 20 -8 11 0 23 -4 26 -10 3 -6 -5 -10 -19 -10 -14
0 -28 -4 -31 -10 -3 -5 -2 -10 4 -10 6 0 13 -11 17 -25 3 -14 12 -25 20 -25
17 0 19 -30 2 -31 -10 0 -10 -2 0 -6 17 -7 15 -30 -3 -41 -13 -7 -14 -14 -5
-36 15 -39 13 -53 -11 -75 -16 -15 -19 -26 -14 -50 5 -26 11 -31 35 -31 35 0
48 -33 51 -130 3 -63 2 -65 -22 -65 -32 0 -36 -19 -24 -128 10 -92 24 -132 54
-154 9 -6 13 -15 8 -19 -4 -4 -7 -2 -7 4 0 18 -27 14 -34 -4 -6 -16 2 -64 11
-64 3 0 11 7 18 16 11 16 12 16 18 0 4 -9 2 -16 -3 -16 -13 0 -1 -98 16 -137
17 -38 19 -97 3 -87 -8 4 -9 -1 -4 -17 4 -13 12 -25 16 -27 12 -5 11 -42 -1
-42 -5 0 -10 -9 -10 -20 0 -11 6 -19 13 -17 8 1 13 -15 15 -49 2 -40 -1 -54
-18 -69 -11 -10 -20 -23 -20 -29 0 -6 -9 -22 -19 -34 -16 -22 -19 -23 -34 -8
-8 9 -22 16 -31 16 -8 0 -17 9 -21 19 -3 11 -22 25 -41 31 -39 13 -58 42 -50
75 4 15 1 25 -8 28 -17 7 -29 69 -30 152 -1 33 -5 66 -10 73 -5 8 -4 18 2 24
8 8 8 17 1 30 -6 10 -12 54 -14 96 -2 42 -8 118 -14 167 -6 50 -13 142 -16
205 -3 63 -10 135 -16 160 -5 25 -8 70 -8 100 3 77 -12 223 -23 237 -5 7 -7
17 -3 23 4 6 2 50 -5 98 -6 48 -13 123 -15 167 -11 201 -16 265 -25 330 -6 39
-10 81 -9 95 1 27 -8 133 -16 190 -6 37 -13 122 -20 255 -3 44 -9 101 -15 126
-5 26 -10 97 -11 158 0 61 -5 114 -10 117 -5 3 -9 30 -9 60 0 30 -5 85 -10
122 -6 37 -18 155 -26 262 -28 344 -30 365 -36 375 -4 6 -8 53 -9 105 -1 52
-6 106 -11 120 -5 13 -13 85 -18 160 -15 227 -31 411 -44 506 l-12 91 29 -8
c17 -5 37 -4 48 1z m-2595 -105 c10 -8 26 -15 35 -15 18 0 52 -34 43 -43 -3
-3 10 -20 30 -37 20 -18 33 -37 30 -42 -4 -6 -10 -5 -15 3 -11 19 -19 7 -13
-18 3 -12 14 -23 25 -26 13 -4 19 -15 20 -36 1 -17 2 -45 3 -62 1 -21 9 -37
24 -46 18 -13 22 -25 22 -68 0 -34 -5 -55 -12 -58 -10 -4 -10 -7 0 -18 10 -11
12 -10 12 4 0 10 8 17 18 17 13 0 23 13 32 40 7 22 16 40 19 40 3 0 13 -20 22
-45 15 -42 15 -46 -1 -65 -12 -14 -20 -16 -27 -9 -8 8 -14 5 -22 -9 -14 -26 2
-72 24 -72 8 0 15 -5 15 -11 0 -8 5 -8 15 1 8 7 15 21 15 31 0 11 7 19 15 19
8 0 15 -9 15 -21 0 -15 5 -19 19 -14 28 8 84 -22 104 -56 12 -22 22 -29 35
-25 11 4 21 -1 27 -13 40 -75 59 -107 68 -113 14 -8 13 -71 0 -75 -7 -3 -3
-19 9 -44 19 -40 44 -44 34 -5 -3 11 -1 27 3 35 6 9 10 0 13 -28 2 -22 0 -41
-5 -41 -4 0 -6 -12 -3 -27 2 -16 5 -34 5 -41 1 -7 5 -11 10 -8 5 3 11 -3 14
-14 3 -13 10 -18 21 -14 13 5 16 -1 16 -27 0 -30 1 -31 13 -15 13 17 15 16 30
-17 9 -19 17 -40 17 -46 0 -6 4 -11 9 -11 5 0 9 -12 9 -27 0 -14 7 -32 16 -38
9 -7 16 -19 16 -28 0 -8 6 -28 14 -44 44 -86 76 -203 56 -203 -5 0 -10 4 -10
10 0 18 -79 103 -135 145 -56 42 -94 61 -136 69 -21 4 -42 13 -49 21 -7 8 -27
15 -46 15 -18 0 -36 5 -39 10 -3 6 -24 10 -46 10 -21 0 -39 5 -39 10 0 6 12
10 26 10 19 0 25 4 20 15 -5 13 -2 14 15 5 11 -6 28 -9 37 -7 12 3 11 5 -5 6
-17 1 -23 7 -23 24 -1 27 -22 57 -41 57 -11 0 -11 2 1 10 9 6 17 5 21 -2 4 -6
12 -9 18 -7 18 7 -12 53 -46 70 -30 15 -31 17 -18 37 19 27 9 52 -21 52 -17 0
-22 4 -18 15 4 8 12 15 20 15 24 0 16 17 -11 24 -14 4 -25 11 -25 16 0 6 -4
10 -10 10 -17 0 -50 39 -50 59 0 11 6 22 13 25 6 3 2 3 -10 0 -23 -5 -33 11
-11 18 15 5 2 58 -15 58 -14 0 -57 85 -57 110 0 11 -4 10 -17 -3 -17 -16 -18
-14 -29 45 -22 121 -46 179 -85 212 -32 27 -36 36 -15 36 8 0 15 14 18 35 4
36 -7 49 -15 18 -4 -14 -5 -13 -6 4 0 12 4 23 10 25 14 5 3 44 -14 51 -9 3
-12 -13 -12 -61 0 -43 -4 -67 -12 -69 -8 -3 -13 -21 -13 -44 0 -35 -3 -39 -25
-39 -18 0 -25 -5 -25 -20 0 -17 7 -20 40 -20 22 0 40 5 40 10 0 6 5 10 10 10
6 0 10 -12 10 -26 0 -14 4 -34 10 -44 5 -10 7 -26 4 -35 -6 -14 -8 -14 -26 2
-16 14 -23 15 -38 5 -34 -21 -50 -15 -50 18 0 27 3 30 33 31 l32 2 -35 6 c-19
4 -38 6 -42 4 -3 -2 -16 -33 -28 -69 -33 -103 -53 -115 -101 -59 -25 29 -33
32 -48 23 -27 -16 -49 -3 -59 33 -10 41 -29 48 -38 14 -8 -33 -28 -27 -32 10
-6 50 60 173 90 167 9 -2 22 -17 29 -34 13 -31 13 -31 29 -10 10 12 26 21 36
21 11 1 37 1 59 1 22 0 48 3 58 6 21 7 23 34 2 34 -12 0 -13 4 -5 19 16 30 12
59 -12 91 -14 20 -22 47 -24 81 -2 29 -8 56 -16 61 -10 7 -9 11 6 19 15 9 16
13 5 20 -9 6 2 9 32 9 25 0 54 -7 65 -15z m-431 -313 c29 -20 4 -132 -30 -132
-7 0 -17 -9 -20 -20 -7 -23 -35 -27 -35 -5 0 8 -4 15 -9 15 -5 0 -11 12 -15
28 -3 15 -8 37 -12 48 -5 18 2 27 38 48 44 27 65 31 83 18z m345 -771 c0 -19
15 -60 49 -136 10 -22 29 -69 41 -105 13 -36 27 -69 31 -75 4 -5 15 -37 24
-70 9 -33 23 -69 29 -80 12 -19 28 -67 31 -90 1 -5 16 -41 34 -80 19 -38 38
-81 45 -95 29 -67 90 -134 115 -127 10 2 44 0 76 -5 54 -10 56 -11 33 -24 -12
-8 -30 -16 -38 -19 -26 -10 -42 -43 -30 -64 5 -10 11 -33 12 -50 2 -24 6 -30
19 -26 20 7 34 -24 24 -55 -3 -11 -2 -20 3 -20 5 0 13 -10 17 -22 7 -21 7 -22
12 -4 3 11 11 26 19 33 8 8 17 26 21 41 3 15 15 42 25 60 23 41 23 52 1 53
-17 1 -17 2 0 6 9 2 17 10 17 17 0 9 14 13 40 13 41 0 74 18 64 35 -3 5 -12 7
-18 5 -9 -4 -11 2 -9 17 3 14 19 30 41 41 33 16 35 18 17 25 -19 7 -19 7 3 14
12 4 22 13 22 20 0 17 -78 38 -82 24 -2 -6 -10 -3 -17 6 -11 13 -11 16 2 16
20 0 28 64 13 110 -17 54 -31 41 -34 -31 -2 -51 -7 -71 -22 -84 -12 -11 -20
-13 -20 -7 0 7 5 12 11 12 6 0 10 18 9 43 -1 23 -1 77 -1 120 1 63 4 77 17 77
8 0 12 5 9 10 -3 6 -15 10 -26 10 -10 0 -19 7 -19 15 0 8 -4 15 -10 15 -5 0
-10 7 -10 15 0 8 -4 15 -10 15 -5 0 -10 9 -10 19 0 11 5 23 10 26 6 3 10 15
10 26 0 21 19 60 35 71 6 5 4 8 -4 8 -14 0 -7 14 7 16 4 0 15 4 25 9 21 9 86
-9 137 -39 19 -12 52 -30 73 -40 20 -11 37 -23 37 -27 0 -5 10 -18 23 -31 12
-13 28 -43 35 -68 22 -72 35 -247 23 -305 -10 -49 -19 -105 -27 -175 -8 -74
-11 -86 -18 -98 -4 -7 -5 -16 -2 -20 8 -13 -20 -174 -39 -222 -10 -25 -17 -58
-16 -74 1 -39 -16 -58 -43 -50 -12 4 -54 8 -93 9 -40 1 -76 4 -79 8 -14 13 10
27 49 28 39 0 40 1 17 11 -37 15 -141 18 -173 4 -27 -10 -28 -13 -22 -56 4
-25 10 -49 13 -55 4 -5 8 -26 8 -45 1 -29 16 -133 40 -275 17 -100 16 -109 -8
-145 -20 -30 -22 -38 -11 -48 14 -14 18 -62 4 -62 -5 0 -14 7 -21 15 -7 8 -19
15 -26 15 -8 0 -14 8 -15 18 0 9 -1 37 -3 62 -1 25 -3 89 -4 143 -2 95 -3 100
-32 129 -16 16 -30 38 -30 48 0 10 -4 22 -10 25 -17 11 -11 -57 10 -115 11
-30 20 -65 20 -77 0 -12 5 -23 10 -25 6 -2 13 -28 15 -58 5 -53 5 -54 -9 -26
-9 20 -15 25 -18 15 -4 -11 -9 -12 -27 -1 -11 6 -23 12 -26 12 -9 0 -6 -47 5
-74 6 -18 6 -26 -1 -26 -6 0 -8 -3 -6 -7 3 -5 1 -17 -4 -28 -7 -18 -8 -18 -9
5 -2 14 -2 29 -1 34 1 4 -5 19 -13 31 -8 13 -21 45 -27 71 -7 26 -19 56 -28
66 -12 14 -16 41 -16 111 0 83 -5 105 -45 222 -25 72 -45 131 -45 131 0 1 -11
5 -24 9 -22 7 -23 5 -17 -20 7 -26 6 -27 -21 -20 -46 11 -45 10 -126 185 -15
30 -29 74 -33 98 -6 38 -23 59 -25 30 0 -7 -5 -2 -10 11 -5 13 -8 38 -6 55 2
17 2 23 0 14 -2 -10 -8 -18 -12 -18 -10 0 -41 67 -41 90 0 10 -4 21 -9 24 -4
3 -18 34 -31 68 -12 35 -29 70 -36 79 -19 21 -32 85 -15 75 9 -6 11 7 6 56 -6
56 -24 115 -25 81 0 -7 -4 -13 -10 -13 -6 0 -10 36 -10 88 0 50 -6 104 -15
127 -15 41 -20 188 -9 243 6 31 7 31 58 26 28 -3 69 -1 91 4 68 17 95 14 95
-7z m4119 -310 c7 -12 7 -30 1 -51 -8 -27 -6 -38 10 -60 15 -21 20 -42 18 -82
-1 -29 -7 -56 -12 -60 -7 -5 -3 -13 9 -22 17 -13 18 -18 7 -35 -7 -13 -8 -21
-2 -21 11 0 13 -39 4 -64 -8 -22 -34 -20 -34 2 0 9 -7 36 -15 58 -11 33 -12
48 -3 71 8 23 8 43 -1 84 -14 59 -15 153 -2 197 3 7 11 0 20 -17z m-2862
-1649 c18 -9 70 -36 116 -60 91 -46 127 -78 154 -134 10 -20 33 -47 52 -60 56
-38 74 -71 76 -135 2 -47 6 -59 25 -72 38 -26 70 -87 76 -149 3 -31 10 -73 15
-92 5 -19 9 -73 9 -120 l0 -85 -116 -111 c-98 -93 -116 -115 -111 -134 4 -16
1 -23 -14 -27 -26 -7 -24 -25 6 -57 25 -27 32 -46 18 -46 -13 0 -70 70 -90
109 -10 20 -21 38 -25 39 -5 2 -8 9 -8 16 0 7 -7 27 -15 43 -12 25 -20 30 -38
25 -19 -5 -20 -3 -9 10 10 12 8 22 -13 52 -14 20 -27 47 -31 61 -3 13 -12 29
-19 35 -8 7 -19 28 -25 48 -14 46 -42 104 -55 117 -13 12 -50 131 -65 206 -10
51 -8 64 12 120 21 58 23 81 22 242 0 117 4 177 11 177 5 -1 24 -9 42 -18z
m3373 -686 c-6 -20 -15 -36 -20 -36 -19 0 -19 -34 0 -47 13 -9 19 -21 15 -33
-4 -11 1 -20 12 -25 16 -7 15 -9 -7 -16 -22 -7 -21 -8 9 -6 20 1 36 -3 38 -10
3 -8 -5 -13 -22 -13 -15 0 -25 -3 -23 -7 2 -5 10 -20 17 -35 13 -26 10 -58 -6
-58 -4 0 -15 5 -23 10 -13 8 -13 13 -2 30 10 17 10 23 -2 35 -8 8 -23 15 -34
15 -28 0 -33 10 -16 35 14 22 15 80 0 103 -4 6 -4 23 0 37 4 18 13 25 31 25
19 0 24 4 19 16 -8 21 3 39 16 26 7 -7 6 -22 -2 -46z m-10852 -195 c4 -12 -94
-218 -109 -227 -4 -2 -6 -11 -2 -20 4 -12 8 -12 21 -2 12 10 16 10 19 1 7 -19
24 -16 51 10 l25 22 -6 -43 c-5 -39 -3 -44 19 -52 30 -12 30 -27 2 -57 -19
-20 -20 -25 -8 -33 11 -7 17 -4 22 8 5 13 7 10 7 -9 1 -15 -6 -29 -14 -33 -22
-8 -18 -28 4 -21 33 10 31 -20 -5 -59 -19 -20 -34 -43 -34 -51 0 -7 -11 -27
-25 -43 -14 -17 -25 -33 -25 -36 0 -4 -15 -22 -34 -40 -33 -34 -47 -35 -60 -6
-3 8 -4 0 -1 -17 3 -24 -2 -43 -19 -68 -28 -41 -46 -115 -39 -166 5 -36 -20
-74 -35 -53 -8 10 -42 15 -42 5 0 -13 20 -36 20 -23 0 6 5 12 10 12 6 0 10
-13 10 -30 0 -19 5 -30 14 -30 23 0 30 -20 12 -33 -8 -7 -17 -28 -19 -47 -4
-41 -26 -100 -36 -100 -4 0 -15 -23 -25 -50 -10 -28 -23 -53 -28 -56 -12 -7
-31 18 -20 26 4 3 18 20 30 38 21 30 22 35 8 45 -13 10 -14 18 -5 47 6 19 12
65 14 102 3 65 2 68 -18 63 -19 -5 -22 -1 -24 25 -3 37 -25 62 -49 53 -14 -5
-16 -1 -12 30 3 27 0 37 -13 40 -9 3 -20 19 -24 36 -4 17 -13 31 -21 31 -17 0
-19 -20 -1 -21 9 0 9 -2 -1 -6 -14 -5 -62 44 -62 63 0 20 -33 26 -46 10 -27
-38 -68 -3 -124 107 -7 15 -21 27 -30 27 -9 0 -25 9 -34 19 -17 19 -17 19 25
5 47 -17 58 -10 59 36 0 26 31 61 63 73 9 3 17 2 17 -3 0 -17 60 -11 67 5 4
12 18 15 50 14 35 -2 42 -6 37 -18 -10 -25 -10 -50 1 -51 6 0 10 4 10 9 0 5 3
13 8 17 4 4 7 16 7 27 0 10 9 21 20 24 26 7 26 39 -1 46 -11 3 -44 4 -72 3
-29 -1 -57 2 -64 8 -7 6 -19 17 -28 24 -19 16 -20 32 -1 32 7 0 16 14 20 32 7
35 -5 49 -39 47 -52 -3 -55 -1 -55 44 0 52 23 89 53 85 17 -2 22 -10 21 -29
-1 -26 0 -27 30 -14 33 14 45 52 20 62 -11 4 -11 7 1 19 16 16 45 19 45 4 0
-5 7 -10 15 -10 8 0 15 -4 15 -9 0 -5 9 -11 20 -14 14 -3 20 -14 20 -31 0 -14
4 -26 10 -26 5 0 9 3 9 8 -5 31 32 62 54 44 7 -6 23 -12 37 -14 19 -2 25 -9
25 -28 0 -28 21 -29 42 -2 16 22 16 32 -1 32 -17 0 -66 38 -66 51 0 6 31 7 80
3 57 -5 80 -4 80 5 0 6 -6 11 -14 11 -7 0 -16 11 -18 25 -3 14 -1 25 5 25 6 0
1 10 -11 23 -32 34 -28 55 11 59 41 4 150 -25 155 -41z m9171 -378 c5 -10 12
-67 15 -128 4 -60 9 -126 12 -145 2 -19 0 -42 -6 -50 -8 -13 -11 -13 -24 0
-11 11 -17 44 -21 105 -2 50 -7 123 -10 163 -5 60 -4 72 9 72 8 0 19 -8 25
-17z"/>
<path d="M6100 7992 c0 -15 65 -68 105 -86 29 -12 45 -28 59 -57 15 -31 24
-39 39 -35 14 3 17 0 13 -12 -5 -13 -3 -12 9 2 20 27 19 55 -5 94 -22 35 -87
71 -131 72 -14 0 -34 7 -45 15 -21 16 -44 20 -44 7z"/>
<path d="M5586 7723 c35 -50 126 -123 151 -123 11 0 26 -7 33 -15 7 -8 21 -15
31 -15 10 0 21 -5 24 -10 3 -6 26 -19 50 -30 23 -11 64 -35 89 -55 25 -19 50
-35 55 -35 4 0 16 -9 27 -21 19 -21 136 -79 160 -79 7 0 44 -30 83 -67 61 -58
76 -67 111 -68 41 -2 41 -2 22 19 -19 22 -47 84 -56 126 -8 38 -43 70 -76 70
-42 0 -130 20 -130 30 0 17 -121 130 -139 130 -11 0 -21 4 -23 9 -1 5 -39 18
-83 29 -148 38 -265 85 -296 118 -12 13 -31 24 -41 24 -17 0 -17 -4 8 -37z"/>
<path d="M7006 3999 c2 -64 8 -129 14 -144 13 -33 13 -31 -3 -47 -8 -7 -16
-27 -20 -43 -3 -17 -4 -24 -1 -17 10 22 24 2 24 -34 0 -22 5 -34 13 -34 8 0
22 -18 32 -40 10 -22 24 -40 32 -40 16 0 16 3 -1 45 -8 19 -20 35 -25 35 -6 0
-11 7 -11 15 0 22 11 18 38 -12 l23 -27 -4 62 c-2 34 -6 65 -10 68 -4 4 -7 15
-7 25 0 9 -13 53 -29 96 -16 43 -32 99 -36 124 -3 26 -12 55 -20 65 -12 16
-13 3 -9 -97z"/>
<path d="M7360 3650 c0 -14 16 -67 31 -105 4 -11 20 -56 35 -100 14 -44 34
-98 44 -120 10 -22 21 -58 25 -80 3 -22 11 -47 16 -55 7 -11 8 -2 3 29 -4 31
-3 42 5 37 16 -10 14 34 -4 68 -8 15 -15 34 -15 42 0 7 -9 28 -19 46 -11 18
-27 58 -37 88 -9 30 -25 67 -36 82 -10 14 -18 30 -18 35 -1 15 -30 48 -30 33z"/>
<path d="M7784 3444 c-8 -3 -10 -20 -7 -44 5 -35 3 -40 -13 -40 -12 0 -24 -11
-31 -29 -13 -36 -5 -122 13 -136 7 -5 14 -25 16 -44 2 -20 9 -36 18 -39 8 -3
12 -1 8 3 -4 4 -3 16 3 27 8 14 6 25 -5 43 -21 31 -21 95 -2 95 10 0 13 8 11
22 -3 12 1 31 9 43 7 11 15 39 17 63 5 42 -3 50 -37 36z"/>
<path d="M8311 14818 c0 -10 -8 -18 -16 -18 -10 0 -15 -10 -15 -30 0 -28 -1
-29 -27 -19 -25 9 -42 0 -43 -23 0 -5 -11 -8 -23 -8 -24 0 -47 -33 -47 -65 0
-19 -56 -20 -63 -2 -4 10 -7 10 -18 0 -20 -19 -36 -16 -44 10 -7 21 -8 21 -12
-6 -3 -16 -3 -30 -1 -32 2 -2 38 -6 81 -10 67 -6 77 -5 77 9 0 9 8 16 19 16
15 0 21 10 26 40 7 44 29 53 39 18 6 -22 7 -21 23 10 20 41 37 49 58 29 11
-12 12 -17 2 -20 -6 -2 -10 -7 -7 -10 3 -4 21 3 39 14 31 19 32 21 17 38 -12
13 -13 20 -4 29 9 9 5 12 -19 12 -22 0 -33 6 -36 18 -4 16 -5 16 -6 0z"/>
</g>
</svg>
